<?xml version="1.0" encoding="utf-8" ?>
<!DOCTYPE svg PUBLIC "-//W3C//DTD SVG 1.1//EN" "http://www.w3.org/Graphics/SVG/1.1/DTD/svg11.dtd">
<svg height="812" version="1.1" width="1221" xmlns="http://www.w3.org/2000/svg">
<rect fill="#ffffff" height="122" stroke="#ffffff" stroke-width="1" width="141" x="206" y="94"/>
<rect fill="none" height="122" stroke="#000000" stroke-width="1" width="141" x="206" y="94"/>
<text font-family="Lucida Grande" font-size="13" x="262" y="108">
User</text>
<rect fill="#000000" height="1" stroke="#000000" stroke-width="1" width="141" x="206" y="118"/>
<text font-family="Lucida Grande" font-size="13" x="210" y="133">
name : String</text>
<text font-family="Lucida Grande" font-size="13" x="210" y="150">
surname : String</text>
<text font-family="Lucida Grande" font-size="13" x="210" y="167">
fiscalCode : String</text>
<text font-family="Lucida Grande" font-size="13" x="210" y="184">
dateOfBirth : Date</text>
<rect fill="#000000" height="1" stroke="#000000" stroke-width="1" width="141" x="206" y="194"/>
<rect fill="#ffffff" height="122" stroke="#ffffff" stroke-width="1" width="116" x="478" y="102"/>
<rect fill="none" height="122" stroke="#000000" stroke-width="1" width="116" x="478" y="102"/>
<text font-family="Lucida Grande" font-size="13" x="508" y="116">
Violation</text>
<rect fill="#000000" height="1" stroke="#000000" stroke-width="1" width="116" x="478" y="126"/>
<text font-family="Lucida Grande" font-size="13" x="482" y="141">
type : String</text>
<text font-family="Lucida Grande" font-size="13" x="482" y="158">
date : Date</text>
<text font-family="Lucida Grande" font-size="13" x="482" y="175">
time : Time</text>
<rect fill="#000000" height="1" stroke="#000000" stroke-width="1" width="116" x="478" y="193"/>
<rect fill="#ffffff" height="68" stroke="#ffffff" stroke-width="1" width="66" x="702" y="78"/>
<rect fill="none" height="68" stroke="#000000" stroke-width="1" width="66" x="702" y="78"/>
<text font-family="Lucida Grande" font-size="13" x="713" y="92">
Picture</text>
<rect fill="#000000" height="1" stroke="#000000" stroke-width="1" width="66" x="702" y="102"/>
<rect fill="#000000" height="1" stroke="#000000" stroke-width="1" width="66" x="702" y="123"/>
<rect fill="#ffffff" height="139" stroke="#ffffff" stroke-width="1" width="129" x="1078" y="150"/>
<rect fill="none" height="139" stroke="#000000" stroke-width="1" width="129" x="1078" y="150"/>
<text font-family="Lucida Grande" font-size="13" x="1117" y="164">
Position</text>
<rect fill="#000000" height="1" stroke="#000000" stroke-width="1" width="129" x="1078" y="174"/>
<text font-family="Lucida Grande" font-size="13" x="1082" y="189">
latitude : Double</text>
<text font-family="Lucida Grande" font-size="13" x="1082" y="206">
longitude : Double</text>
<text font-family="Lucida Grande" font-size="13" x="1082" y="223">
altitude : Double</text>
<rect fill="#000000" height="1" stroke="#000000" stroke-width="1" width="129" x="1078" y="250"/>
<polyline fill="none" points="593,105 702,105" stroke="#000000" stroke-width="1"/>
<line fill="#000000" stroke="#000000" stroke-width="1" x1="690" x2="702" y1="112" y2="105"/>
<line fill="#000000" stroke="#000000" stroke-width="1" x1="690" x2="702" y1="98" y2="105"/>
<text font-family="Lucida Grande" font-size="13" x="603" y="85">
identifiedBy</text>
<text font-family="Lucida Grande" font-size="13" x="597" y="100">
1..*</text>
<text font-family="Lucida Grande" font-size="13" x="676" y="100">
1..*</text>
<polyline fill="none" points="593,206 830,206" stroke="#000000" stroke-width="1"/>
<line fill="#000000" stroke="#000000" stroke-width="1" x1="818" x2="830" y1="213" y2="206"/>
<line fill="#000000" stroke="#000000" stroke-width="1" x1="818" x2="830" y1="199" y2="206"/>
<text font-family="Lucida Grande" font-size="13" x="667" y="186">
wasMadeIn</text>
<text font-family="Lucida Grande" font-size="13" x="597" y="201">
1..*</text>
<text font-family="Lucida Grande" font-size="13" x="813" y="222">
1</text>
<polyline fill="none" points="346,134 478,134" stroke="#000000" stroke-width="1"/>
<line fill="#000000" stroke="#000000" stroke-width="1" x1="466" x2="478" y1="141" y2="134"/>
<line fill="#000000" stroke="#000000" stroke-width="1" x1="466" x2="478" y1="127" y2="134"/>
<text font-family="Lucida Grande" font-size="13" x="368" y="114">
describes</text>
<text font-family="Lucida Grande" font-size="13" x="350" y="129">
1..*</text>
<text font-family="Lucida Grande" font-size="13" x="452" y="129">
1..*</text>
<rect fill="#ffffff" height="122" stroke="#ffffff" stroke-width="1" width="158" x="454" y="366"/>
<rect fill="none" height="122" stroke="#000000" stroke-width="1" width="158" x="454" y="366"/>
<text font-family="Lucida Grande" font-size="13" x="510" y="380">
Vehicle</text>
<rect fill="#000000" height="1" stroke="#000000" stroke-width="1" width="158" x="454" y="390"/>
<text font-family="Lucida Grande" font-size="13" x="458" y="405">
type : String</text>
<text font-family="Lucida Grande" font-size="13" x="458" y="422">
description : String</text>
<text font-family="Lucida Grande" font-size="13" x="458" y="439">
parkDescription : String</text>
<rect fill="#000000" height="1" stroke="#000000" stroke-width="1" width="158" x="454" y="457"/>
<rect fill="#ffffff" height="105" stroke="#ffffff" stroke-width="1" width="134" x="830" y="142"/>
<rect fill="none" height="105" stroke="#000000" stroke-width="1" width="134" x="830" y="142"/>
<text font-family="Lucida Grande" font-size="13" x="881" y="156">
Place</text>
<rect fill="#000000" height="1" stroke="#000000" stroke-width="1" width="134" x="830" y="166"/>
<text font-family="Lucida Grande" font-size="13" x="834" y="181">
city : String</text>
<text font-family="Lucida Grande" font-size="13" x="834" y="198">
houseCode : Integer</text>
<rect fill="#000000" height="1" stroke="#000000" stroke-width="1" width="134" x="830" y="216"/>
<polyline fill="none" points="963,206 1078,206" stroke="#000000" stroke-width="1"/>
<line fill="#000000" stroke="#000000" stroke-width="1" x1="1066" x2="1078" y1="213" y2="206"/>
<line fill="#000000" stroke="#000000" stroke-width="1" x1="1066" x2="1078" y1="199" y2="206"/>
<text font-family="Lucida Grande" font-size="13" x="980" y="186">
has</text>
<text font-family="Lucida Grande" font-size="13" x="974" y="201">
1</text>
<text font-family="Lucida Grande" font-size="13" x="1051" y="201">
0..1</text>
<polyline fill="none" points="531,223 531,366" stroke="#000000" stroke-width="1"/>
<line fill="#000000" stroke="#000000" stroke-width="1" x1="524" x2="531" y1="354" y2="366"/>
<line fill="#000000" stroke="#000000" stroke-width="1" x1="538" x2="531" y1="354" y2="366"/>
<text font-family="Lucida Grande" font-size="13" x="534" y="299">
madeBy</text>
<text font-family="Lucida Grande" font-size="13" x="537" y="250">
0..*</text>
<text font-family="Lucida Grande" font-size="13" x="537" y="349">
0..*</text>
<rect fill="#ffffff" height="88" stroke="#ffffff" stroke-width="1" width="124" x="710" y="358"/>
<rect fill="none" height="88" stroke="#000000" stroke-width="1" width="124" x="710" y="358"/>
<text font-family="Lucida Grande" font-size="13" x="733" y="372">
LicencePlate</text>
<rect fill="#000000" height="1" stroke="#000000" stroke-width="1" width="124" x="710" y="382"/>
<text font-family="Lucida Grande" font-size="13" x="714" y="397">
plate : String</text>
<text font-family="Lucida Grande" font-size="13" x="714" y="414">
country : String</text>
<rect fill="#000000" height="1" stroke="#000000" stroke-width="1" width="124" x="710" y="424"/>
<polyline fill="none" points="611,397 710,397" stroke="#000000" stroke-width="1"/>
<line fill="#000000" stroke="#000000" stroke-width="1" x1="698" x2="710" y1="404" y2="397"/>
<line fill="#000000" stroke="#000000" stroke-width="1" x1="698" x2="710" y1="390" y2="397"/>
<text font-family="Lucida Grande" font-size="13" x="620" y="377">
has</text>
<text font-family="Lucida Grande" font-size="13" x="622" y="392">
1</text>
<text font-family="Lucida Grande" font-size="13" x="683" y="392">
0..1</text>
<rect fill="#ffffff" height="71" stroke="#ffffff" stroke-width="1" width="113" x="1054" y="14"/>
<rect fill="none" height="71" stroke="#000000" stroke-width="1" width="113" x="1054" y="14"/>
<text font-family="Lucida Grande" font-size="13" x="1092" y="28">
Street</text>
<rect fill="#000000" height="1" stroke="#000000" stroke-width="1" width="113" x="1054" y="38"/>
<text font-family="Lucida Grande" font-size="13" x="1058" y="53">
name : String</text>
<rect fill="#000000" height="1" stroke="#000000" stroke-width="1" width="113" x="1054" y="63"/>
<polyline fill="none" points="963,142 1054,84" stroke="#000000" stroke-width="1"/>
<line fill="#000000" stroke="#000000" stroke-width="1" x1="1047" x2="1054" y1="96" y2="84"/>
<line fill="#000000" stroke="#000000" stroke-width="1" x1="1040" x2="1054" y1="84" y2="84"/>
<text font-family="Lucida Grande" font-size="13" x="945" y="90">
situatedIn</text>
<text font-family="Lucida Grande" font-size="13" x="961" y="121">
0..*</text>
<text font-family="Lucida Grande" font-size="13" x="1023" y="87">
1</text>
<polyline fill="none" points="326,502 326,215" stroke="#000000" stroke-width="1"/>
<line fill="#000000" stroke="#000000" stroke-width="1" x1="319" x2="326" y1="490" y2="502"/>
<line fill="#000000" stroke="#000000" stroke-width="1" x1="333" x2="326" y1="490" y2="502"/>
<text font-family="Lucida Grande" font-size="13" x="329" y="368">
looks</text>
<text font-family="Lucida Grande" font-size="13" x="298" y="482">
0..*</text>
<text font-family="Lucida Grande" font-size="13" x="298" y="242">
1..*</text>
<rect fill="#ffffff" height="88" stroke="#ffffff" stroke-width="1" width="113" x="1078" y="382"/>
<rect fill="none" height="88" stroke="#000000" stroke-width="1" width="113" x="1078" y="382"/>
<text font-family="Lucida Grande" font-size="13" x="1096" y="396">
Municipality</text>
<rect fill="#000000" height="1" stroke="#000000" stroke-width="1" width="113" x="1078" y="406"/>
<text font-family="Lucida Grande" font-size="13" x="1082" y="421">
name : String</text>
<rect fill="#000000" height="1" stroke="#000000" stroke-width="1" width="113" x="1078" y="439"/>
<polyline fill="none" points="1078,382 963,246" stroke="#000000" stroke-width="1"/>
<line fill="#000000" stroke="#000000" stroke-width="1" x1="976" x2="963" y1="250" y2="246"/>
<line fill="#000000" stroke="#000000" stroke-width="1" x1="965" x2="963" y1="259" y2="246"/>
<text font-family="Lucida Grande" font-size="13" x="1008" y="293">
residies</text>
<text font-family="Lucida Grande" font-size="13" x="1065" y="356">
0..1</text>
<text font-family="Lucida Grande" font-size="13" x="989" y="257">
1</text>
<rect fill="#ffffff" height="68" stroke="#ffffff" stroke-width="1" width="79" x="534" y="518"/>
<rect fill="none" height="68" stroke="#000000" stroke-width="1" width="79" x="534" y="518"/>
<text font-family="Lucida Grande" font-size="13" x="539" y="532">
SafeStreets</text>
<rect fill="#000000" height="1" stroke="#000000" stroke-width="1" width="79" x="534" y="542"/>
<rect fill="#000000" height="1" stroke="#000000" stroke-width="1" width="79" x="534" y="563"/>
<rect fill="#ffffff" height="71" stroke="#ffffff" stroke-width="1" width="128" x="870" y="502"/>
<rect fill="none" height="71" stroke="#000000" stroke-width="1" width="128" x="870" y="502"/>
<text font-family="Lucida Grande" font-size="13" x="896" y="516">
Intervention</text>
<rect fill="#000000" height="1" stroke="#000000" stroke-width="1" width="128" x="870" y="526"/>
<text font-family="Lucida Grande" font-size="13" x="874" y="541">
description : String</text>
<rect fill="#000000" height="1" stroke="#000000" stroke-width="1" width="128" x="870" y="551"/>
<polyline fill="none" points="923,502 923,246" stroke="#000000" stroke-width="1"/>
<line fill="#000000" stroke="#000000" stroke-width="1" x1="930" x2="923" y1="258" y2="246"/>
<line fill="#000000" stroke="#000000" stroke-width="1" x1="916" x2="923" y1="258" y2="246"/>
<text font-family="Lucida Grande" font-size="13" x="925" y="394">
toMakeIn</text>
<text font-family="Lucida Grande" font-size="13" x="895" y="485">
0..*</text>
<text font-family="Lucida Grande" font-size="13" x="902" y="273">
1</text>
<polyline fill="none" points="612,545 870,545" stroke="#000000" stroke-width="1"/>
<line fill="#000000" stroke="#000000" stroke-width="1" x1="858" x2="870" y1="552" y2="545"/>
<line fill="#000000" stroke="#000000" stroke-width="1" x1="858" x2="870" y1="538" y2="545"/>
<text font-family="Lucida Grande" font-size="13" x="697" y="525">
suggests</text>
<text font-family="Lucida Grande" font-size="13" x="623" y="540">
1</text>
<text font-family="Lucida Grande" font-size="13" x="844" y="540">
0..*</text>
<polyline fill="none" points="566,585 566,686 1070,686 1078,469" stroke="#000000" stroke-width="1"/>
<text font-family="Lucida Grande" font-size="13" x="814" y="666">
informationRetrieve</text>
<text font-family="Lucida Grande" font-size="13" x="572" y="613">
0..1</text>
<text font-family="Lucida Grande" font-size="13" x="1049" y="496">
0..*</text>
<rect fill="#ffffff" height="88" stroke="#ffffff" stroke-width="1" width="114" x="14" y="406"/>
<rect fill="none" height="88" stroke="#000000" stroke-width="1" width="114" x="14" y="406"/>
<text font-family="Lucida Grande" font-size="13" x="31" y="420">
TrafficTicket</text>
<rect fill="#000000" height="1" stroke="#000000" stroke-width="1" width="114" x="14" y="430"/>
<text font-family="Lucida Grande" font-size="13" x="18" y="445">
id : Integer</text>
<rect fill="#000000" height="1" stroke="#000000" stroke-width="1" width="114" x="14" y="463"/>
<polyline fill="none" points="1134,469 1134,798 254,798 127,493" stroke="#000000" stroke-width="1"/>
<line fill="#000000" stroke="#000000" stroke-width="1" x1="138" x2="127" y1="501" y2="493"/>
<line fill="#000000" stroke="#000000" stroke-width="1" x1="125" x2="127" y1="506" y2="493"/>
<text font-family="Lucida Grande" font-size="13" x="650" y="778">
generates</text>
<text font-family="Lucida Grande" font-size="13" x="1147" y="496">
1</text>
<text font-family="Lucida Grande" font-size="13" x="142" y="513">
0..*</text>
<polyline fill="none" points="127,406 478,223" stroke="#000000" stroke-width="1"/>
<line fill="#000000" stroke="#000000" stroke-width="1" x1="470" x2="478" y1="234" y2="223"/>
<line fill="#000000" stroke="#000000" stroke-width="1" x1="464" x2="478" y1="222" y2="223"/>
<text font-family="Lucida Grande" font-size="13" x="202" y="316">
regards</text>
<text font-family="Lucida Grande" font-size="13" x="126" y="387">
0..1</text>
<text font-family="Lucida Grande" font-size="13" x="448" y="224">
1</text>
<rect fill="#ffffff" height="68" stroke="#ffffff" stroke-width="1" width="68" x="302" y="502"/>
<rect fill="none" height="68" stroke="#000000" stroke-width="1" width="68" x="302" y="502"/>
<text font-family="Lucida Grande" font-size="13" x="307" y="516">
Statistics</text>
<rect fill="#000000" height="1" stroke="#000000" stroke-width="1" width="68" x="302" y="526"/>
<rect fill="#000000" height="1" stroke="#000000" stroke-width="1" width="68" x="302" y="547"/>
<polyline fill="none" points="534,545 369,545" stroke="#000000" stroke-width="1"/>
<line fill="#000000" stroke="#000000" stroke-width="1" x1="381" x2="369" y1="538" y2="545"/>
<line fill="#000000" stroke="#000000" stroke-width="1" x1="381" x2="369" y1="552" y2="545"/>
<text font-family="Lucida Grande" font-size="13" x="408" y="525">
builds</text>
<text font-family="Lucida Grande" font-size="13" x="515" y="540">
1</text>
<text font-family="Lucida Grande" font-size="13" x="373" y="540">
0..*</text>
<polyline fill="none" points="1078,382 593,223" stroke="#000000" stroke-width="1"/>
<line fill="#000000" stroke="#000000" stroke-width="1" x1="606" x2="593" y1="220" y2="223"/>
<line fill="#000000" stroke="#000000" stroke-width="1" x1="602" x2="593" y1="233" y2="223"/>
<text font-family="Lucida Grande" font-size="13" x="799" y="285">
retrieves</text>
<text font-family="Lucida Grande" font-size="13" x="1043" y="397">
0..1</text>
<text font-family="Lucida Grande" font-size="13" x="605" y="221">
1..*</text>
</svg>
