<?xml version="1.0" encoding="utf-8" ?>
<!DOCTYPE svg PUBLIC "-//W3C//DTD SVG 1.1//EN" "http://www.w3.org/Graphics/SVG/1.1/DTD/svg11.dtd">
<svg height="852" version="1.1" width="1237" xmlns="http://www.w3.org/2000/svg">
<rect fill="#ffffff" height="105" stroke="#ffffff" stroke-width="1" width="141" x="246" y="158"/>
<rect fill="none" height="105" stroke="#000000" stroke-width="1" width="141" x="246" y="158"/>
<text font-family="Lucida Grande" font-size="13" x="302" y="172">
User</text>
<rect fill="#000000" height="1" stroke="#000000" stroke-width="1" width="141" x="246" y="182"/>
<text font-family="Lucida Grande" font-size="13" x="250" y="197">
name : String</text>
<text font-family="Lucida Grande" font-size="13" x="250" y="214">
surname : String</text>
<text font-family="Lucida Grande" font-size="13" x="250" y="231">
codiceFiscale : String</text>
<rect fill="#000000" height="1" stroke="#000000" stroke-width="1" width="141" x="246" y="241"/>
<rect fill="#ffffff" height="122" stroke="#ffffff" stroke-width="1" width="116" x="494" y="142"/>
<rect fill="none" height="122" stroke="#000000" stroke-width="1" width="116" x="494" y="142"/>
<text font-family="Lucida Grande" font-size="13" x="524" y="156">
Violation</text>
<rect fill="#000000" height="1" stroke="#000000" stroke-width="1" width="116" x="494" y="166"/>
<text font-family="Lucida Grande" font-size="13" x="498" y="181">
type : String</text>
<text font-family="Lucida Grande" font-size="13" x="498" y="198">
date : Date</text>
<text font-family="Lucida Grande" font-size="13" x="498" y="215">
time : Time</text>
<rect fill="#000000" height="1" stroke="#000000" stroke-width="1" width="116" x="494" y="233"/>
<rect fill="#ffffff" height="88" stroke="#ffffff" stroke-width="1" width="113" x="286" y="14"/>
<rect fill="none" height="88" stroke="#000000" stroke-width="1" width="113" x="286" y="14"/>
<text font-family="Lucida Grande" font-size="13" x="313" y="28">
Authority</text>
<rect fill="#000000" height="1" stroke="#000000" stroke-width="1" width="113" x="286" y="38"/>
<text font-family="Lucida Grande" font-size="13" x="290" y="53">
name : String</text>
<rect fill="#000000" height="1" stroke="#000000" stroke-width="1" width="113" x="286" y="71"/>
<polyline fill="none" points="286,158 286,101" stroke="#000000" stroke-width="1"/>
<text font-family="Lucida Grande" font-size="13" x="195" y="135">
notifies</text>
<text font-family="Lucida Grande" font-size="13" x="258" y="142">
1..*</text>
<text font-family="Lucida Grande" font-size="13" x="265" y="128">
1</text>
<rect fill="#ffffff" height="68" stroke="#ffffff" stroke-width="1" width="66" x="718" y="118"/>
<rect fill="none" height="68" stroke="#000000" stroke-width="1" width="66" x="718" y="118"/>
<text font-family="Lucida Grande" font-size="13" x="729" y="132">
Picture</text>
<rect fill="#000000" height="1" stroke="#000000" stroke-width="1" width="66" x="718" y="142"/>
<rect fill="#000000" height="1" stroke="#000000" stroke-width="1" width="66" x="718" y="163"/>
<rect fill="#ffffff" height="139" stroke="#ffffff" stroke-width="1" width="129" x="1094" y="190"/>
<rect fill="none" height="139" stroke="#000000" stroke-width="1" width="129" x="1094" y="190"/>
<text font-family="Lucida Grande" font-size="13" x="1133" y="204">
Position</text>
<rect fill="#000000" height="1" stroke="#000000" stroke-width="1" width="129" x="1094" y="214"/>
<text font-family="Lucida Grande" font-size="13" x="1098" y="229">
latitude : Double</text>
<text font-family="Lucida Grande" font-size="13" x="1098" y="246">
longitude : Double</text>
<text font-family="Lucida Grande" font-size="13" x="1098" y="263">
altitude : Double</text>
<rect fill="#000000" height="1" stroke="#000000" stroke-width="1" width="129" x="1094" y="290"/>
<polyline fill="none" points="609,145 718,145" stroke="#000000" stroke-width="1"/>
<text font-family="Lucida Grande" font-size="13" x="619" y="125">
identifiedBy</text>
<text font-family="Lucida Grande" font-size="13" x="613" y="140">
1..*</text>
<text font-family="Lucida Grande" font-size="13" x="692" y="140">
1..*</text>
<polyline fill="none" points="609,246 806,246" stroke="#000000" stroke-width="1"/>
<text font-family="Lucida Grande" font-size="13" x="663" y="226">
wasMadeIn</text>
<text font-family="Lucida Grande" font-size="13" x="613" y="241">
1..*</text>
<text font-family="Lucida Grande" font-size="13" x="789" y="262">
1</text>
<polyline fill="none" points="386,174 494,174" stroke="#000000" stroke-width="1"/>
<text font-family="Lucida Grande" font-size="13" x="396" y="154">
describes</text>
<text font-family="Lucida Grande" font-size="13" x="390" y="169">
1..*</text>
<text font-family="Lucida Grande" font-size="13" x="468" y="169">
0..*</text>
<rect fill="#ffffff" height="122" stroke="#ffffff" stroke-width="1" width="158" x="494" y="422"/>
<rect fill="none" height="122" stroke="#000000" stroke-width="1" width="158" x="494" y="422"/>
<text font-family="Lucida Grande" font-size="13" x="550" y="436">
Vehicle</text>
<rect fill="#000000" height="1" stroke="#000000" stroke-width="1" width="158" x="494" y="446"/>
<text font-family="Lucida Grande" font-size="13" x="498" y="461">
type : String</text>
<text font-family="Lucida Grande" font-size="13" x="498" y="478">
description : String</text>
<text font-family="Lucida Grande" font-size="13" x="498" y="495">
parkDescription : String</text>
<rect fill="#000000" height="1" stroke="#000000" stroke-width="1" width="158" x="494" y="513"/>
<rect fill="#ffffff" height="105" stroke="#ffffff" stroke-width="1" width="134" x="806" y="182"/>
<rect fill="none" height="105" stroke="#000000" stroke-width="1" width="134" x="806" y="182"/>
<text font-family="Lucida Grande" font-size="13" x="857" y="196">
Place</text>
<rect fill="#000000" height="1" stroke="#000000" stroke-width="1" width="134" x="806" y="206"/>
<text font-family="Lucida Grande" font-size="13" x="810" y="221">
city : String</text>
<text font-family="Lucida Grande" font-size="13" x="810" y="238">
houseCode : Integer</text>
<rect fill="#000000" height="1" stroke="#000000" stroke-width="1" width="134" x="806" y="256"/>
<polyline fill="none" points="939,246 1094,246" stroke="#000000" stroke-width="1"/>
<text font-family="Lucida Grande" font-size="13" x="976" y="226">
has</text>
<text font-family="Lucida Grande" font-size="13" x="950" y="241">
1</text>
<text font-family="Lucida Grande" font-size="13" x="1067" y="241">
0..1</text>
<polyline fill="none" points="609,263 609,422" stroke="#000000" stroke-width="1"/>
<text font-family="Lucida Grande" font-size="13" x="612" y="347">
madeBy</text>
<text font-family="Lucida Grande" font-size="13" x="615" y="290">
0..*</text>
<text font-family="Lucida Grande" font-size="13" x="615" y="405">
0..*</text>
<rect fill="#ffffff" height="88" stroke="#ffffff" stroke-width="1" width="124" x="782" y="446"/>
<rect fill="none" height="88" stroke="#000000" stroke-width="1" width="124" x="782" y="446"/>
<text font-family="Lucida Grande" font-size="13" x="805" y="460">
LicencePlate</text>
<rect fill="#000000" height="1" stroke="#000000" stroke-width="1" width="124" x="782" y="470"/>
<text font-family="Lucida Grande" font-size="13" x="786" y="485">
plate : String</text>
<text font-family="Lucida Grande" font-size="13" x="786" y="502">
country : String</text>
<rect fill="#000000" height="1" stroke="#000000" stroke-width="1" width="124" x="782" y="512"/>
<polyline fill="none" points="651,446 782,446" stroke="#000000" stroke-width="1"/>
<text font-family="Lucida Grande" font-size="13" x="676" y="426">
has</text>
<text font-family="Lucida Grande" font-size="13" x="662" y="441">
1</text>
<text font-family="Lucida Grande" font-size="13" x="755" y="441">
0..1</text>
<rect fill="#ffffff" height="71" stroke="#ffffff" stroke-width="1" width="113" x="1078" y="38"/>
<rect fill="none" height="71" stroke="#000000" stroke-width="1" width="113" x="1078" y="38"/>
<text font-family="Lucida Grande" font-size="13" x="1116" y="52">
Street</text>
<rect fill="#000000" height="1" stroke="#000000" stroke-width="1" width="113" x="1078" y="62"/>
<text font-family="Lucida Grande" font-size="13" x="1082" y="77">
name : String</text>
<rect fill="#000000" height="1" stroke="#000000" stroke-width="1" width="113" x="1078" y="87"/>
<polyline fill="none" points="939,182 1078,108" stroke="#000000" stroke-width="1"/>
<text font-family="Lucida Grande" font-size="13" x="950" y="124">
situatedIn</text>
<text font-family="Lucida Grande" font-size="13" x="939" y="162">
0..*</text>
<text font-family="Lucida Grande" font-size="13" x="1048" y="109">
1</text>
<polyline fill="none" points="398,86 454,86 494,142" stroke="#000000" stroke-width="1"/>
<text font-family="Lucida Grande" font-size="13" x="427" y="75">
analizes</text>
<text font-family="Lucida Grande" font-size="13" x="402" y="81">
0..*</text>
<text font-family="Lucida Grande" font-size="13" x="484" y="116">
0..*</text>
<polyline fill="none" points="494,230 386,230" stroke="#000000" stroke-width="1"/>
<text font-family="Lucida Grande" font-size="13" x="396" y="210">
analyzes</text>
<text font-family="Lucida Grande" font-size="13" x="466" y="224">
0..*</text>
<text font-family="Lucida Grande" font-size="13" x="390" y="225">
1..*</text>
<rect fill="#ffffff" height="71" stroke="#ffffff" stroke-width="1" width="113" x="1030" y="406"/>
<rect fill="none" height="71" stroke="#000000" stroke-width="1" width="113" x="1030" y="406"/>
<text font-family="Lucida Grande" font-size="13" x="1048" y="420">
Municipality</text>
<rect fill="#000000" height="1" stroke="#000000" stroke-width="1" width="113" x="1030" y="430"/>
<text font-family="Lucida Grande" font-size="13" x="1034" y="445">
name : String</text>
<rect fill="#000000" height="1" stroke="#000000" stroke-width="1" width="113" x="1030" y="455"/>
<polyline fill="none" points="398,54 878,54 878,182" stroke="#000000" stroke-width="1"/>
<text font-family="Lucida Grande" font-size="13" x="658" y="34">
residies</text>
<text font-family="Lucida Grande" font-size="13" x="401" y="49">
0..1</text>
<text font-family="Lucida Grande" font-size="13" x="891" y="165">
1</text>
<polyline fill="none" points="1030,406 939,286" stroke="#000000" stroke-width="1"/>
<text font-family="Lucida Grande" font-size="13" x="975" y="326">
residies</text>
<text font-family="Lucida Grande" font-size="13" x="1019" y="379">
0..1</text>
<text font-family="Lucida Grande" font-size="13" x="963" y="297">
1</text>
<rect fill="#ffffff" height="68" stroke="#ffffff" stroke-width="1" width="79" x="286" y="574"/>
<rect fill="none" height="68" stroke="#000000" stroke-width="1" width="79" x="286" y="574"/>
<text font-family="Lucida Grande" font-size="13" x="291" y="588">
SafeStreets</text>
<rect fill="#000000" height="1" stroke="#000000" stroke-width="1" width="79" x="286" y="598"/>
<rect fill="#000000" height="1" stroke="#000000" stroke-width="1" width="79" x="286" y="619"/>
<rect fill="#ffffff" height="71" stroke="#ffffff" stroke-width="1" width="128" x="926" y="582"/>
<rect fill="none" height="71" stroke="#000000" stroke-width="1" width="128" x="926" y="582"/>
<text font-family="Lucida Grande" font-size="13" x="952" y="596">
Intervention</text>
<rect fill="#000000" height="1" stroke="#000000" stroke-width="1" width="128" x="926" y="606"/>
<text font-family="Lucida Grande" font-size="13" x="930" y="621">
description : String</text>
<rect fill="#000000" height="1" stroke="#000000" stroke-width="1" width="128" x="926" y="631"/>
<polyline fill="none" points="939,582 939,286" stroke="#000000" stroke-width="1"/>
<text font-family="Lucida Grande" font-size="13" x="848" y="439">
toMadeIn</text>
<text font-family="Lucida Grande" font-size="13" x="911" y="565">
0..*</text>
<text font-family="Lucida Grande" font-size="13" x="918" y="313">
1</text>
<polyline fill="none" points="364,598 926,598" stroke="#000000" stroke-width="1"/>
<text font-family="Lucida Grande" font-size="13" x="601" y="578">
suggests</text>
<text font-family="Lucida Grande" font-size="13" x="375" y="593">
1</text>
<text font-family="Lucida Grande" font-size="13" x="900" y="593">
0..*</text>
<polyline fill="none" points="364,641 582,726 1126,726 1126,476" stroke="#000000" stroke-width="1"/>
<text font-family="Lucida Grande" font-size="13" x="800" y="706">
informationRetrieve</text>
<text font-family="Lucida Grande" font-size="13" x="384" y="639">
1</text>
<text font-family="Lucida Grande" font-size="13" x="1105" y="503">
1</text>
<rect fill="#ffffff" height="88" stroke="#ffffff" stroke-width="1" width="114" x="14" y="446"/>
<rect fill="none" height="88" stroke="#000000" stroke-width="1" width="114" x="14" y="446"/>
<text font-family="Lucida Grande" font-size="13" x="31" y="460">
TrafficTicket</text>
<rect fill="#000000" height="1" stroke="#000000" stroke-width="1" width="114" x="14" y="470"/>
<rect fill="#000000" height="1" stroke="#000000" stroke-width="1" width="114" x="14" y="501"/>
<polyline fill="none" points="1142,476 1150,838 270,838 127,533" stroke="#000000" stroke-width="1"/>
<text font-family="Lucida Grande" font-size="13" x="679" y="818">
generates</text>
<text font-family="Lucida Grande" font-size="13" x="1155" y="503">
1</text>
<text font-family="Lucida Grande" font-size="13" x="144" y="552">
0..*</text>
<polyline fill="none" points="127,446 494,263" stroke="#000000" stroke-width="1"/>
<text font-family="Lucida Grande" font-size="13" x="253" y="333">
regards</text>
<text font-family="Lucida Grande" font-size="13" x="126" y="427">
0..1</text>
<text font-family="Lucida Grande" font-size="13" x="462" y="264">
1</text>
<rect fill="#ffffff" height="68" stroke="#ffffff" stroke-width="1" width="68" x="310" y="750"/>
<rect fill="none" height="68" stroke="#000000" stroke-width="1" width="68" x="310" y="750"/>
<text font-family="Lucida Grande" font-size="13" x="315" y="764">
Statistics</text>
<rect fill="#000000" height="1" stroke="#000000" stroke-width="1" width="68" x="310" y="774"/>
<rect fill="#000000" height="1" stroke="#000000" stroke-width="1" width="68" x="310" y="795"/>
<polyline fill="none" points="345,641 345,750" stroke="#000000" stroke-width="1"/>
<text font-family="Lucida Grande" font-size="13" x="348" y="700">
builds</text>
<text font-family="Lucida Grande" font-size="13" x="358" y="668">
1</text>
<text font-family="Lucida Grande" font-size="13" x="351" y="733">
0..*</text>
</svg>
