<?xml version="1.0" encoding="utf-8" ?>
<!DOCTYPE svg PUBLIC "-//W3C//DTD SVG 1.1//EN" "http://www.w3.org/Graphics/SVG/1.1/DTD/svg11.dtd">
<svg height="844" version="1.1" width="1336" xmlns="http://www.w3.org/2000/svg">
<rect fill="#ffffff" height="122" stroke="#ffffff" stroke-width="1" width="141" x="14" y="110"/>
<rect fill="none" height="122" stroke="#000000" stroke-width="1" width="141" x="14" y="110"/>
<text font-family="Lucida Grande" font-size="13" x="70" y="124">
User</text>
<rect fill="#000000" height="1" stroke="#000000" stroke-width="1" width="141" x="14" y="134"/>
<text font-family="Lucida Grande" font-size="13" x="18" y="149">
name : String</text>
<text font-family="Lucida Grande" font-size="13" x="18" y="166">
surname : String</text>
<text font-family="Lucida Grande" font-size="13" x="18" y="183">
fiscalCode : String</text>
<text font-family="Lucida Grande" font-size="13" x="18" y="200">
dateOfBirth : Date</text>
<rect fill="#000000" height="1" stroke="#000000" stroke-width="1" width="141" x="14" y="210"/>
<rect fill="#ffffff" height="139" stroke="#ffffff" stroke-width="1" width="207" x="534" y="174"/>
<rect fill="none" height="139" stroke="#000000" stroke-width="1" width="207" x="534" y="174"/>
<text font-family="Lucida Grande" font-size="13" x="609" y="188">
Violation</text>
<rect fill="#000000" height="1" stroke="#000000" stroke-width="1" width="207" x="534" y="198"/>
<text font-family="Lucida Grande" font-size="13" x="538" y="213">
type : String</text>
<text font-family="Lucida Grande" font-size="13" x="538" y="230">
date : Date</text>
<text font-family="Lucida Grande" font-size="13" x="538" y="247">
time : Time</text>
<text font-family="Lucida Grande" font-size="13" x="538" y="264">
verifiedByMunicipality : Boolean</text>
<text font-family="Lucida Grande" font-size="13" x="538" y="281">
description : String</text>
<rect fill="#000000" height="1" stroke="#000000" stroke-width="1" width="207" x="534" y="291"/>
<rect fill="#ffffff" height="68" stroke="#ffffff" stroke-width="1" width="66" x="646" y="14"/>
<rect fill="none" height="68" stroke="#000000" stroke-width="1" width="66" x="646" y="14"/>
<text font-family="Lucida Grande" font-size="13" x="657" y="28">
Picture</text>
<rect fill="#000000" height="1" stroke="#000000" stroke-width="1" width="66" x="646" y="38"/>
<rect fill="#000000" height="1" stroke="#000000" stroke-width="1" width="66" x="646" y="59"/>
<rect fill="#ffffff" height="139" stroke="#ffffff" stroke-width="1" width="129" x="1134" y="166"/>
<rect fill="none" height="139" stroke="#000000" stroke-width="1" width="129" x="1134" y="166"/>
<text font-family="Lucida Grande" font-size="13" x="1173" y="180">
Position</text>
<rect fill="#000000" height="1" stroke="#000000" stroke-width="1" width="129" x="1134" y="190"/>
<text font-family="Lucida Grande" font-size="13" x="1138" y="205">
latitude : Double</text>
<text font-family="Lucida Grande" font-size="13" x="1138" y="222">
longitude : Double</text>
<text font-family="Lucida Grande" font-size="13" x="1138" y="239">
altitude : Double</text>
<rect fill="#000000" height="1" stroke="#000000" stroke-width="1" width="129" x="1134" y="266"/>
<polyline fill="none" points="678,174 678,81" stroke="#000000" stroke-width="1"/>
<line fill="#000000" stroke="#000000" stroke-width="1" x1="685" x2="678" y1="93" y2="81"/>
<line fill="#000000" stroke="#000000" stroke-width="1" x1="671" x2="678" y1="93" y2="81"/>
<text font-family="Lucida Grande" font-size="13" x="681" y="158">
identifiedBy</text>
<text font-family="Lucida Grande" font-size="13" x="649" y="157">
0..1</text>
<text font-family="Lucida Grande" font-size="13" x="650" y="108">
0..*</text>
<polyline fill="none" points="740,238 878,238" stroke="#000000" stroke-width="1"/>
<line fill="#000000" stroke="#000000" stroke-width="1" x1="866" x2="878" y1="245" y2="238"/>
<line fill="#000000" stroke="#000000" stroke-width="1" x1="866" x2="878" y1="231" y2="238"/>
<text font-family="Lucida Grande" font-size="13" x="765" y="218">
wasMadeIn</text>
<text font-family="Lucida Grande" font-size="13" x="745" y="233">
0..*</text>
<text font-family="Lucida Grande" font-size="13" x="861" y="254">
1</text>
<rect fill="#ffffff" height="122" stroke="#ffffff" stroke-width="1" width="158" x="502" y="398"/>
<rect fill="none" height="122" stroke="#000000" stroke-width="1" width="158" x="502" y="398"/>
<text font-family="Lucida Grande" font-size="13" x="558" y="412">
Vehicle</text>
<rect fill="#000000" height="1" stroke="#000000" stroke-width="1" width="158" x="502" y="422"/>
<text font-family="Lucida Grande" font-size="13" x="506" y="437">
type : String</text>
<text font-family="Lucida Grande" font-size="13" x="506" y="454">
description : String</text>
<text font-family="Lucida Grande" font-size="13" x="506" y="471">
parkDescription : String</text>
<rect fill="#000000" height="1" stroke="#000000" stroke-width="1" width="158" x="502" y="489"/>
<rect fill="#ffffff" height="105" stroke="#ffffff" stroke-width="1" width="134" x="878" y="174"/>
<rect fill="none" height="105" stroke="#000000" stroke-width="1" width="134" x="878" y="174"/>
<text font-family="Lucida Grande" font-size="13" x="929" y="188">
Place</text>
<rect fill="#000000" height="1" stroke="#000000" stroke-width="1" width="134" x="878" y="198"/>
<text font-family="Lucida Grande" font-size="13" x="882" y="213">
city : String</text>
<text font-family="Lucida Grande" font-size="13" x="882" y="230">
houseCode : Integer</text>
<rect fill="#000000" height="1" stroke="#000000" stroke-width="1" width="134" x="878" y="248"/>
<polyline fill="none" points="1011,238 1134,238" stroke="#000000" stroke-width="1"/>
<line fill="#000000" stroke="#000000" stroke-width="1" x1="1122" x2="1134" y1="245" y2="238"/>
<line fill="#000000" stroke="#000000" stroke-width="1" x1="1122" x2="1134" y1="231" y2="238"/>
<text font-family="Lucida Grande" font-size="13" x="1032" y="218">
has</text>
<text font-family="Lucida Grande" font-size="13" x="1022" y="233">
1</text>
<text font-family="Lucida Grande" font-size="13" x="1107" y="233">
0..1</text>
<polyline fill="none" points="579,312 579,398" stroke="#000000" stroke-width="1"/>
<line fill="#000000" stroke="#000000" stroke-width="1" x1="572" x2="579" y1="386" y2="398"/>
<line fill="#000000" stroke="#000000" stroke-width="1" x1="586" x2="579" y1="386" y2="398"/>
<text font-family="Lucida Grande" font-size="13" x="582" y="360">
madeBy</text>
<text font-family="Lucida Grande" font-size="13" x="585" y="339">
1..*</text>
<text font-family="Lucida Grande" font-size="13" x="585" y="381">
1..*</text>
<rect fill="#ffffff" height="88" stroke="#ffffff" stroke-width="1" width="124" x="758" y="390"/>
<rect fill="none" height="88" stroke="#000000" stroke-width="1" width="124" x="758" y="390"/>
<text font-family="Lucida Grande" font-size="13" x="781" y="404">
LicencePlate</text>
<rect fill="#000000" height="1" stroke="#000000" stroke-width="1" width="124" x="758" y="414"/>
<text font-family="Lucida Grande" font-size="13" x="762" y="429">
plate : String</text>
<text font-family="Lucida Grande" font-size="13" x="762" y="446">
country : String</text>
<rect fill="#000000" height="1" stroke="#000000" stroke-width="1" width="124" x="758" y="456"/>
<polyline fill="none" points="659,429 758,429" stroke="#000000" stroke-width="1"/>
<line fill="#000000" stroke="#000000" stroke-width="1" x1="746" x2="758" y1="436" y2="429"/>
<line fill="#000000" stroke="#000000" stroke-width="1" x1="746" x2="758" y1="422" y2="429"/>
<text font-family="Lucida Grande" font-size="13" x="668" y="409">
has</text>
<text font-family="Lucida Grande" font-size="13" x="670" y="424">
1</text>
<text font-family="Lucida Grande" font-size="13" x="731" y="424">
0..1</text>
<rect fill="#ffffff" height="71" stroke="#ffffff" stroke-width="1" width="113" x="902" y="14"/>
<rect fill="none" height="71" stroke="#000000" stroke-width="1" width="113" x="902" y="14"/>
<text font-family="Lucida Grande" font-size="13" x="940" y="28">
Street</text>
<rect fill="#000000" height="1" stroke="#000000" stroke-width="1" width="113" x="902" y="38"/>
<text font-family="Lucida Grande" font-size="13" x="906" y="53">
name : String</text>
<rect fill="#000000" height="1" stroke="#000000" stroke-width="1" width="113" x="902" y="63"/>
<polyline fill="none" points="974,174 974,84" stroke="#000000" stroke-width="1"/>
<line fill="#000000" stroke="#000000" stroke-width="1" x1="981" x2="974" y1="96" y2="84"/>
<line fill="#000000" stroke="#000000" stroke-width="1" x1="967" x2="974" y1="96" y2="84"/>
<text font-family="Lucida Grande" font-size="13" x="883" y="134">
situatedIn</text>
<text font-family="Lucida Grande" font-size="13" x="946" y="157">
0..*</text>
<text font-family="Lucida Grande" font-size="13" x="953" y="111">
1</text>
<polyline fill="none" points="350,638 154,231" stroke="#000000" stroke-width="1"/>
<line fill="#000000" stroke="#000000" stroke-width="1" x1="338" x2="350" y1="630" y2="638"/>
<line fill="#000000" stroke="#000000" stroke-width="1" x1="351" x2="350" y1="624" y2="638"/>
<text font-family="Lucida Grande" font-size="13" x="168" y="464">
looks</text>
<text font-family="Lucida Grande" font-size="13" x="345" y="610">
0..*</text>
<text font-family="Lucida Grande" font-size="13" x="171" y="250">
1..*</text>
<rect fill="#ffffff" height="88" stroke="#ffffff" stroke-width="1" width="113" x="1126" y="414"/>
<rect fill="none" height="88" stroke="#000000" stroke-width="1" width="113" x="1126" y="414"/>
<text font-family="Lucida Grande" font-size="13" x="1144" y="428">
Municipality</text>
<rect fill="#000000" height="1" stroke="#000000" stroke-width="1" width="113" x="1126" y="438"/>
<text font-family="Lucida Grande" font-size="13" x="1130" y="453">
name : String</text>
<rect fill="#000000" height="1" stroke="#000000" stroke-width="1" width="113" x="1126" y="471"/>
<polyline fill="none" points="1126,414 1011,278" stroke="#000000" stroke-width="1"/>
<line fill="#000000" stroke="#000000" stroke-width="1" x1="1024" x2="1011" y1="282" y2="278"/>
<line fill="#000000" stroke="#000000" stroke-width="1" x1="1013" x2="1011" y1="291" y2="278"/>
<text font-family="Lucida Grande" font-size="13" x="1056" y="325">
residies</text>
<text font-family="Lucida Grande" font-size="13" x="1113" y="388">
0..1</text>
<text font-family="Lucida Grande" font-size="13" x="1037" y="289">
1</text>
<rect fill="#ffffff" height="68" stroke="#ffffff" stroke-width="1" width="79" x="590" y="646"/>
<rect fill="none" height="68" stroke="#000000" stroke-width="1" width="79" x="590" y="646"/>
<text font-family="Lucida Grande" font-size="13" x="595" y="660">
SafeStreets</text>
<rect fill="#000000" height="1" stroke="#000000" stroke-width="1" width="79" x="590" y="670"/>
<rect fill="#000000" height="1" stroke="#000000" stroke-width="1" width="79" x="590" y="691"/>
<rect fill="#ffffff" height="71" stroke="#ffffff" stroke-width="1" width="128" x="926" y="638"/>
<rect fill="none" height="71" stroke="#000000" stroke-width="1" width="128" x="926" y="638"/>
<text font-family="Lucida Grande" font-size="13" x="952" y="652">
Intervention</text>
<rect fill="#000000" height="1" stroke="#000000" stroke-width="1" width="128" x="926" y="662"/>
<text font-family="Lucida Grande" font-size="13" x="930" y="677">
description : String</text>
<rect fill="#000000" height="1" stroke="#000000" stroke-width="1" width="128" x="926" y="687"/>
<polyline fill="none" points="971,638 971,278" stroke="#000000" stroke-width="1"/>
<line fill="#000000" stroke="#000000" stroke-width="1" x1="978" x2="971" y1="290" y2="278"/>
<line fill="#000000" stroke="#000000" stroke-width="1" x1="964" x2="971" y1="290" y2="278"/>
<text font-family="Lucida Grande" font-size="13" x="973" y="478">
toMakeIn</text>
<text font-family="Lucida Grande" font-size="13" x="943" y="621">
0..*</text>
<text font-family="Lucida Grande" font-size="13" x="950" y="305">
1</text>
<polyline fill="none" points="668,705 926,705" stroke="#000000" stroke-width="1"/>
<line fill="#000000" stroke="#000000" stroke-width="1" x1="914" x2="926" y1="712" y2="705"/>
<line fill="#000000" stroke="#000000" stroke-width="1" x1="914" x2="926" y1="698" y2="705"/>
<text font-family="Lucida Grande" font-size="13" x="753" y="685">
suggests</text>
<text font-family="Lucida Grande" font-size="13" x="679" y="700">
1</text>
<text font-family="Lucida Grande" font-size="13" x="900" y="700">
0..*</text>
<polyline fill="none" points="630,713 630,758 1158,758 1158,501" stroke="#000000" stroke-width="1"/>
<text font-family="Lucida Grande" font-size="13" x="938" y="738">
informationRetrieve</text>
<text font-family="Lucida Grande" font-size="13" x="636" y="741">
0..1</text>
<text font-family="Lucida Grande" font-size="13" x="1130" y="528">
0..*</text>
<rect fill="#ffffff" height="88" stroke="#ffffff" stroke-width="1" width="114" x="110" y="494"/>
<rect fill="none" height="88" stroke="#000000" stroke-width="1" width="114" x="110" y="494"/>
<text font-family="Lucida Grande" font-size="13" x="127" y="508">
TrafficTicket</text>
<rect fill="#000000" height="1" stroke="#000000" stroke-width="1" width="114" x="110" y="518"/>
<text font-family="Lucida Grande" font-size="13" x="114" y="533">
id : Integer</text>
<rect fill="#000000" height="1" stroke="#000000" stroke-width="1" width="114" x="110" y="551"/>
<polyline fill="none" points="1182,501 1182,830 302,830 223,581" stroke="#000000" stroke-width="1"/>
<line fill="#000000" stroke="#000000" stroke-width="1" x1="233" x2="223" y1="590" y2="581"/>
<line fill="#000000" stroke="#000000" stroke-width="1" x1="219" x2="223" y1="594" y2="581"/>
<text font-family="Lucida Grande" font-size="13" x="732" y="810">
generates</text>
<text font-family="Lucida Grande" font-size="13" x="1195" y="528">
1</text>
<text font-family="Lucida Grande" font-size="13" x="236" y="602">
0..*</text>
<polyline fill="none" points="223,494 534,312" stroke="#000000" stroke-width="1"/>
<line fill="#000000" stroke="#000000" stroke-width="1" x1="527" x2="534" y1="324" y2="312"/>
<line fill="#000000" stroke="#000000" stroke-width="1" x1="520" x2="534" y1="312" y2="312"/>
<text font-family="Lucida Grande" font-size="13" x="316" y="381">
regards</text>
<text font-family="Lucida Grande" font-size="13" x="221" y="474">
0..1</text>
<text font-family="Lucida Grande" font-size="13" x="503" y="314">
1</text>
<rect fill="#ffffff" height="68" stroke="#ffffff" stroke-width="1" width="68" x="350" y="638"/>
<rect fill="none" height="68" stroke="#000000" stroke-width="1" width="68" x="350" y="638"/>
<text font-family="Lucida Grande" font-size="13" x="355" y="652">
Statistics</text>
<rect fill="#000000" height="1" stroke="#000000" stroke-width="1" width="68" x="350" y="662"/>
<rect fill="#000000" height="1" stroke="#000000" stroke-width="1" width="68" x="350" y="683"/>
<polyline fill="none" points="590,705 417,705" stroke="#000000" stroke-width="1"/>
<line fill="#000000" stroke="#000000" stroke-width="1" x1="429" x2="417" y1="698" y2="705"/>
<line fill="#000000" stroke="#000000" stroke-width="1" x1="429" x2="417" y1="712" y2="705"/>
<text font-family="Lucida Grande" font-size="13" x="460" y="685">
builds</text>
<text font-family="Lucida Grande" font-size="13" x="571" y="700">
1</text>
<text font-family="Lucida Grande" font-size="13" x="421" y="700">
0..*</text>
<polyline fill="none" points="1126,414 740,312" stroke="#000000" stroke-width="1"/>
<line fill="#000000" stroke="#000000" stroke-width="1" x1="753" x2="740" y1="308" y2="312"/>
<line fill="#000000" stroke="#000000" stroke-width="1" x1="749" x2="740" y1="321" y2="312"/>
<text font-family="Lucida Grande" font-size="13" x="896" y="345">
retrieves</text>
<text font-family="Lucida Grande" font-size="13" x="1091" y="430">
0..1</text>
<text font-family="Lucida Grande" font-size="13" x="752" y="309">
1..*</text>
<rect fill="#ffffff" height="68" stroke="#ffffff" stroke-width="1" width="160" x="734" y="566"/>
<rect fill="none" height="68" stroke="#000000" stroke-width="1" width="160" x="734" y="566"/>
<text font-family="Lucida Grande" font-size="13" x="739" y="580">
RecognitionPlateSystem</text>
<rect fill="#000000" height="1" stroke="#000000" stroke-width="1" width="160" x="734" y="590"/>
<rect fill="#000000" height="1" stroke="#000000" stroke-width="1" width="160" x="734" y="611"/>
<polyline fill="none" points="806,566 806,477" stroke="#000000" stroke-width="1"/>
<line fill="#000000" stroke="#000000" stroke-width="1" x1="813" x2="806" y1="489" y2="477"/>
<line fill="#000000" stroke="#000000" stroke-width="1" x1="799" x2="806" y1="489" y2="477"/>
<text font-family="Lucida Grande" font-size="13" x="715" y="527">
recognizes</text>
<text font-family="Lucida Grande" font-size="13" x="777" y="549">
0..1</text>
<text font-family="Lucida Grande" font-size="13" x="778" y="504">
0..*</text>
<rect fill="#ffffff" height="68" stroke="#ffffff" stroke-width="1" width="81" x="1150" y="22"/>
<rect fill="none" height="68" stroke="#000000" stroke-width="1" width="81" x="1150" y="22"/>
<text font-family="Lucida Grande" font-size="13" x="1155" y="36">
MapService</text>
<rect fill="#000000" height="1" stroke="#000000" stroke-width="1" width="81" x="1150" y="46"/>
<rect fill="#000000" height="1" stroke="#000000" stroke-width="1" width="81" x="1150" y="67"/>
<polyline fill="none" points="1230,89 1230,166" stroke="#000000" stroke-width="1"/>
<line fill="#000000" stroke="#000000" stroke-width="1" x1="1223" x2="1230" y1="154" y2="166"/>
<line fill="#000000" stroke="#000000" stroke-width="1" x1="1237" x2="1230" y1="154" y2="166"/>
<text font-family="Lucida Grande" font-size="13" x="1233" y="132">
identifies</text>
<text font-family="Lucida Grande" font-size="13" x="1235" y="116">
0..1</text>
<text font-family="Lucida Grande" font-size="13" x="1236" y="149">
0..*</text>
<polyline fill="none" points="1150,89 1011,174" stroke="#000000" stroke-width="1"/>
<line fill="#000000" stroke="#000000" stroke-width="1" x1="1017" x2="1011" y1="161" y2="174"/>
<line fill="#000000" stroke="#000000" stroke-width="1" x1="1024" x2="1011" y1="173" y2="174"/>
<text font-family="Lucida Grande" font-size="13" x="1021" y="108">
identifies</text>
<text font-family="Lucida Grande" font-size="13" x="1112" y="91">
0..1</text>
<text font-family="Lucida Grande" font-size="13" x="1010" y="154">
0..*</text>
<rect fill="#ffffff" height="68" stroke="#ffffff" stroke-width="1" width="103" x="14" y="358"/>
<rect fill="none" height="68" stroke="#000000" stroke-width="1" width="103" x="14" y="358"/>
<text font-family="Lucida Grande" font-size="13" x="19" y="372">
IdentityVerifier</text>
<rect fill="#000000" height="1" stroke="#000000" stroke-width="1" width="103" x="14" y="382"/>
<rect fill="#000000" height="1" stroke="#000000" stroke-width="1" width="103" x="14" y="403"/>
<polyline fill="none" points="106,358 106,231" stroke="#000000" stroke-width="1"/>
<line fill="#000000" stroke="#000000" stroke-width="1" x1="113" x2="106" y1="243" y2="231"/>
<line fill="#000000" stroke="#000000" stroke-width="1" x1="99" x2="106" y1="243" y2="231"/>
<text font-family="Lucida Grande" font-size="13" x="15" y="300">
identifies</text>
<text font-family="Lucida Grande" font-size="13" x="85" y="341">
1</text>
<text font-family="Lucida Grande" font-size="13" x="78" y="258">
0..*</text>
<polyline fill="none" points="154,142 238,142" stroke="#000000" stroke-width="1"/>
<line fill="#000000" stroke="#000000" stroke-width="1" x1="226" x2="238" y1="149" y2="142"/>
<line fill="#000000" stroke="#000000" stroke-width="1" x1="226" x2="238" y1="135" y2="142"/>
<text font-family="Lucida Grande" font-size="13" x="168" y="115">
makes</text>
<text font-family="Lucida Grande" font-size="13" x="165" y="137">
1</text>
<text font-family="Lucida Grande" font-size="13" x="216" y="128">
0..*</text>
<rect fill="#ffffff" height="122" stroke="#ffffff" stroke-width="1" width="155" x="238" y="94"/>
<rect fill="none" height="122" stroke="#000000" stroke-width="1" width="155" x="238" y="94"/>
<text font-family="Lucida Grande" font-size="13" x="295" y="108">
Report</text>
<rect fill="#000000" height="1" stroke="#000000" stroke-width="1" width="155" x="238" y="118"/>
<text font-family="Lucida Grande" font-size="13" x="242" y="133">
typeOfViolation : String</text>
<text font-family="Lucida Grande" font-size="13" x="242" y="150">
date : Date</text>
<text font-family="Lucida Grande" font-size="13" x="242" y="167">
time : Time</text>
<text font-family="Lucida Grande" font-size="13" x="242" y="184">
description : String</text>
<rect fill="#000000" height="1" stroke="#000000" stroke-width="1" width="155" x="238" y="194"/>
<polyline fill="none" points="392,150 494,150 534,174" stroke="#000000" stroke-width="1"/>
<line fill="#000000" stroke="#000000" stroke-width="1" x1="520" x2="534" y1="173" y2="174"/>
<line fill="#000000" stroke="#000000" stroke-width="1" x1="527" x2="534" y1="161" y2="174"/>
<text font-family="Lucida Grande" font-size="13" x="437" y="140">
becomes</text>
<text font-family="Lucida Grande" font-size="13" x="395" y="145">
0..1</text>
<text font-family="Lucida Grande" font-size="13" x="520" y="154">
1</text>
<polyline fill="none" points="392,215 502,398" stroke="#000000" stroke-width="1"/>
<line fill="#000000" stroke="#000000" stroke-width="1" x1="489" x2="502" y1="391" y2="398"/>
<line fill="#000000" stroke="#000000" stroke-width="1" x1="501" x2="502" y1="384" y2="398"/>
<text font-family="Lucida Grande" font-size="13" x="422" y="259">
contains</text>
<text font-family="Lucida Grande" font-size="13" x="409" y="230">
0..*</text>
<text font-family="Lucida Grande" font-size="13" x="502" y="372">
1</text>
<polyline fill="none" points="392,94 646,81" stroke="#000000" stroke-width="1"/>
<line fill="#000000" stroke="#000000" stroke-width="1" x1="634" x2="646" y1="88" y2="81"/>
<line fill="#000000" stroke="#000000" stroke-width="1" x1="633" x2="646" y1="74" y2="81"/>
<text font-family="Lucida Grande" font-size="13" x="474" y="69">
contains</text>
<text font-family="Lucida Grande" font-size="13" x="395" y="88">
0..1</text>
<text font-family="Lucida Grande" font-size="13" x="618" y="76">
1..*</text>
<polyline fill="none" points="392,110 774,110 878,174" stroke="#000000" stroke-width="1"/>
<line fill="#000000" stroke="#000000" stroke-width="1" x1="864" x2="878" y1="173" y2="174"/>
<line fill="#000000" stroke="#000000" stroke-width="1" x1="871" x2="878" y1="161" y2="174"/>
<text font-family="Lucida Grande" font-size="13" x="542" y="103">
contains</text>
<text font-family="Lucida Grande" font-size="13" x="420" y="125">
0..*</text>
<text font-family="Lucida Grande" font-size="13" x="864" y="152">
1</text>
</svg>
