<svg id="Livello_1" data-name="Livello 1" xmlns="http://www.w3.org/2000/svg" viewBox="0 0 501.37 77"><defs><style>.cls-1{fill:#ffab00;}</style></defs><title>app title</title><path class="cls-1" d="M42.72,67.33a7,7,0,0,0-2.66-5.86q-2.67-2.1-9.35-4.35a90.08,90.08,0,0,1-10.94-4.34Q6,46,6,34.12A16.76,16.76,0,0,1,9.39,23.7a22.3,22.3,0,0,1,9.74-7,37.84,37.84,0,0,1,14.16-2.52A33.19,33.19,0,0,1,47,16.89a21.78,21.78,0,0,1,9.45,7.79,20.34,20.34,0,0,1,3.37,11.54H42.77a8.59,8.59,0,0,0-2.66-6.73,10.38,10.38,0,0,0-7.21-2.4,11.71,11.71,0,0,0-7.25,2A6.23,6.23,0,0,0,23,34.27c0,1.82,1,3.48,2.93,5s5.39,3,10.3,4.59a63.06,63.06,0,0,1,12.11,5.1q11.54,6.64,11.53,18.31,0,9.33-7,14.65T33.54,87.2a38.22,38.22,0,0,1-15.65-3.1A23.62,23.62,0,0,1,7.34,75.6,22.12,22.12,0,0,1,3.8,63.18H21c0,3.81,1,6.61,3,8.42s5.17,2.71,9.6,2.71a11,11,0,0,0,6.71-1.83A6,6,0,0,0,42.72,67.33Z" transform="translate(-3.8 -10.2)"/><path class="cls-1" d="M97.65,86.22a18.14,18.14,0,0,1-1.56-4.73q-4.55,5.72-12.7,5.71A18.69,18.69,0,0,1,70.7,82.68a14.35,14.35,0,0,1-5.23-11.35q0-8.6,6.35-13T90.28,54h5.08v-2.8q0-7.3-6.3-7.31-5.86,0-5.86,5.79H66.74A14.75,14.75,0,0,1,73.26,37.2q6.52-4.79,16.63-4.78t16,4.93q5.87,4.92,6,13.52V74.26q.09,7.27,2.25,11.13v.83ZM87.35,75.48a9.16,9.16,0,0,0,5.1-1.32,8.31,8.31,0,0,0,2.91-3V62.74H90.57Q82,62.74,82,70.45a4.71,4.71,0,0,0,1.51,3.64A5.48,5.48,0,0,0,87.35,75.48Z" transform="translate(-3.8 -10.2)"/><path class="cls-1" d="M124.6,86.22V44.82h-7.66V33.39h7.66v-4.2q0-9,5.33-14t14.94-5a32.87,32.87,0,0,1,7.71,1l0,12.11a15.15,15.15,0,0,0-4-.44q-7.47,0-7.47,6.45v4.05h10.3V44.82h-10.3v41.4Z" transform="translate(-3.8 -10.2)"/><path class="cls-1" d="M181.59,87.2q-12.17,0-19.68-7.25t-7.52-18.87V59.71a32.52,32.52,0,0,1,3-14.31,21.92,21.92,0,0,1,8.77-9.59,26.45,26.45,0,0,1,13.67-3.39q11.13,0,17.58,6.9t6.44,19.27V65H171.14A11.87,11.87,0,0,0,175,72a11.5,11.5,0,0,0,7.72,2.53q7.81,0,12.21-5.46l7.52,8.88a21.15,21.15,0,0,1-8.72,6.77A29.54,29.54,0,0,1,181.59,87.2Zm-1.86-42.09q-7.23,0-8.59,9.57h16.6V53.41a8.17,8.17,0,0,0-2-6.13A8,8,0,0,0,179.73,45.11Z" transform="translate(-3.8 -10.2)"/><path class="cls-1" d="M258.2,69.18a13.42,13.42,0,0,0-2.13-7.69,17.85,17.85,0,0,0-6.69-5.56,71.09,71.09,0,0,0-13.79-5q-9.22-2.53-13.84-5.13a18.3,18.3,0,0,1-6.77-6,15.32,15.32,0,0,1-2.14-8.3A14.92,14.92,0,0,1,219.38,19q6.54-4.8,17-4.81a27.65,27.65,0,0,1,12.28,2.66,19.93,19.93,0,0,1,8.42,7.48,20.14,20.14,0,0,1,3,10.86h-2.64A16.84,16.84,0,0,0,251.61,22q-5.87-5.2-15.19-5.2T221.26,21q-5.79,4.18-5.79,10.48a12.42,12.42,0,0,0,5,10.3q5,3.91,16.6,6.91t17,7a15.89,15.89,0,0,1,6.83,13.47,15.67,15.67,0,0,1-3,9.5,19.26,19.26,0,0,1-8.6,6.37,33.1,33.1,0,0,1-12.5,2.25,35.79,35.79,0,0,1-13.87-2.56,19.73,19.73,0,0,1-9.25-7.3,19.94,19.94,0,0,1-3.1-11.18h2.64q0,8.73,6.54,13.57t17,4.83q9.33,0,15.38-4.27T258.2,69.18Z" transform="translate(-3.8 -10.2)"/><path class="cls-1" d="M279.29,19.13V33.39h12V36h-12V73.57q0,5.61,1.83,8.31t6.13,2.68a36.79,36.79,0,0,0,5.22-.44l.44,2.49a18,18,0,0,1-5.51.59q-5.77,0-8.26-3.2t-2.53-10.09V36h-9.77V33.39h9.77V19.13Z" transform="translate(-3.8 -10.2)"/><path class="cls-1" d="M328.31,35.34l-3.41-.29a15.62,15.62,0,0,0-11.28,4.37q-4.55,4.36-6,12.22V86.22H305V33.39h2.64v11a19.4,19.4,0,0,1,6.45-8.74,17.46,17.46,0,0,1,10.79-3.22,10.62,10.62,0,0,1,3.71.54Z" transform="translate(-3.8 -10.2)"/><path class="cls-1" d="M356.54,87.2a21.32,21.32,0,0,1-11.75-3.44,23.72,23.72,0,0,1-8.37-9.45,29.17,29.17,0,0,1-3-13.33v-2.2a30.69,30.69,0,0,1,2.93-13.43,23.31,23.31,0,0,1,8.06-9.52,19.73,19.73,0,0,1,11.18-3.41A18.46,18.46,0,0,1,370,38.71q5.63,6.3,5.62,16.56v2.78H336v2.88a26.46,26.46,0,0,0,2.71,11.91,21.28,21.28,0,0,0,7.47,8.6,18.48,18.48,0,0,0,10.33,3.12,21,21,0,0,0,9-1.77,18.49,18.49,0,0,0,6.62-5.45l1.86,1.32Q368.16,87.2,356.54,87.2Zm-1-52.15a17.25,17.25,0,0,0-13.09,5.74,24.37,24.37,0,0,0-6.29,14.62H373v-.63a22.26,22.26,0,0,0-2.27-10,17.46,17.46,0,0,0-6.25-7.17A16.09,16.09,0,0,0,355.56,35.05Z" transform="translate(-3.8 -10.2)"/><path class="cls-1" d="M406.93,87.2a21.32,21.32,0,0,1-11.75-3.44,23.72,23.72,0,0,1-8.37-9.45,29.17,29.17,0,0,1-3-13.33v-2.2a30.69,30.69,0,0,1,2.93-13.43,23.31,23.31,0,0,1,8.06-9.52A19.73,19.73,0,0,1,406,32.42a18.46,18.46,0,0,1,14.45,6.29Q426,45,426,55.27v2.78h-39.6v2.88a26.46,26.46,0,0,0,2.71,11.91,21.28,21.28,0,0,0,7.47,8.6,18.48,18.48,0,0,0,10.33,3.12A21,21,0,0,0,416,82.79a18.46,18.46,0,0,0,6.61-5.45l1.86,1.32Q418.55,87.2,406.93,87.2Zm-1-52.15a17.23,17.23,0,0,0-13.08,5.74,24.32,24.32,0,0,0-6.3,14.62h36.81v-.63a22.26,22.26,0,0,0-2.27-10,17.46,17.46,0,0,0-6.25-7.17A16.09,16.09,0,0,0,406,35.05Z" transform="translate(-3.8 -10.2)"/><path class="cls-1" d="M444.23,19.13V33.39h12V36h-12V73.57q0,5.61,1.83,8.31c1.22,1.79,3.27,2.68,6.13,2.68a36.91,36.91,0,0,0,5.23-.44l.44,2.49a18.07,18.07,0,0,1-5.52.59q-5.76,0-8.25-3.2t-2.54-10.09V36h-9.77V33.39h9.77V19.13Z" transform="translate(-3.8 -10.2)"/><path class="cls-1" d="M502.53,73.28q0-9.61-16.4-13.08-9.87-2.1-13.72-5.4a11.23,11.23,0,0,1-3.86-9,11.56,11.56,0,0,1,4.91-9.58q4.91-3.75,12.76-3.75,8.55,0,13.73,4.07a13.28,13.28,0,0,1,5.17,11h-2.68a10.9,10.9,0,0,0-4.5-8.88q-4.49-3.57-11.72-3.57-6.93,0-11,3a9.13,9.13,0,0,0-4.05,7.57,9.16,9.16,0,0,0,1.51,5.59,13.05,13.05,0,0,0,4.93,3.66,50.82,50.82,0,0,0,10,3.15,42.92,42.92,0,0,1,10.35,3.56,14,14,0,0,1,5.52,4.86,13,13,0,0,1,1.71,6.86A11.93,11.93,0,0,1,500,83.39q-5.12,3.81-13.42,3.81-8.89,0-14.34-4a12.35,12.35,0,0,1-5.44-10.37h2.64a10.89,10.89,0,0,0,4.9,8.66q4.51,3.11,12.24,3.1c4.71,0,8.55-1.1,11.49-3.29S502.53,76.41,502.53,73.28Z" transform="translate(-3.8 -10.2)"/></svg>