<svg id="Livello_1" data-name="Livello 1" xmlns="http://www.w3.org/2000/svg" xmlns:xlink="http://www.w3.org/1999/xlink" viewBox="0 0 1488 775.92"><defs><style>.cls-1{isolation:isolate;}.cls-2{fill:#b3b3b3;}.cls-3{fill:none;}.cls-4{fill:#333;}.cls-5{clip-path:url(#clip-path);}.cls-6{fill:#ffab00;}.cls-7{clip-path:url(#clip-path-3);}.cls-8{mask:url(#mask);}.cls-9{clip-path:url(#clip-path-6);}.cls-10{opacity:0.5;}.cls-11{fill:#fff;}.cls-12{mask:url(#mask-2);}.cls-13{clip-path:url(#clip-path-8);}</style><clipPath id="clip-path" transform="translate(0 227.81)"><rect class="cls-3" x="488" y="356.5" width="512" height="98"/></clipPath><clipPath id="clip-path-3" transform="translate(0 227.81)"><rect class="cls-3" x="488" y="-72.5" width="512" height="512"/></clipPath><mask id="mask" x="363.05" y="0" width="753.72" height="775.92" maskUnits="userSpaceOnUse"><g transform="translate(0 227.81)"><rect x="363.05" y="-227.81" width="753.72" height="775.91"/><g class="cls-1"><path class="cls-2" d="M854.08,107.25l-31.94-5.43-15-23.29-29.78-5.06-2.06,52A51.11,51.11,0,0,1,771.37,224L770,258.86l56.72,9.63a20.51,20.51,0,0,0,23.58-16.73l20.54-120.94a20.5,20.5,0,0,0-16.74-23.57"/><path class="cls-2" d="M774.5,145l-2.36,59.49A32.71,32.71,0,0,0,774.5,145"/><path class="cls-2" d="M765,314.5a21,21,0,1,1-21-21,21,21,0,0,1,21,21"/><path class="cls-2" d="M749.35,283.5h-10.7c-5.94,0-10.81-4.05-11-9.16l-9.25-233c-.21-5.36,4.78-9.8,11-9.8h29.18c6.24,0,11.23,4.44,11,9.8l-9.25,233c-.2,5.11-5.07,9.16-11,9.16"/><path class="cls-2" d="M671.58,243.57l45.51-8.08-3.68-92.65-69.2,12.29,7.92-53.89,59.21-10.52-.69-17.37L649.12,84.28a17.28,17.28,0,0,0-14,14.27,247.71,247.71,0,0,0,4.58,162.36A11.52,11.52,0,0,0,653,270.2l11.3-2a11.51,11.51,0,0,0,9.3-13.31ZM651,193a17.23,17.23,0,1,1,21.9,15.3A17.26,17.26,0,0,1,651,193"/></g></g></mask><clipPath id="clip-path-6" transform="translate(0 227.81)"><rect class="cls-3" x="363.05" y="-227.81" width="753.72" height="775.91"/></clipPath><mask id="mask-2" x="476.23" y="0" width="640.53" height="670.62" maskUnits="userSpaceOnUse"><g transform="translate(0 227.81)"><rect x="476.23" y="-227.81" width="640.53" height="670.62"/><g class="cls-1"><path class="cls-2" d="M854.08,107.25l-31.94-5.43-15-23.29-29.78-5.06-2.06,52A51.11,51.11,0,0,1,771.37,224L770,258.86l56.72,9.63a20.51,20.51,0,0,0,23.58-16.73l20.54-120.94a20.5,20.5,0,0,0-16.74-23.57"/><path class="cls-2" d="M774.5,145l-2.36,59.49A32.71,32.71,0,0,0,774.5,145"/><path class="cls-2" d="M765,314.5a21,21,0,1,1-21-21,21,21,0,0,1,21,21"/><path class="cls-2" d="M749.35,283.5h-10.7c-5.94,0-10.81-4.05-11-9.16l-9.25-233c-.21-5.36,4.78-9.8,11-9.8h29.18c6.24,0,11.23,4.44,11,9.8l-9.25,233c-.2,5.11-5.07,9.16-11,9.16"/><path class="cls-2" d="M671.58,243.57l45.51-8.08-3.68-92.65-69.2,12.29,7.92-53.89,59.21-10.52-.69-17.37L649.12,84.28a17.28,17.28,0,0,0-14,14.27,247.71,247.71,0,0,0,4.58,162.36A11.52,11.52,0,0,0,653,270.2l11.3-2a11.51,11.51,0,0,0,9.3-13.31ZM651,193a17.23,17.23,0,1,1,21.9,15.3A17.26,17.26,0,0,1,651,193"/></g></g></mask><clipPath id="clip-path-8" transform="translate(0 227.81)"><rect class="cls-3" x="476.24" y="-227.81" width="640.53" height="670.62"/></clipPath></defs><title>app banner</title><rect class="cls-4" y="228.31" width="1488" height="474"/><g class="cls-5"><g class="cls-5"><path class="cls-6" d="M530.72,423.83a7,7,0,0,0-2.66-5.86q-2.67-2.1-9.35-4.35a88.47,88.47,0,0,1-10.94-4.34Q494,402.49,494,390.62a16.76,16.76,0,0,1,3.44-10.42,22.38,22.38,0,0,1,9.74-7,37.84,37.84,0,0,1,14.16-2.52A33.19,33.19,0,0,1,535,373.39a21.78,21.78,0,0,1,9.45,7.79,20.36,20.36,0,0,1,3.37,11.54H530.77a8.59,8.59,0,0,0-2.66-6.73,10.38,10.38,0,0,0-7.21-2.4,11.71,11.71,0,0,0-7.25,2,6.23,6.23,0,0,0-2.66,5.15c0,1.82,1,3.48,2.93,5s5.39,3,10.3,4.59a63.06,63.06,0,0,1,12.11,5.1q11.53,6.65,11.53,18.31,0,9.33-7,14.65t-19.29,5.32a38.22,38.22,0,0,1-15.65-3.1,23.62,23.62,0,0,1-10.55-8.5,22.12,22.12,0,0,1-3.54-12.42H509c0,3.81,1,6.61,2.95,8.42s5.17,2.71,9.6,2.71a11,11,0,0,0,6.71-1.83,6,6,0,0,0,2.47-5.15" transform="translate(0 227.81)"/><path class="cls-6" d="M585.65,442.72a18.14,18.14,0,0,1-1.56-4.73q-4.55,5.72-12.7,5.71a18.69,18.69,0,0,1-12.69-4.52,14.35,14.35,0,0,1-5.23-11.35q0-8.59,6.35-13t18.46-4.39h5.08v-2.8q0-7.31-6.3-7.31-5.87,0-5.86,5.79H554.74a14.73,14.73,0,0,1,6.52-12.43q6.53-4.79,16.63-4.78t16,4.93q5.86,4.92,6,13.52v23.39q.09,7.28,2.25,11.13v.83ZM575.35,432a9.16,9.16,0,0,0,5.1-1.32,8.31,8.31,0,0,0,2.91-3v-8.44h-4.79q-8.6,0-8.59,7.71a4.71,4.71,0,0,0,1.51,3.64,5.48,5.48,0,0,0,3.86,1.39" transform="translate(0 227.81)"/><path class="cls-6" d="M612.6,442.72v-41.4h-7.66V389.89h7.66v-4.2q0-9,5.33-14t14.94-5a32.87,32.87,0,0,1,7.71,1l0,12.11a15.15,15.15,0,0,0-4-.44q-7.47,0-7.47,6.45v4.05h10.3v11.43h-10.3v41.4Z" transform="translate(0 227.81)"/><path class="cls-6" d="M669.59,443.7q-12.17,0-19.68-7.25t-7.52-18.87v-1.37a32.52,32.52,0,0,1,3-14.31,21.92,21.92,0,0,1,8.77-9.59,26.45,26.45,0,0,1,13.67-3.39q11.13,0,17.58,6.9t6.44,19.27v6.39H659.14a11.87,11.87,0,0,0,3.85,7,11.51,11.51,0,0,0,7.72,2.54q7.81,0,12.21-5.47l7.52,8.88a21.07,21.07,0,0,1-8.72,6.77,29.54,29.54,0,0,1-12.13,2.51m-1.86-42.09q-7.23,0-8.59,9.57h16.6v-1.27a8.17,8.17,0,0,0-2-6.13,8,8,0,0,0-6-2.17" transform="translate(0 227.81)"/><path class="cls-6" d="M746.2,425.68a13.42,13.42,0,0,0-2.13-7.69,17.85,17.85,0,0,0-6.69-5.56,71.09,71.09,0,0,0-13.79-5q-9.23-2.54-13.84-5.13a18.3,18.3,0,0,1-6.77-6,15.32,15.32,0,0,1-2.14-8.3,14.92,14.92,0,0,1,6.54-12.58q6.54-4.8,17-4.81a27.65,27.65,0,0,1,12.28,2.66,19.93,19.93,0,0,1,8.42,7.48,20.14,20.14,0,0,1,3,10.86h-2.63a16.85,16.85,0,0,0-5.86-13.16q-5.86-5.21-15.19-5.2t-15.16,4.17q-5.79,4.19-5.79,10.48a12.42,12.42,0,0,0,5,10.3q5,3.92,16.6,6.91t16.95,7a15.89,15.89,0,0,1,6.83,13.47,15.67,15.67,0,0,1-3,9.5,19.26,19.26,0,0,1-8.6,6.37,33.1,33.1,0,0,1-12.5,2.25,35.79,35.79,0,0,1-13.87-2.56,19.73,19.73,0,0,1-9.25-7.3,19.94,19.94,0,0,1-3.1-11.18h2.64q0,8.73,6.54,13.57t17,4.83q9.33,0,15.38-4.27t6.06-11.11" transform="translate(0 227.81)"/><path class="cls-6" d="M767.29,375.63v14.26h12v2.64h-12v37.54q0,5.61,1.83,8.31t6.13,2.68a36.79,36.79,0,0,0,5.22-.44l.44,2.49a18,18,0,0,1-5.51.59q-5.77,0-8.26-3.2t-2.54-10.09V392.53h-9.76v-2.64h9.76V375.63Z" transform="translate(0 227.81)"/><path class="cls-6" d="M816.31,391.84l-3.41-.29a15.62,15.62,0,0,0-11.28,4.37q-4.54,4.36-6,12.22v34.58H793V389.89h2.64v11a19.4,19.4,0,0,1,6.45-8.74,17.46,17.46,0,0,1,10.79-3.23,10.6,10.6,0,0,1,3.71.55Z" transform="translate(0 227.81)"/><path class="cls-6" d="M844.54,443.7a21.32,21.32,0,0,1-11.75-3.44,23.72,23.72,0,0,1-8.37-9.45,29.17,29.17,0,0,1-3-13.33v-2.2a30.69,30.69,0,0,1,2.93-13.43,23.31,23.31,0,0,1,8.06-9.52,19.74,19.74,0,0,1,11.18-3.42,18.47,18.47,0,0,1,14.45,6.3q5.63,6.3,5.62,16.56v2.78H824v2.88a26.46,26.46,0,0,0,2.71,11.91,21.35,21.35,0,0,0,7.47,8.6,18.48,18.48,0,0,0,10.33,3.12,21,21,0,0,0,9.05-1.77,18.49,18.49,0,0,0,6.62-5.45l1.86,1.32q-5.91,8.54-17.53,8.54m-1-52.15a17.25,17.25,0,0,0-13.09,5.74,24.37,24.37,0,0,0-6.29,14.62H861v-.63a22.26,22.26,0,0,0-2.27-10,17.55,17.55,0,0,0-6.25-7.18,16.16,16.16,0,0,0-8.91-2.56" transform="translate(0 227.81)"/><path class="cls-6" d="M894.93,443.7a21.32,21.32,0,0,1-11.75-3.44,23.72,23.72,0,0,1-8.37-9.45,29.17,29.17,0,0,1-3-13.33v-2.2a30.69,30.69,0,0,1,2.93-13.43,23.31,23.31,0,0,1,8.06-9.52A19.74,19.74,0,0,1,894,388.91a18.47,18.47,0,0,1,14.45,6.3q5.63,6.3,5.62,16.56v2.78h-39.6v2.88a26.46,26.46,0,0,0,2.71,11.91,21.35,21.35,0,0,0,7.47,8.6,18.48,18.48,0,0,0,10.33,3.12,21,21,0,0,0,9.06-1.77,18.46,18.46,0,0,0,6.61-5.45l1.86,1.32q-5.91,8.54-17.53,8.54m-1-52.15a17.23,17.23,0,0,0-13.08,5.74,24.32,24.32,0,0,0-6.3,14.62h36.81v-.63a22.26,22.26,0,0,0-2.27-10,17.55,17.55,0,0,0-6.25-7.18,16.16,16.16,0,0,0-8.91-2.56" transform="translate(0 227.81)"/><path class="cls-6" d="M932.23,375.63v14.26h12v2.64h-12v37.54q0,5.61,1.83,8.31c1.22,1.79,3.27,2.68,6.13,2.68a36.91,36.91,0,0,0,5.23-.44l.44,2.49a18.07,18.07,0,0,1-5.52.59q-5.76,0-8.25-3.2t-2.54-10.09V392.53h-9.77v-2.64h9.77V375.63Z" transform="translate(0 227.81)"/><path class="cls-6" d="M990.53,429.78q0-9.61-16.4-13.08-9.87-2.1-13.72-5.4a11.23,11.23,0,0,1-3.86-9.05,11.53,11.53,0,0,1,4.91-9.57q4.9-3.76,12.76-3.76,8.55,0,13.73,4.07a13.28,13.28,0,0,1,5.17,11h-2.68a10.9,10.9,0,0,0-4.5-8.88q-4.49-3.57-11.72-3.57-6.93,0-11,3a9.78,9.78,0,0,0-2.54,13.16,13.05,13.05,0,0,0,4.93,3.66,50.82,50.82,0,0,0,10,3.15,42.92,42.92,0,0,1,10.35,3.56,14,14,0,0,1,5.52,4.86,13,13,0,0,1,1.71,6.86A11.93,11.93,0,0,1,988,439.89q-5.12,3.81-13.42,3.81-8.89,0-14.34-4a12.35,12.35,0,0,1-5.44-10.37h2.64a10.89,10.89,0,0,0,4.9,8.66q4.51,3.1,12.24,3.1,7.08,0,11.49-3.29t4.42-8" transform="translate(0 227.81)"/></g></g><g class="cls-7"><g class="cls-7"><g class="cls-7"><path class="cls-4" d="M920,183.5A176,176,0,1,1,744,7.5a176,176,0,0,1,176,176" transform="translate(0 227.81)"/><path class="cls-6" d="M854.08,107.25l-31.94-5.43-15-23.29-29.78-5.06-2.06,52A51.11,51.11,0,0,1,771.37,224L770,258.86l56.72,9.63a20.51,20.51,0,0,0,23.58-16.73l20.54-120.94a20.5,20.5,0,0,0-16.74-23.57" transform="translate(0 227.81)"/><path class="cls-6" d="M774.5,145l-2.36,59.49A32.71,32.71,0,0,0,774.5,145" transform="translate(0 227.81)"/><path class="cls-6" d="M671.58,243.57l45.51-8.08-3.68-92.65-69.2,12.29,7.92-53.89,59.21-10.52-.69-17.37L649.12,84.28a17.28,17.28,0,0,0-14,14.27,247.71,247.71,0,0,0,4.58,162.36A11.52,11.52,0,0,0,653,270.2l11.3-2a11.51,11.51,0,0,0,9.3-13.31ZM651,193a17.23,17.23,0,1,1,21.9,15.3A17.26,17.26,0,0,1,651,193" transform="translate(0 227.81)"/><g class="cls-8"><g class="cls-9"><g class="cls-10"><g class="cls-9"><rect class="cls-11" x="578.11" y="-219.21" width="323.59" height="758.73" transform="translate(89.1 774.68) rotate(-42.93)"/></g></g></g></g><g class="cls-12"><g class="cls-13"><g class="cls-10"><g class="cls-13"><rect class="cls-11" x="712" y="-271.86" width="169" height="758.72" transform="translate(140.12 799.13) rotate(-42.93)"/></g></g></g></g><path class="cls-6" d="M765,314.5a21,21,0,1,1-21-21,21,21,0,0,1,21,21" transform="translate(0 227.81)"/><path class="cls-6" d="M749.35,283.5h-10.7c-5.94,0-10.81-4.05-11-9.16l-9.25-233c-.21-5.36,4.78-9.8,11-9.8h29.18c6.24,0,11.23,4.44,11,9.8l-9.25,233c-.2,5.11-5.07,9.16-11,9.16" transform="translate(0 227.81)"/></g></g></g></svg>