<svg id="Livello_1" data-name="Livello 1" xmlns="http://www.w3.org/2000/svg" xmlns:xlink="http://www.w3.org/1999/xlink" viewBox="0 0 211.69 64.15"><defs><style>.cls-1,.cls-2,.cls-6,.cls-7{fill:none;}.cls-2,.cls-6,.cls-7{stroke:#1d1d1b;}.cls-2{stroke-miterlimit:10;stroke-width:0.48px;}.cls-3{clip-path:url(#clip-path);}.cls-4{fill:#fff;}.cls-5{fill:#9bbdd5;}.cls-6,.cls-7{stroke-linecap:round;stroke-linejoin:round;}.cls-6{stroke-width:0.28px;}.cls-7{stroke-width:0.25px;}.cls-8{fill:#1d1d1b;}</style><clipPath id="clip-path"><rect class="cls-1" x="-187.23" y="-265.89" width="595.28" height="841.89"/></clipPath></defs><title>logo polimi</title><path class="cls-2" d="M66.28,34.39l-2.59-.17m2.46,1.53-2.57-.3M66,37.09l-2.56-.4m2.31,1.75-2.54-.53m2.22,1.86-2.5-.66m2.13,2-2.47-.78m2,2.06-2.44-.87m1.94,2.14-2.39-1m1.84,2.24-2.34-1.11m1.73,2.33-2.28-1.22m1.61,2.41L60.05,46m1.5,2.48L59.39,47m1.39,2.54L58.68,48M60,50.63l-2-1.61m1.14,2.66L57.13,50m1,2.71-1.86-1.8m.89,2.76-1.77-1.89m.76,2.8-1.68-2m.62,2.83-1.58-2M54,56.23l-1.49-2.12M52.9,57l-1.41-2.17m.25,2.88-1.3-2.23m.1,2.89-1.19-2.3m0,2.9L48.24,56.6m-.17,2.89-1-2.4M46.79,60l-.85-2.45m-.45,2.87-.73-2.48m-.57,2.83-.63-2.5m-.7,2.8-.51-2.53m-.84,2.77-.38-2.56m-1,2.73-.26-2.58m-1.09,2.69L38.66,59M37.45,61.6l0-2.59m-1.34,2.57.1-2.58m-1.45,2.5.2-2.58m-1.56,2.44.34-2.57M32,61.15l.46-2.54M30.7,60.89l.56-2.53m-1.89,2.2.69-2.5m-2,2.1.81-2.45m-2.09,2,.92-2.41m-2.18,1.9,1-2.37m-2.25,1.8,1.13-2.32M23.08,58l1.24-2.26M21.9,57.32l1.35-2.21m-2.5,1.47,1.46-2.14m-2.57,1.35,1.56-2.07M18.58,55l1.63-2m-2.66,1.11,1.73-1.92m-2.72,1,1.82-1.84m-2.77.86,1.91-1.75m-2.8.73,2-1.66m-2.83.59,2.06-1.56M13.07,49l2.13-1.47m-2.88.33,2.2-1.36m-2.88.2,2.24-1.28M11,45.44l2.31-1.17m-2.89-.06,2.36-1.06M9.89,43,12.3,42m-2.87-.35,2.45-.82M9,40.36l2.49-.7M8.68,39l2.53-.57m-2.8-.75L11,37.24m-2.76-.87L10.76,36M8,35l2.58-.22M8,33.66l2.59-.12M7.93,32.3h2.58M8,30.93l2.59.14M8.06,29.58l2.58.24M8.23,28.23l2.56.36M8.45,26.88l2.54.49M8.73,25.56l2.52.59M9.08,24.24l2.49.71m-2.08-2,2.45.83m-2-2.12,2.4,1M10.5,20.4l2.35,1.07m-1.77-2.29,2.31,1.16M11.73,18,14,19.25m-1.55-2.44,2.19,1.38m-1.44-2.52,2.12,1.49M14,14.58l2,1.58m-1.18-2.64,2,1.68m-1.06-2.7,1.89,1.77m-.94-2.74,1.81,1.84m-.82-2.77,1.73,1.93m-.69-2.81,1.63,2m-.55-2.84L21.34,11M20.92,8.1l1.44,2.15m-.29-2.88L23.4,9.59m-.14-2.9L24.48,9m0-2.9,1.11,2.34m.12-2.89,1,2.37M27,5l.9,2.42m.39-2.86L29,7m.53-2.85.66,2.5m.66-2.82.54,2.53m.79-2.79.44,2.55m.91-2.74L33.89,6m1-2.7.19,2.58M36.29,3.2l.06,2.59M37.64,3.2l0,2.58M39,3.25l-.17,2.58m1.53-2.46-.3,2.57m1.64-2.39-.4,2.56m1.74-2.32-.52,2.54M44.38,4.1l-.64,2.5m1.94-2.14-.74,2.48m2-2.05-.86,2.44m2.13-1.95-1,2.4M49.5,5.93,48.41,8.27m2.31-1.73-1.2,2.28M51.91,7.2,50.6,9.43m2.47-1.51-1.42,2.16M54.2,8.69l-1.52,2.09m2.6-1.27-1.62,2m2.66-1.16-1.69,2m2.69-1-1.78,1.88m2.75-.92L56.42,14m2.78-.78-2,1.7m2.82-.65-2,1.61m2.85-.52-2.1,1.51m2.87-.38-2.17,1.4m2.88-.24L60.14,19M63,18.88l-2.29,1.19m2.9,0-2.35,1.09m2.89.16-2.4,1m2.89.3-2.44.86m2.86.42-2.47.77m2.84.55L63,25.86m2.81.69-2.53.52m2.77.82-2.56.4m2.74,1-2.57.26m2.68,1.08-2.58.17M66.34,32l-2.58,0m2.57,1.32-2.59-.09"/><g class="cls-3"><path class="cls-4" d="M33.28,28.21a1.88,1.88,0,0,0-.49.23,7.87,7.87,0,0,1-.82.61,10.05,10.05,0,0,0-1.08,1,1,1,0,0,0-.07.59c.05.12.47,1.19.49,1.29s.4.2.45.34.09.42.65.71l-.11.89.31-.23s1.3.07,1.44-.19a2.69,2.69,0,0,1,1-.87c.34-.16,1.14-.69,1.37-.79s.73.24.89.24,1.31-.25.82-.93-.75-1-.7-1.16-.23-.73-.93-.8a1.43,1.43,0,0,1-1-.61Z"/><path class="cls-4" d="M46.56,23.41s-1.22-.5-1.54-.57a6,6,0,0,0-2.23.5c-.46.26-.7.43-.77.63s-.71.37-.71.54a7.19,7.19,0,0,1-.28.82,2,2,0,0,0,.1.91c.11.12.07.77.18.91s.33,1,.78,1.32,1.06.46,1.15.63.53,1.13.75,1,.37-.4.65-.26a1.3,1.3,0,0,0,1.38-.1c.43-.39.86-1.3,1.36-1.54a2.57,2.57,0,0,0,1.31-1.31,4.54,4.54,0,0,0,.4-2.39A1.27,1.27,0,0,0,48,23.6c-.27,0-1.47-.19-1.47-.19"/><path class="cls-4" d="M47.33,46.44a2.62,2.62,0,0,1,.25-.61,4.88,4.88,0,0,0,.3-1.29,6.07,6.07,0,0,1,.55-1.65A20.23,20.23,0,0,0,49,39.55l0-.07a31.59,31.59,0,0,0,3.8-3.4,1.63,1.63,0,0,1,.44-.43l0,0c.22,3.11-2.93,7.5-3.22,8.07a2.73,2.73,0,0,0,0,1.55c0,.17.07.27.07.27a4.77,4.77,0,0,1,.63,1.14c0,.25-.38.58-.51.68s-.43.21-.59.31a1.22,1.22,0,0,1-.61,0,3,3,0,0,1-.62-.16,2.71,2.71,0,0,1-.75.06c-.29,0-.31-.38-.35-.78a1.24,1.24,0,0,1,0-.43"/></g><polygon class="cls-4" points="45.99 48.5 38.16 50.8 38.13 50.14 38.13 50.14 38.16 49.63 46.03 47.41 45.99 48.5"/><g class="cls-3"><path class="cls-4" d="M42.72,43.82c-.62-.08-.51-.75-.51-.75s.26-.81.31-.94a3.19,3.19,0,0,0,0-.83A2.67,2.67,0,0,1,43,40.07a2.84,2.84,0,0,0,.17-1.42c0-.21,0-2.4,0-2.4l0,0h0c.1-.17.19-.35.28-.53l.05,0a20.19,20.19,0,0,1,2.86-.45v.12a6.76,6.76,0,0,1-.68,3s-1.06,1.62-1.2,1.82a2,2,0,0,0-.11.94,2.65,2.65,0,0,1-.1.49,1.2,1.2,0,0,0,.3.86c.16.21.4.36.5.58s-.17.55-.5.71a4.16,4.16,0,0,1-1.81.08"/><path class="cls-4" d="M39.39,15.35a11.48,11.48,0,0,1,.34-1.3,6.13,6.13,0,0,1,.4-1.07,3,3,0,0,1,.29-.37h0A6.18,6.18,0,0,1,41,12a6.15,6.15,0,0,1,1.09-.34,2.36,2.36,0,0,1,1.73.51s.68,0,.88.46A4.91,4.91,0,0,1,45.28,14c0,.21-.17.43-.15.54a3.31,3.31,0,0,1-.11.95.64.64,0,0,1,0,.07.87.87,0,0,0-.08.4c0,.16.17.68.08.78s-.25.21-.25.31,0,.56-.16.68a.64.64,0,0,0-.22.38c0,.09.13.68-.07.94a1.24,1.24,0,0,1-.19.2h0c-.11.09-.2.1-.23.05s-.19.2-.19.18l-.06.17s-.05.43-.15.39-.25-.49-.25-.49l.18-1,.12-1.26v-.05l1-1.61a1.72,1.72,0,0,0-.22-.8,2,2,0,0,1-.48-.63c0-.14-.13-.61-.13-.61s-.73.59-.89.68-.68,0-.83,0a.7.7,0,0,0-.54.24c-.08.17-.37.67-.44.78a2.6,2.6,0,0,0-.17.89.59.59,0,0,1-.13.34,1.53,1.53,0,0,0-.16.26c-.07.18,0,.35.06.64a3.38,3.38,0,0,1-.05.89c0,.14-.28.14-.33.14a2.19,2.19,0,0,0-.37.17s.07-.39.09-.48a5.91,5.91,0,0,0-.3-.85,14,14,0,0,1-.24-1.86"/><path class="cls-4" d="M38.68,47.16l-.28.06.27-2h0a2.2,2.2,0,0,0,.23-.58,6.56,6.56,0,0,1,.56-1.56,1.05,1.05,0,0,1,.73-.42l0,.51.5,3.56-.09.26-.94-2.44Z"/><path class="cls-4" d="M40.82,16.1a2.9,2.9,0,0,1,.16-.89,9,9,0,0,0,.45-.78.68.68,0,0,1,.54-.24,2.31,2.31,0,0,0,.83,0c.16-.09.89-.68.89-.68s.11.47.13.61a2,2,0,0,0,.48.63,1.72,1.72,0,0,1,.22.8l-1,1.61v.05h-.05a3.08,3.08,0,0,1-1.76.57c-.63-.17-1-1.35-1-1.35h-.07a.59.59,0,0,0,.13-.34"/></g><polygon class="cls-4" points="33.97 48.26 38.4 47.22 38.68 47.16 40.29 46.78 40.56 46.72 41.53 46.49 46.03 47.41 38.16 49.63 33.97 48.26"/><g class="cls-3"><path class="cls-4" d="M37.93,41.68a5.25,5.25,0,0,1,.65-1.49,16.94,16.94,0,0,0,.57-1.72c.26-.85.49-1.68.49-1.68a11.87,11.87,0,0,1,.49-2.35,2.94,2.94,0,0,1,1-1.57,3.15,3.15,0,0,0,.37-.81V32l2.68-.33a2.66,2.66,0,0,0,.41-.13l.15.07-.86,1.85a4.6,4.6,0,0,1-.59,2.27c-.09.19-.19.38-.29.57-1,1.77-2.4,3.47-2.46,3.68s-.15.58.12,1.72a1.79,1.79,0,0,1-.32,1.51h-.06l0-.51a1.05,1.05,0,0,0-.73.42,6.56,6.56,0,0,0-.56,1.56,2.2,2.2,0,0,1-.23.58h0c-.3,0-.28-.42-.28-.42L38.27,43a.87.87,0,0,1-.22-.26,2.12,2.12,0,0,1-.12-1.08"/><polyline class="cls-5" points="38.58 35.03 38.58 35.03 38.58 35.03 38.58 35.03"/><path class="cls-5" d="M38.57,35Z"/><path class="cls-4" d="M36.6,37.41c-.42-.36.18-.26.1-.45s.12-.16.25-.14.42.44.46.5.37-.18.43-.23.08-.28.08-.4a9.9,9.9,0,0,1,.23-1c.05-.14,0-.1.42-.64h0l.5-.45a.75.75,0,0,1,1-.15h0a13,13,0,0,0-.49,2.36s-.23.83-.49,1.68h0l-.27.44-.27.37c-.26.36-.42-.14-.42-.14a1.43,1.43,0,0,1,.2-.75,2.09,2.09,0,0,0,.12-.53h-.05a.77.77,0,0,1-.82.28,2.11,2.11,0,0,1-.61-.37Z"/><path class="cls-5" d="M38.57,35Z"/><path class="cls-4" d="M34.44,21.57a1.78,1.78,0,0,1,.55-1,2,2,0,0,1,1.43-.15l.38.33a3.14,3.14,0,0,1,.51.28.52.52,0,0,1,.2.35,3.45,3.45,0,0,0,.25.41,4.49,4.49,0,0,1,.23.68c0,.09.09.53.09.59s.16.61,0,.75,0,1.46-.15,1.56c-.24.35-.43.9-.78,1a4.41,4.41,0,0,1-1.93,0l.18-1.81a2.8,2.8,0,0,0-.13-.38A2.67,2.67,0,0,1,35,23.11a1.28,1.28,0,0,0-.27-.75,1,1,0,0,1-.31-.79"/><path class="cls-4" d="M33.18,34.06l-.39.11-.27-.76c.12-.21,1.07-.06,1.16-.14s.4,0,.44-.11.2-.1.37-.23.22-.27.33-.29a.63.63,0,0,0,.33-.26c0-.08.29-.12.43-.17a7.3,7.3,0,0,0,.79-.46.49.49,0,0,1,.42-.06c.14,0,.18.29.18.29a1.14,1.14,0,0,1-.47.76s0,.7,0,1-.49.17-.49.17-.16.33-.3.35-.29.18-.4.2a2.67,2.67,0,0,0-.5.28c-.17.11-1-.22-1-.22Z"/><path class="cls-4" d="M34,18a.56.56,0,0,1-.53-.29c0-.09.42-.28.42-.28a2.78,2.78,0,0,1,1-.34l.24,0a1.25,1.25,0,0,1,.94.15l.41.25h.08a1.14,1.14,0,0,1-.1-.2.23.23,0,0,1,0-.27c.08-.12.29,0,.31,0s.15.17.32.3.14,0,.28.63a1,1,0,0,1,0,.32c-.05.32-.4.32-.84.53a1.29,1.29,0,0,1-1.12,0s-.85-.8-.9-.88-.14-.07-.22,0,0,.09-.36.1"/></g><polygon class="cls-4" points="33.97 48.26 38.16 49.63 38.13 50.14 38.13 50.31 38.16 50.41 38.13 50.76 33.93 49.38 33.97 48.26 33.97 48.26"/><g class="cls-3"><path class="cls-4" d="M34.05,26.53c-.2-.15-1,.06-1.14-.2s-.25-.32-.8-.71,0-.89.19-.92.08-.13.08-.13.12-.23.32-.41.11-.17.16-.75.31-.72.31-.72a1.68,1.68,0,0,1,.2-1.16c0-.39.6-.77.6-.77a.78.78,0,0,1,1-.42l.54-.24a1.4,1.4,0,0,0,.44,0,1.11,1.11,0,0,1,.55,0,.47.47,0,0,1,.41.24s.36,0,.41.23.49.1.43.54a1.52,1.52,0,0,1,.27.55c0,.18.3.12.39.47a.51.51,0,0,1,0,.13,3.25,3.25,0,0,0,.15.51c.08.15,0,.29.05.31s.33.25.32.36a2.36,2.36,0,0,1-.05.33.63.63,0,0,1,.18.56c-.09.29.21.56-.17.84s-.44.38-.41.43a3.17,3.17,0,0,0-.4-.15l-.22-.09a.61.61,0,0,1-.2-.2c0-.07-.16-.09-.13-.8l-.06-.11a2.89,2.89,0,0,0,.58-.38c.17-.14,0-.69,0-.75s-.09-.5-.09-.59a4.3,4.3,0,0,0-.17-.54.74.74,0,0,0-.06-.14,3.45,3.45,0,0,1-.25-.41.52.52,0,0,0-.2-.35,4.21,4.21,0,0,0-.51-.28l-.38-.33a1.88,1.88,0,0,0-1.43.16,1.71,1.71,0,0,0-.55,1,1,1,0,0,0,.31.79,1.28,1.28,0,0,1,.27.75,2.67,2.67,0,0,0,.24,1.06,2.8,2.8,0,0,1,.13.38,1.61,1.61,0,0,1,0,.82,2.34,2.34,0,0,0-.13.79c0,.2-.36.38-.4.42s-.65.1-.86,0"/><path class="cls-4" d="M26.68,15.26c-.14-.37.59-.79.59-.81,0-.46.58-.42.58-.42,0-.38.79-.26.79-.26l.36-.46a5.5,5.5,0,0,1,1.82-.06c1-.16,1.07.25,1.07.25a1.45,1.45,0,0,1,1,.35c.21-.17.51.12.51.12a.91.91,0,0,1,.71.69c.76.22.41.71.41.71.44.41,0,.6,0,.7s0,.28-.41.34a.78.78,0,0,1-.43-.09c-.32-.14-.64-.4-.82-.45s-.22-.19-.22-.19c-.18,0-.15.12-.24-.13l-.11,0a1,1,0,0,1-.15.64c-.2.18-.27.18-.39.17s-.41.27-.59.38a.83.83,0,0,1-.36.14c-.1,0-.31.45-.54.28,0,0-.16-.21-.32-.06a.7.7,0,0,1-.73.11c-.23-.13-.6-.18-.67-.38s-.39-.24-.63-.4l-.06,0a2.48,2.48,0,0,0-.7-.84,2.76,2.76,0,0,0-.45-.28l0-.06Z"/><path class="cls-4" d="M28.72,23.09a1.64,1.64,0,0,1,.28-.92c.16-.27.65-.35.65-.35l.45.12.45.12.27,0,.77.11c.09,0,.71.11.71.11.05.18-.31.3-.31.3l-.66.11.2.34c.21.33-.24.6-.24.6a.7.7,0,0,1-.28.83,1.48,1.48,0,0,1-1.66-.2,2.09,2.09,0,0,0-.3-.15c-.44-.17-.32-.58-.33-1"/><path class="cls-4" d="M27.47,19.05a3.24,3.24,0,0,0,.46-.91,2.3,2.3,0,0,0-.12-1.7l.06,0c.24.16.58.27.63.4s.44.25.67.38a.7.7,0,0,0,.73-.11c.15-.15.32.06.32.06.23.17.44-.27.54-.28a.83.83,0,0,0,.36-.14c.18-.11.46-.39.59-.38s.19,0,.39-.17a1,1,0,0,0,.15-.64l.15-.1a.41.41,0,0,0,.26.25s-.11.12.16.19.5.31.82.45l0,.05a.88.88,0,0,0-.16.29,12.7,12.7,0,0,0-.58,1.63c-.09.46-.41.1-.41.1a1.11,1.11,0,0,1-.22.22.88.88,0,0,1-.34.06s-.14.19-.21.2-.2.16-.2.24,0,.19-.2.22a2.08,2.08,0,0,1-.73-.25l-.8-.44-.12-.06-2,.53Z"/><path class="cls-4" d="M24.5,39.22a7.33,7.33,0,0,1,.22-2,9.11,9.11,0,0,1,.58-1.57,4.16,4.16,0,0,1,1.27-1.44c2.87,1,2.51,1.76,2.48,2.23S28,37,28,37a5.35,5.35,0,0,1-.5,1.31l-.17.32L27,39.5a17.1,17.1,0,0,0-.6,1.61c0,.27.44.33.61.38a2.41,2.41,0,0,1,1.17.85.68.68,0,0,0,.16.19,2.21,2.21,0,0,1,.4.25l.66.81c.06.06.11.18.07.24a.31.31,0,0,1-.18.07l-.8-.51-.59-.23a2.88,2.88,0,0,1,.55.76s.19.46.29.68,0,.29-.15.33-.28-.14-.28-.14l-.33-.57-.64-.85.13.39.13.34.17.57s.11.4.15.5,0,.15-.1.2-.25,0-.25,0L26.88,44s0,.14,0,.3-.4.34-.48.36a.44.44,0,0,0-.27.15c-.08.1-.15,0-.15,0-.15-.08-.08-.31-.05-.35s.25-.16.31-.23-.06-.35-.09-.43-.43-.33-.48-.38L25.17,43a3.21,3.21,0,0,1-.59-2h0c0-.59-.06-1.22-.08-1.82"/><path class="cls-4" d="M20.5,18.83c-.66-.84-.15-1.57.79-2.61S24.7,15,25.26,15v0a3.24,3.24,0,0,1,1.4.34,2.76,2.76,0,0,1,.45.28,2.48,2.48,0,0,1,.7.84,2.35,2.35,0,0,1,.12,1.7,3.24,3.24,0,0,1-.46.91,2.46,2.46,0,0,1-.74.75c-.3.15-.6.22-.75.67a5,5,0,0,1-.88,1.93s-.08,0,0,.23a1.53,1.53,0,0,0,.09.24,6.9,6.9,0,0,1,.77,2.49,7.85,7.85,0,0,0,.37,2.43c.21.68.62,1.51.79,1.52a1.1,1.1,0,0,1,.62.25,3,3,0,0,0,.69.38c.08,0,.26.11.29.2s0,.13-.18.19a1.51,1.51,0,0,1-.81,0,.88.88,0,0,0-.3-.12c-.07,0-.17.1-.24.14s-.31.11-.4.23h0c0,.05-.13.33-.15.42a4.86,4.86,0,0,0-.1.61c0,.15,0,.34-.11.39a1.24,1.24,0,0,1-.41.21.87.87,0,0,1-.55-.07c-.14-.12-.3-.32-.44-.43a.45.45,0,0,1-.09-.1,1,1,0,0,1-.17-.78,5.31,5.31,0,0,1,.35-.93c0-.11-.5-1.44-.5-1.44s-.78-1.06-.91-1.32a5.38,5.38,0,0,1-.84-1.81A7.77,7.77,0,0,1,22.6,24a2.65,2.65,0,0,1-.08-.91,3.29,3.29,0,0,1,0-.42,20,20,0,0,0,.08-2.19,2.9,2.9,0,0,0,0-.29h-.09c-.69.25-1.41-.47-2.08-1.31"/><path class="cls-4" d="M18.36,48a11.67,11.67,0,0,1-.66-1.36,7.21,7.21,0,0,1,.65-1.87,3.5,3.5,0,0,0,.24-1.31.82.82,0,0,1,.26-.49l0-.06.07.06a16.21,16.21,0,0,0,3.33,2.62c1.29.62,4.12,1.74,4.42,1.84l.33.13h0l.61,0c2.49.09,2.61-1,3.09-2a1.34,1.34,0,0,0,.14-.36l.1,0a8.06,8.06,0,0,1,.58.86A3.82,3.82,0,0,1,31.66,48c0,.36-.26.4-.76,1s-1.64.35-2.17.2a20.84,20.84,0,0,0-2.47-.48,10.64,10.64,0,0,1-2.47-1.09,22.14,22.14,0,0,1-2.17-1.7,1.84,1.84,0,0,0-.83-.31,7,7,0,0,0-1.48.87.8.8,0,0,0-.3.33c-.05.13,0,.21.06.34s.2.13.3.17l.41.14c.11,0-.2.42-.27.45s-.05.14-.05.22-.18.13-.24.15-.26,0-.31,0a2,2,0,0,1-.35,0s-.2-.18-.2-.24"/><path class="cls-6" d="M16.77,25.4a3.57,3.57,0,0,0-1.25,3c0,2,.31,4.67-.51,6.13a2,2,0,0,1-.2.31s-.62.74-.1.77.84,0,1.1.28a1.26,1.26,0,0,0,.35.31,3.37,3.37,0,0,0,1.12,0M18.5,25.59a3.56,3.56,0,0,0-.87,2.31c0,1.41.4,3.5.4,4a12.78,12.78,0,0,1-.29,1.75,4.23,4.23,0,0,0,.1,2.52M15.21,23.24h0c-.07.06-.57.54.21,1.73m7-1.93-.17.12c-.29.21-.87.63-1.5,1-.88.58-1.64-.22-2.08-.54s-1.39,0-2.25.12a1.61,1.61,0,0,1-1.24-.54c-.22-.21-.38-.42-.47-.5s-.36-1-.14-1.19a12.08,12.08,0,0,0,.86-1c1-1.8,2-2,2-2m9.28,12.05L26.6,31c0,.11-.09.46-.1.61s0,.34-.1.39a1.21,1.21,0,0,1-.42.21.84.84,0,0,1-.54-.07c-.14-.12-.3-.32-.44-.43a.45.45,0,0,1-.09-.1,1,1,0,0,1-.17-.78,4.33,4.33,0,0,1,.35-.93c0-.11-.51-1.45-.51-1.45s-.78-1.05-.91-1.32a5.48,5.48,0,0,1-.84-1.81A7.55,7.55,0,0,1,22.6,24a2.77,2.77,0,0,1-.09-.91c0-.12,0-.27,0-.42a20.79,20.79,0,0,0,.09-2.19,2.52,2.52,0,0,1,0-.29A7.94,7.94,0,0,1,23,18.49a23.55,23.55,0,0,1,1.21-2.27M26.76,30.6h0m-4.53-7.5L21,22.7c-.2-.06-1.4-.55-1.65-.57a3.56,3.56,0,0,1-1.16-.44,3.15,3.15,0,0,1-.85-1.28c0-.17.1-1.13.22-1.84q0-.24.09-.42c.16-.67.72-.89,1.12-1.12s.82-1.09,1.26-1.36A11.55,11.55,0,0,1,22.5,15a10.91,10.91,0,0,1,2.62,0h.14a3.2,3.2,0,0,1,1.39.34,2.46,2.46,0,0,1,.46.28,2.56,2.56,0,0,1,.69.84,2.3,2.3,0,0,1,.12,1.7,3.22,3.22,0,0,1-.45.91,2.46,2.46,0,0,1-.74.75c-.31.15-.61.22-.76.67a4.69,4.69,0,0,1-.87,1.93s-.08,0,0,.24a1.28,1.28,0,0,0,.08.23,7,7,0,0,1,.78,2.5,8.1,8.1,0,0,0,.36,2.42c.21.69.63,1.52.8,1.53a1.12,1.12,0,0,1,.62.25,2.77,2.77,0,0,0,.69.38c.08,0,.25.11.29.2s0,.13-.19.18a1.42,1.42,0,0,1-.8,0,1,1,0,0,0-.3-.12c-.07,0-.17.1-.24.14s-.31.1-.41.23h0l0,0M22.57,20.13c-.69.26-1.41-.46-2.07-1.3s-.16-1.58.79-2.62,3.4-1.18,4-1.22m-.12,7.64,1.08-.54.84-.42s1.25-.44,1.94-.75c.25-.11.43-.2.44-.25a4.13,4.13,0,0,0,0-.71m.27-1.3a1.82,1.82,0,0,1-.32,1.26,1.1,1.1,0,0,1-.25.23l-.71.46m4-2.23s.31.36.41-.1a12.7,12.7,0,0,1,.58-1.63.88.88,0,0,1,.16-.29m-6,2.74,2-.53.12.06.8.44a2.07,2.07,0,0,0,.72.26c.2,0,.2-.14.21-.23s.14-.22.2-.24.2-.19.2-.19a1,1,0,0,0,.35-.07,1.11,1.11,0,0,0,.22-.22h0m-5.79-3.13c-.12-.32.21-.61.35-.7l.24-.06a.09.09,0,0,0,0-.05c0-.46,1.38-.68,1.38-.68,0-.9,2.18-.52,2.18-.52a3.07,3.07,0,0,1,2,.6c.8-.15,1.22.81,1.22.81.76.22.43,1.31.41,1.41s0,.28-.41.34a.78.78,0,0,1-.43-.09,3.23,3.23,0,0,1-.82-.36l-.57-.43a1,1,0,0,1-.15.64c-.2.18-.27.18-.4.17s-.4.27-.58.38a1.8,1.8,0,0,1-.9.42,2.61,2.61,0,0,1-1.06.05c-.23-.13-.75.11-.83-.09a1,1,0,0,0-.43-.48m3.73,1.76.27.3M26.28,22.1s-.15.56,0,.81A2.06,2.06,0,0,0,28,24.21c.13,0,1.32.06,1.32.06M29.21,21s.83.59.91.88m-5.23,9.79-1.33.57s-1.37.34-1.71.38-1.65.32-1.61,1.09-.09,1,.18,1.24a3.09,3.09,0,0,0,.51.34m1-.53s-.53.26-1,.56a3.35,3.35,0,0,0-.58.47A3,3,0,0,0,19.66,37a1,1,0,0,0,0,.17,1.15,1.15,0,0,0,.51.9M19.59,37a8.06,8.06,0,0,0-1.06-.62L18,36.29a3.8,3.8,0,0,0-.76-.06c-.31,0-1.3.6-1.37,1.19s-.52,2.16.94,2.13a5.56,5.56,0,0,0,.82-.55.38.38,0,0,0,.09-.09,4.26,4.26,0,0,1,1.46-.85c.12,0,.6,0,1,0a1.11,1.11,0,0,1,.61.17c.19.24.31,1,.41,1.13l1,.79m5.15,3.19h0l.64.85.34.57s.17.19.27.14.24-.1.15-.33l-.28-.68a3.15,3.15,0,0,0-.55-.76l.59.23.8.51s.13,0,.17-.08,0-.17-.07-.23l-.66-.81a3.14,3.14,0,0,0-.39-.26.6.6,0,0,1-.16-.18,3.41,3.41,0,0,0-.42-.43,3.45,3.45,0,0,0-.75-.43c-.18,0-.65-.1-.61-.37a17.1,17.1,0,0,1,.6-1.61l.41-.83.16-.33a5.38,5.38,0,0,0,.51-1.3s1-.14,1-.61.38-1.19-2.48-2.24a4.13,4.13,0,0,0-1.27,1.45,8.24,8.24,0,0,0-.58,1.56,7,7,0,0,0-.23,2c0,.59,0,1.23.09,1.81m2.29,3h0l.65,1.35s.19.09.25,0,.13-.11.1-.2-.15-.5-.15-.5l-.17-.57-.14-.34-.13-.39M24.58,41a3.16,3.16,0,0,0,.59,2l.48.41a3.26,3.26,0,0,1,.47.38c0,.08.15.37.09.43s-.28.19-.31.23-.1.27.06.35c0,0,.07.06.15,0a.49.49,0,0,1,.27-.16c.07,0,.46-.18.47-.35s0-.29,0-.3m-5.21-9.6.31.33a19.33,19.33,0,0,0,2.65,2.46M17.75,39a2.94,2.94,0,0,0,.41,1.24l.1.11A4.48,4.48,0,0,0,21,41.52c1.37.08,2.82.28,3.63-.48h0m-6.35-.64a2.8,2.8,0,0,0,.66,2.49L19,43a16,16,0,0,0,3.34,2.62c1.28.62,4.11,1.74,4.42,1.84l.33.13a10.74,10.74,0,0,1,1.75.84m-9.95-5.44a.81.81,0,0,0-.25.49,3.48,3.48,0,0,1-.25,1.31,7.39,7.39,0,0,0-.65,1.88A11.67,11.67,0,0,0,18.35,48a.71.71,0,0,0,.21.24,1.76,1.76,0,0,0,.34,0c.05,0,.24,0,.31,0s.23-.06.24-.15,0-.2.05-.22.39-.42.27-.45l-.41-.14c-.1,0-.24,0-.3-.17S19,46.93,19,46.8a.83.83,0,0,1,.31-.33,7.16,7.16,0,0,1,1.47-.88,2.08,2.08,0,0,1,.84.32,22,22,0,0,0,2.16,1.7,10.84,10.84,0,0,0,2.47,1.09,18.93,18.93,0,0,1,2.47.49c.53.14,1.68.36,2.18-.21s.72-.61.75-1a3.69,3.69,0,0,0-.08-1.88,8.06,8.06,0,0,0-.58-.86M28.7,30.14a8.9,8.9,0,0,1,2.16.85l0,0a1.12,1.12,0,0,1,.19.17M29,38.94a9.64,9.64,0,0,1,.66,1.64c0,.26.36,1.33.63,2.17l.36,1.07a1.8,1.8,0,0,1,.28,1.28.7.7,0,0,1,0,.14,1.65,1.65,0,0,1-.14.36c-.48,1-.6,2.08-3.1,2l-.61,0m4.2-9.93c1.43-.19,1.7-2,1.74-2.52,0-.08-.13-.56-.13-.56s-.12-.54-.24-1a25.6,25.6,0,0,0-1.53-2.33M30.89,31s-.22-.92.16-1.09l.05-.05a3.43,3.43,0,0,0,.28-.27c.12-.13.39-.46.56-.47a.91.91,0,0,0,.47-.31,1.18,1.18,0,0,1,1-.53,15.49,15.49,0,0,1,2,.26,7.44,7.44,0,0,0,1,.65,1.83,1.83,0,0,1,.28,0,.72.72,0,0,1,.59.45.45.45,0,0,1,0,.65s.6.35.69.64.17.85-.34,1c0,0-.63.07-.74.07s0-.26-.18-.3a.49.49,0,0,0-.42.06,6,6,0,0,1-.79.46c-.14,0-.4.09-.43.17s-.14.28-.66.55l-1.92.44m.54.24a3.66,3.66,0,0,0,.4.65,1.68,1.68,0,0,0,1.4.42c.2-.06.25-.21.37-.24s.26-.18.4-.2.31-.34.31-.34.47.11.48-.17,0-1,0-1A1.15,1.15,0,0,0,37,32M35.4,34.2l-.18-.15M36,33.9s-.35-.11-.35-.22m-8,4.7a1.57,1.57,0,0,0,1.31.49h0a3.29,3.29,0,0,0,2.21-1.3c.44-.84.77-2-.53-3.61m6.88-9.68a1.07,1.07,0,0,0,.37,1c.06.1.13.24.13.24a.93.93,0,0,0,.47-.06A1.66,1.66,0,0,0,39,25.1c.37-.28.07-.55.16-.85A.6.6,0,0,0,39,23.7a.11.11,0,0,0,.11-.1c0-.11-.29-.34-.33-.36s0-.17,0-.31a2.41,2.41,0,0,1-.15-.51c0-.05-.07-.33-.08-.36a.62.62,0,0,0-.35-.44c0-.2-.25-.36-.25-.36.06-.44-.38-.38-.43-.58S37,20.3,37,20.3a1,1,0,0,0-.63-.33,3.23,3.23,0,0,0-.86.24.93.93,0,0,0-.59.06.93.93,0,0,0-1,.54,1.85,1.85,0,0,0-.51.54,19.35,19.35,0,0,0-.58,2.06c-.08.57,0,.44-.1.59s-1.18,1.22-.63,1.61.7.46.8.71,1.66.46,2,.3.53-1.25.53-1.25a2.44,2.44,0,0,0,0-.83c0-.13-.08-.26-.13-.38A2.63,2.63,0,0,1,35,23.11a1.28,1.28,0,0,0-.27-.76,1,1,0,0,1-.31-.79,1.71,1.71,0,0,1,.55-1,1.93,1.93,0,0,1,1.43-.16l.38.33c.06.05.31.21.48.35a.8.8,0,0,1,.24.4m.42.57c0,.09.14.93.14,1s.24.69.08.83a4.09,4.09,0,0,1-.67.38A7,7,0,0,1,35.21,24m-3.1,1.66s-2.29,1.32-1.84,5m6.4-4.07,0,2.6M32.28,42.19s-.22-3.16-.14-3.61m3-21.58s0-.81.23-1a1.92,1.92,0,0,1,.79-.44.6.6,0,0,1,.35,0c.41.17,1.58.7,1.87,1.38a.85.85,0,0,1,0,.87.68.68,0,0,1-.25.21,3.67,3.67,0,0,1-.7.2m3-5.64h0m-4.28,2.8a1.45,1.45,0,0,1,.28-1.61c.71-.84.94-1,1.24-1l.82-.11a1.81,1.81,0,0,1,1.93-.1m-1.87,9.59s.5-1.14.54-1.21a3.85,3.85,0,0,0,0-3.47c-.13-.34-.65.29-.68.32h0m5.32,1.54s-.14.66-.24.62-.37-.49-.37-.49l.29-1,.13-1.26v0l1-1.61a1.72,1.72,0,0,0-.22-.8,1.89,1.89,0,0,1-.48-.63c0-.14-.14-.61-.14-.61s-.72.59-.88.68-.69,0-.83,0a.7.7,0,0,0-.55.24c-.08.17-.36.67-.44.78a2.6,2.6,0,0,0-.17.89.66.66,0,0,1-.12.34,1.64,1.64,0,0,0-.17.26c-.06.18,0,.35.06.64a3.07,3.07,0,0,1-.05.9c0,.13-.28.14-.33.13a2,2,0,0,0-.36.18s.06-.39.08-.49a5.91,5.91,0,0,0-.3-.85,15.92,15.92,0,0,1-.24-1.86,9.6,9.6,0,0,1,.35-1.3,4.84,4.84,0,0,1,.4-1.07,2.24,2.24,0,0,1,.28-.37h0A5.26,5.26,0,0,1,41,12a6.31,6.31,0,0,1,1.09-.35,2.41,2.41,0,0,1,1.73.51s.69,0,.89.46A5,5,0,0,1,45.28,14a3.08,3.08,0,0,0-.14.54,4.2,4.2,0,0,1-.11.95l0,.07a.85.85,0,0,0-.07.4c0,.16.17.68.08.78s-.25.21-.26.31,0,.56-.15.68a.59.59,0,0,0-.22.38c0,.09.13.68-.07.94a1.25,1.25,0,0,1-.19.2h0a.4.4,0,0,0-.24.06Zm-3-2.93s.34,1.19,1,1.35a3.1,3.1,0,0,0,1.77-.57m5.09,2.26v-.12M45.1,15.55a6.43,6.43,0,0,1,3,2.61,3.49,3.49,0,0,1,.44,1.14v.18h0m.9,1a3.15,3.15,0,0,0-.93-.94,5.23,5.23,0,0,0-1.17-.65m-3.25.33s-.32,1.28,1.43,2.53M41,25.48l-1.81-.86M40.29,43.2a1.79,1.79,0,0,0,.32-1.51c-.27-1.14-.22-1.39-.12-1.73S42,38.05,43,36.28q.16-.28.3-.57a4.71,4.71,0,0,0,.59-2.27l.86-1.85h0M38.4,47.23l-.27,1.4.55-1.46,1-2.58L41,48l-.72-4.78,0-.5a1,1,0,0,0-.73.42,6.41,6.41,0,0,0-.56,1.56,2.2,2.2,0,0,1-.23.58h0c-.3,0-.27-.42-.27-.42L38.28,43a.77.77,0,0,1-.23-.25,2,2,0,0,1-.11-1.08,5,5,0,0,1,.64-1.5c.13-.27.36-1,.58-1.71s.48-1.69.48-1.69a12.09,12.09,0,0,1,.5-2.35,2.9,2.9,0,0,1,1-1.57,3.15,3.15,0,0,0,.37-.81m-2.79,13.2-.27,2m3.33-19a1.37,1.37,0,0,1-.29.51c-.14.11-.85,1-.71,1.62s.43,1.63.43,1.63l.29,0,2.69-.33a3.09,3.09,0,0,0,.41-.13,1.89,1.89,0,0,0,.75-.44c.33-.38,1.27-1.92,1.27-1.92M34,48.27l4.2,1.38L46,47.42l-4.47-.92-2.85.67-.28.06-4.43,1h0m0,0v1.1l4.25,1.43L46,48.52v-1.1m-7.83,2.23v1.08m3.06-24.41a.39.39,0,0,1-.16-.4c.06-.24-.19-.68,0-.79s.15-.42.3-.67a.49.49,0,0,1,.36-.27c.52-.11.31-.6.69-.72s.73-.4.87-.39a6.07,6.07,0,0,0,.77-.23,3.81,3.81,0,0,1,.4-.05,1.1,1.1,0,0,1,.49,0,3.93,3.93,0,0,0,.56.26,2.24,2.24,0,0,0,.42.13c.17,0,.82.27.94.28s.51,0,.47.18-.14.29-.05.32.33.18.31.26-.16.27-.13.37.28.47.33.59.06.31,0,.39-.18.15-.11.22a.28.28,0,0,1,0,.31,3.15,3.15,0,0,0-.25.33,4.25,4.25,0,0,1-.39.5c-.11.08-.41,0-.45.18s-.47.27-.57.26-.64.34-.73.13a1.36,1.36,0,0,1,0-.71c0-.13.2-.24.24-.35a.41.41,0,0,0,0-.31c0-.05-.31-.27-.1-.5A6,6,0,0,0,46,24.4a.58.58,0,0,0,0-.5,4.87,4.87,0,0,0-.68-.4,4.65,4.65,0,0,0-.93-.18,1.94,1.94,0,0,0-.78.08c-.17.1-.61.27-.7.33s-.44.39-.44.39l-.49.41a2.79,2.79,0,0,0-.64,1.8,4.89,4.89,0,0,0,0,.91,2.17,2.17,0,0,0,.41,1c.1.11.82.67.82.67l.35.06a.49.49,0,0,1,.36.27c.09.2.31,1,.74.84l.31-.29.54.22c.07,0,.79.39,1.64-.83a4,4,0,0,0,.27-.43,14.49,14.49,0,0,1,.61-1.35c.08,0,.35-.21.44-.24a2.57,2.57,0,0,0,1.27-1.62s0-.18,0-.43m-.83,3.14c0,.25-.42,1.66-.45,2a1.75,1.75,0,0,0,.06.95,5.76,5.76,0,0,1,.33,1.69,20.07,20.07,0,0,1-.36,2.06c0,.12,0,.21-.07.28l-.07.33-.53,1.14s-.88,1.7-1,2.09a4.38,4.38,0,0,0-.13,3.6l.29,1.07c.5,1.55.67,1.69,1.23,1.78M49,39.55a20.06,20.06,0,0,1-.58,3.34,6.07,6.07,0,0,0-.54,1.66,4.88,4.88,0,0,1-.31,1.29,3.93,3.93,0,0,0-.25.61,1,1,0,0,0,0,.43c0,.4.06.74.35.78a2.67,2.67,0,0,0,.74-.06,3.17,3.17,0,0,0,.63.16,1.22,1.22,0,0,0,.61,0c.16-.1.46-.21.59-.31s.51-.43.5-.68a4.46,4.46,0,0,0-.62-1.14L50,45.32a2.73,2.73,0,0,1,0-1.55c.28-.57,3.44-5,3.22-8.08m1.85-.44a3,3,0,0,0-1.87.4h0a1.79,1.79,0,0,0-.44.43,30.76,30.76,0,0,1-3.8,3.4c-.44.36-.81.65-1,.81a6.69,6.69,0,0,0-.5.67,25.26,25.26,0,0,1,5.31-13.18m-8.31-5.11a3.26,3.26,0,0,1,1.14-.88C45.75,21.71,49,20,52,20.53m-2.92,3.69c0-.1.88-2.83,2.57-3.53A1.68,1.68,0,0,1,53,20.63c.36.16,1.38-.24,2.55.66l.94-.29a2.05,2.05,0,0,1,2.4,2c0,.86-1.17,2-1.17,2l-1.2,1a7,7,0,0,1-2,1.48,2.2,2.2,0,0,1-1.77.34c-1.87-.39-3.61-2.67-3.61-2.67m2,18.9a5.72,5.72,0,0,0,2.14,1.56m-8.51-15.7.27-.17m-6.44,3.09s-.11-1.42-.08-2c0-.31.35-1.85.64-3.18M39.74,32s-2.3.93-1.36,3.07m.2-.05c-.4.54-.37.49-.43.63a9.52,9.52,0,0,0-.23,1,.7.7,0,0,1-.08.4c-.06,0-.4.27-.43.22s-.33-.47-.46-.49-.34,0-.25.13-.52.09-.1.45l.41.36a2.07,2.07,0,0,0,.61.38.77.77,0,0,0,.82-.29M38.58,35h0m1.53-.61a.76.76,0,0,0-1,.15l-.5.46h0m-.13,1.51c0,.15-.15.72.19.77A.33.33,0,0,0,39,37a1.74,1.74,0,0,1,.21-.61m-.62,1s0,.25-.07.51a2.53,2.53,0,0,1-.13.52,1.59,1.59,0,0,0-.2.75s.16.51.42.14l.27-.36.28-.45m2.59-21.32a.85.85,0,0,0,.44.17M42,16.78s0,.07.26.09M37.21,23a2.55,2.55,0,0,0,.68-.26m-2.41-.9s.48-.65.72-.46m-.23.21.05.08m-.21,11.25-.15.13M32.3,17.12l-.11.16m9.58-1.62,0,.13m1.63.46,0,.2m.94,12.2.13.15m-.63-.08,1.14-.24m8.73-.63-1,4m1.91-4.52c-6.51-1.74-2.26-6-1.6-6.66M32,16.84l.7.47m8.7-1.91a2,2,0,0,0,.83.25m.88.47a2,2,0,0,0,.83.25M36.1,33s-.47-.13-.58-.32m-5-10.6.27,0,.77.11c.08,0,.7.12.7.12.06.17-.3.3-.3.3l-.66.11.2.33c.21.34-.25.6-.25.6.13.64-.27.83-.27.83a1.48,1.48,0,0,1-1.66-.19,2.09,2.09,0,0,0-.3-.15c-.44-.18-.32-.59-.33-1a1.65,1.65,0,0,1,.27-.92,2.29,2.29,0,0,1,.66-.34l.45.12.45.12h0s.21.32.11.38-.45.23-.6.15l-.15-.08m8.85-6.39.41,1.59M56.67,45.57s-2.49-.48-2.59-4.45m-23.15-.18s2.31,2.45,3.07,2.54m1.25-6c-.08,1.22-.17,2.1-.17,2.1a18.71,18.71,0,0,1-1.08,4,7.12,7.12,0,0,0,1.79-.32c.86-.28,1.41-1,2.23-.48m5.28-6.95a24.71,24.71,0,0,1,3-.47h0c.92-.08,1.48-.08,1.48-.08m-4.58.62s0,2.64,0,2.85A2.9,2.9,0,0,1,43,40.09a2.57,2.57,0,0,0-.48,1.22,2.74,2.74,0,0,1,0,.83c-.05.13-.31.94-.31.94s-.11.68.52.76a4.12,4.12,0,0,0,1.8-.08c.34-.17.6-.5.5-.72s-.34-.37-.5-.58a1.29,1.29,0,0,1-.3-.86,2,2,0,0,0,.1-.49,2.29,2.29,0,0,1,.11-.94c.15-.2,1.21-1.82,1.21-1.82a6.76,6.76,0,0,0,.68-3M36.8,17.81l-.2-.35a1.59,1.59,0,0,1-.11-.2.23.23,0,0,1,0-.27c.08-.12.29,0,.32,0a2.21,2.21,0,0,0,.31.3c.16.13.14,0,.28.63a1,1,0,0,1,0,.32c-.05.32-.43.26-.84.53a1.08,1.08,0,0,1-1.12,0s-.85-.8-.9-.89-.14-.07-.22,0,0,.09-.36.1a.56.56,0,0,1-.53-.29c0-.09.42-.28.42-.28a2.78,2.78,0,0,1,1-.34l.24,0a1.25,1.25,0,0,1,.94.15l.48.28m-22.06,18s-1.4-.3-1.45-.48a.17.17,0,0,1,0-.17,2.66,2.66,0,0,0,.38-.46,2.73,2.73,0,0,0,.18-.38c.2-.42.52-1.14.52-1.14.29-.74.24-.87.24-.87l.32-4a4.25,4.25,0,0,1,1.11-2.84m7,.18a23.79,23.79,0,0,1-4.31.2,13.93,13.93,0,0,1-1.72-.21,8.82,8.82,0,0,1-.92-.22L15.41,25s-.93.34-1.22,2.72A19.5,19.5,0,0,1,13.77,31a11.22,11.22,0,0,1-1.84,2.51.51.51,0,0,0,.08.75l.91.63M58.35,24.32a24.11,24.11,0,0,1,1.19,5.82,30.36,30.36,0,0,1-1.13,11c-.4,1.65.25,4,1,4.17,0,0-2.83.31-4,.26-.51,0-.57,0-1.14,0a37.53,37.53,0,0,1-4.12-.28"/><path class="cls-7" d="M47.84,40.39s-1.28,1,.64,1.6"/><path class="cls-6" d="M58.18,28.53a11.56,11.56,0,0,1,0,3.72c-.34,2,.38,7.75.23,8.91"/></g><line class="cls-6" x1="54.06" y1="23.46" x2="55.16" y2="22.36"/><g class="cls-3"><path class="cls-6" d="M38.58,31.14s1-3.06,1.61-3.3M30.12,32.23s2.32.91,2.67,2m-9.48-7.55a8.65,8.65,0,0,0,.18,2.49c.31,1.45.73,2.79.73,2.79m11-5.55s2.26.5,2.75-1.11m-5.3,11.17a13.52,13.52,0,0,1-.56,2.23s-.21.58-.46,1.08S30,41.68,30,41.68M26.57,34.2a2.46,2.46,0,0,1,1.88-.69s.57,0,1,0m17.79-10a1.53,1.53,0,0,1,1.89,1.58M37.49,22.37c.41-.21.47-.47.47-.47a6.4,6.4,0,0,0-1-.57c-.35-.15,0-.43,0-.43m10.23,6.26a10.18,10.18,0,0,1-.36,1.48m.74-.43,2.5-.13A2.51,2.51,0,0,0,51,27.8m1.57,11.52c1.48,1.67,3.12,3.37,3.12,3.37M49.37,31a13.15,13.15,0,0,0,.1,2.11"/></g><line class="cls-6" x1="33.08" y1="33.92" x2="32.82" y2="34.14"/><g class="cls-3"><path class="cls-8" d="M156.32,47.24a3.6,3.6,0,0,0,2.93,1.27c2,0,3.24-1.17,3.24-2.73a2.81,2.81,0,0,0-1.73-2.38v0a2.64,2.64,0,0,0,1.47-2.25,2.72,2.72,0,0,0-3-2.62,3.89,3.89,0,0,0-2.65,1.26.26.26,0,0,0,0,.37l.53.47a.23.23,0,0,0,.37,0,2.2,2.2,0,0,1,1.66-.8,1.57,1.57,0,0,1,1.64,1.56c0,.85-.68,1.54-2,1.54H158c-.2,0-.28.08-.28.3v.61c0,.2.11.3.27.3h.8c1.53,0,2.26.82,2.26,1.68a1.64,1.64,0,0,1-1.79,1.54,2.84,2.84,0,0,1-1.94-.88.25.25,0,0,0-.39,0l-.56.51a.25.25,0,0,0,0,.35m-4.3,0c-1.56,0-2.09-1.63-2-2.83a2.27,2.27,0,0,1,2-1.09,2,2,0,0,1,0,3.92m-3.36-2.72c0,2.21,1.08,4,3.38,4a3.26,3.26,0,0,0,3.19-3.28,3,3,0,0,0-3-3.1,4.19,4.19,0,0,0-1.91.52c.48-1.76,2.75-2.94,3.41-3.16.27-.09.33-.24.26-.41l-.24-.59a.26.26,0,0,0-.36-.17c-1.32.5-4.74,2.19-4.74,6.18m-6.6,1.29a1.82,1.82,0,0,1,3.63,0,1.64,1.64,0,0,1-1.83,1.56,1.67,1.67,0,0,1-1.8-1.56m1.82-3.09c-1.12-.17-1.61-.76-1.61-1.53a1.51,1.51,0,0,1,1.56-1.51,1.53,1.53,0,0,1,1.65,1.51c0,.75-.5,1.37-1.6,1.53m-3.31,3.06c0,1.56,1.27,2.75,3.28,2.75s3.33-1.19,3.33-2.75a2.87,2.87,0,0,0-1.73-2.39v-.06a2.62,2.62,0,0,0,1.48-2.2c0-1.58-1.31-2.62-3.07-2.62a2.74,2.74,0,0,0-3,2.62,2.63,2.63,0,0,0,1.47,2.22v0a3,3,0,0,0-1.73,2.39m-6.87,2.61h5a.26.26,0,0,0,.27-.26v-.62a.26.26,0,0,0-.27-.27H137.1V38.9a.27.27,0,0,0-.25-.27h-.71L134,40.56a.27.27,0,0,0,0,.29l.17.5a.21.21,0,0,0,.31.1l1.25-.63v6.4h-2a.27.27,0,0,0-.28.27v.62a.27.27,0,0,0,.28.26m-13-5a3.72,3.72,0,1,1,3.71,3.71,3.72,3.72,0,0,1-3.71-3.71m-1.43,0a5.15,5.15,0,1,0,5.14-5.17,5.11,5.11,0,0,0-5.14,5.17M108.85,48.1a.28.28,0,0,0,.27.27h.9a.28.28,0,0,0,.28-.27v-7h0l6.21,7.39h.38a.27.27,0,0,0,.27-.26V38.62a.28.28,0,0,0-.27-.28H116a.27.27,0,0,0-.27.28v6.77h0l-6.22-7.19h-.36a.27.27,0,0,0-.27.26ZM100.93,45,102.68,41h.07L104.51,45Zm-2.66,3.41h.9a.36.36,0,0,0,.33-.22c.29-.66.59-1.3.87-2h4.69l.88,2a.34.34,0,0,0,.33.22h.91a.25.25,0,0,0,.24-.37l-4.37-9.64a.32.32,0,0,0-.24-.16h-.14a.34.34,0,0,0-.25.16L98,48a.25.25,0,0,0,.24.37m-6.76-.27a.28.28,0,0,0,.27.27h5.1a.27.27,0,0,0,.27-.27v-.79a.27.27,0,0,0-.27-.27H93V38.62a.28.28,0,0,0-.27-.28h-1a.28.28,0,0,0-.27.28Zm-4.27,0a.28.28,0,0,0,.28.27h.94a.28.28,0,0,0,.27-.27V38.62a.28.28,0,0,0-.27-.28h-.94a.29.29,0,0,0-.28.28ZM74.12,48a.26.26,0,0,0,.27.33h.93a.29.29,0,0,0,.26-.2l1-6.4h0l2.6,6.58a.24.24,0,0,0,.24.16h.26a.24.24,0,0,0,.24-.16l2.58-6.58h0l1.06,6.4a.29.29,0,0,0,.27.2h.93a.25.25,0,0,0,.26-.33l-1.76-9.62a.29.29,0,0,0-.26-.22h-.23a.27.27,0,0,0-.24.16l-3,7.32h-.06l-3-7.32a.29.29,0,0,0-.24-.16h-.23a.29.29,0,0,0-.26.22Z"/><path class="cls-8" d="M194.69,24.41a4.7,4.7,0,1,1,4.68,4.68,4.74,4.74,0,0,1-4.68-4.68m-2.66,0A7.36,7.36,0,1,0,199.37,17,7.29,7.29,0,0,0,192,24.41m-14.26,0a7.34,7.34,0,0,0,7.39,7.34,7,7,0,0,0,5-2,.39.39,0,0,0,0-.55l-1.27-1.31a.36.36,0,0,0-.51,0,4.93,4.93,0,0,1-3.13,1.16,4.75,4.75,0,0,1,0-9.49,4.82,4.82,0,0,1,3.15,1.21.33.33,0,0,0,.51,0l1.25-1.29a.38.38,0,0,0,0-.57,6.93,6.93,0,0,0-5-1.91,7.38,7.38,0,0,0-7.39,7.39m-5.35,6.75a.4.4,0,0,0,.38.39h1.91a.4.4,0,0,0,.38-.39V17.62a.4.4,0,0,0-.38-.39H172.8a.4.4,0,0,0-.38.39Zm-15.61,0a.4.4,0,0,0,.39.39h1.86a.4.4,0,0,0,.39-.39v-8.8h0L168,31.75h.49a.39.39,0,0,0,.39-.37V17.62a.4.4,0,0,0-.39-.39h-1.88a.38.38,0,0,0-.39.39v8.45h0l-8.51-9h-.51a.39.39,0,0,0-.39.37Zm-15.08-6.75a7.34,7.34,0,0,0,7.39,7.34,7,7,0,0,0,5-2,.39.39,0,0,0,0-.55l-1.27-1.31a.36.36,0,0,0-.51,0,4.93,4.93,0,0,1-3.13,1.16,4.75,4.75,0,0,1,0-9.49,4.84,4.84,0,0,1,3.15,1.21.33.33,0,0,0,.51,0l1.25-1.29a.38.38,0,0,0,0-.57A6.93,6.93,0,0,0,149.12,17a7.38,7.38,0,0,0-7.39,7.39m-11.19,6.75a.4.4,0,0,0,.39.39h8.33a.4.4,0,0,0,.39-.39V29.48a.4.4,0,0,0-.39-.39H133.2V25.51h5.06a.38.38,0,0,0,.38-.39V23.43a.4.4,0,0,0-.38-.39H133.2V19.68h6.06a.39.39,0,0,0,.39-.39V17.62a.39.39,0,0,0-.39-.39h-8.33a.39.39,0,0,0-.39.39Zm-8.53,0a.41.41,0,0,0,.39.39h1.91a.4.4,0,0,0,.38-.39V19.68h3.13a.38.38,0,0,0,.39-.39V17.62a.38.38,0,0,0-.39-.39h-8.93a.38.38,0,0,0-.39.39v1.67a.38.38,0,0,0,.39.39H122Zm-8.77,0a.4.4,0,0,0,.39.39h1.9a.4.4,0,0,0,.39-.39V17.62a.4.4,0,0,0-.39-.39h-1.9a.4.4,0,0,0-.39.39Zm-10.94,0a.39.39,0,0,0,.39.39h7.48a.39.39,0,0,0,.39-.39V29.48a.39.39,0,0,0-.39-.39H105V17.62a.4.4,0,0,0-.39-.39h-1.88a.38.38,0,0,0-.39.39ZM88.1,24.41a4.7,4.7,0,1,1,4.69,4.68,4.74,4.74,0,0,1-4.69-4.68m-2.66,0A7.36,7.36,0,1,0,92.79,17a7.3,7.3,0,0,0-7.35,7.39m-8.67-.55V19.74h2.37a2,2,0,0,1,2.11,2,2.11,2.11,0,0,1-2.11,2.13Zm-2.66,7.3a.39.39,0,0,0,.39.39h1.88a.4.4,0,0,0,.39-.39V26.35h2.56a4.56,4.56,0,1,0,0-9.12H74.5a.38.38,0,0,0-.39.39Z"/></g></svg>