<svg xmlns="http://www.w3.org/2000/svg" xmlns:xlink="http://www.w3.org/1999/xlink" width="360" height="640" viewBox="0 0 360 640"><defs><clipPath id="a"><rect width="360" height="576" fill="none"/></clipPath><filter id="b" x="-9" y="-5.609" width="378" height="73.609" filterUnits="userSpaceOnUse"><feOffset dy="3" input="SourceAlpha"/><feGaussianBlur stdDeviation="3" result="c"/><feFlood flood-opacity="0.161"/><feComposite operator="in" in2="c"/><feComposite in="SourceGraphic"/></filter><filter id="d" x="-14.8" y="569" width="390" height="86" filterUnits="userSpaceOnUse"><feOffset input="SourceAlpha"/><feGaussianBlur stdDeviation="5" result="e"/><feFlood flood-opacity="0.102"/><feComposite operator="in" in2="e"/><feComposite in="SourceGraphic"/></filter><clipPath id="f"><rect width="24" height="24" fill="none"/></clipPath><clipPath id="i"><rect width="360" height="640"/></clipPath></defs><g id="h" clip-path="url(#i)"><rect width="360" height="640" fill="#333"/><g transform="translate(0 56)" clip-path="url(#a)"><rect width="360" height="48" fill="#fafafa"/><rect width="344" height="1" transform="translate(16 47)" fill="#e3e3e3"/><text transform="translate(16 29)" fill="rgba(0,0,0,0.87)" font-size="16" font-family="Roboto-Regular, Roboto" letter-spacing="0.01em"><tspan x="0" y="0">Parking on bike lanes</tspan></text><text transform="translate(343.833 28)" fill="rgba(0,0,0,0.6)" font-size="12" font-family="Roboto-Regular, Roboto" letter-spacing="0.033em"><tspan x="-14.525" y="0">#1</tspan></text><g transform="translate(0 48)"><rect width="360" height="48" fill="#fafafa"/><rect width="344" height="1" transform="translate(16 47)" fill="#e3e3e3"/><text transform="translate(16 29)" fill="rgba(0,0,0,0.87)" font-size="16" font-family="Roboto-Regular, Roboto" letter-spacing="0.01em"><tspan x="0" y="0">Parking on reserved stalls</tspan></text><text transform="translate(343.833 28)" fill="rgba(0,0,0,0.6)" font-size="12" font-family="Roboto-Regular, Roboto" letter-spacing="0.033em"><tspan x="-14.525" y="0">#2</tspan></text></g><g transform="translate(0 96)"><rect width="360" height="48" fill="#fafafa"/><rect width="344" height="1" transform="translate(16 47)" fill="#e3e3e3"/><text transform="translate(16 29)" fill="rgba(0,0,0,0.87)" font-size="16" font-family="Roboto-Regular, Roboto" letter-spacing="0.01em"><tspan x="0" y="0">Double parking</tspan></text><text transform="translate(343.833 28)" fill="rgba(0,0,0,0.6)" font-size="12" font-family="Roboto-Regular, Roboto" letter-spacing="0.033em"><tspan x="-14.525" y="0">#3</tspan></text></g><g transform="translate(0 144)"><rect width="360" height="48" fill="#fafafa"/><rect width="344" height="1" transform="translate(16 47)" fill="#e3e3e3"/><text transform="translate(16 29)" fill="rgba(0,0,0,0.87)" font-size="16" font-family="Roboto-Regular, Roboto" letter-spacing="0.01em"><tspan x="0" y="0">Parking on pedestrian crossing</tspan></text><text transform="translate(343.833 28)" fill="rgba(0,0,0,0.6)" font-size="12" font-family="Roboto-Regular, Roboto" letter-spacing="0.033em"><tspan x="-14.525" y="0">#4</tspan></text></g><g transform="translate(0 192)"><rect width="360" height="48" fill="#fafafa"/><rect width="344" height="1" transform="translate(16 47)" fill="#e3e3e3"/><text transform="translate(16 29)" fill="rgba(0,0,0,0.87)" font-size="16" font-family="Roboto-Regular, Roboto" letter-spacing="0.01em"><tspan x="0" y="0">Parking on sidewalks</tspan></text><text transform="translate(343.833 28)" fill="rgba(0,0,0,0.6)" font-size="12" font-family="Roboto-Regular, Roboto" letter-spacing="0.033em"><tspan x="-14.525" y="0">#5</tspan></text></g><g transform="translate(0 240)"><rect width="360" height="48" fill="#fafafa"/><rect width="344" height="1" transform="translate(16 47)" fill="#e3e3e3"/><text transform="translate(16 29)" fill="rgba(0,0,0,0.87)" font-size="16" font-family="Roboto-Regular, Roboto" letter-spacing="0.01em"><tspan x="0" y="0">Parking on traffic island</tspan></text><text transform="translate(343.833 28)" fill="rgba(0,0,0,0.6)" font-size="12" font-family="Roboto-Regular, Roboto" letter-spacing="0.033em"><tspan x="-14.525" y="0">#6</tspan></text></g><g transform="translate(0 288)"><rect width="360" height="48" fill="#fafafa"/><rect width="344" height="1" transform="translate(16 47)" fill="#e3e3e3"/><text transform="translate(16 29)" fill="rgba(0,0,0,0.87)" font-size="16" font-family="Roboto-Regular, Roboto" letter-spacing="0.01em"><tspan x="0" y="0">Parking on red zone</tspan></text><text transform="translate(343.833 28)" fill="rgba(0,0,0,0.6)" font-size="12" font-family="Roboto-Regular, Roboto" letter-spacing="0.033em"><tspan x="-14.525" y="0">#7</tspan></text></g><g transform="translate(0 336)"><rect width="360" height="48" fill="#fafafa"/><rect width="344" height="1" transform="translate(16 47)" fill="#e3e3e3"/><text transform="translate(16 29)" fill="rgba(0,0,0,0.87)" font-size="16" font-family="Roboto-Regular, Roboto" letter-spacing="0.01em"><tspan x="0" y="0">Parking not payed</tspan></text><text transform="translate(343.833 28)" fill="rgba(0,0,0,0.6)" font-size="12" font-family="Roboto-Regular, Roboto" letter-spacing="0.033em"><tspan x="-14.525" y="0">#8</tspan></text></g><g transform="translate(0 384)"><rect width="360" height="48" fill="#fafafa"/><rect width="344" height="1" transform="translate(16 47)" fill="#e3e3e3"/><text transform="translate(16 29)" fill="rgba(0,0,0,0.87)" font-size="16" font-family="Roboto-Regular, Roboto" letter-spacing="0.01em"><tspan x="0" y="0">Traffic lights violations</tspan></text><text transform="translate(343.833 28)" fill="rgba(0,0,0,0.6)" font-size="12" font-family="Roboto-Regular, Roboto" letter-spacing="0.033em"><tspan x="-14.525" y="0">#9</tspan></text></g><g transform="translate(0 432)"><rect width="360" height="48" fill="#fafafa"/><rect width="344" height="1" transform="translate(16 47)" fill="#e3e3e3"/><text transform="translate(16 29)" fill="rgba(0,0,0,0.87)" font-size="16" font-family="Roboto-Regular, Roboto" letter-spacing="0.01em"><tspan x="0" y="0">Speed violations</tspan></text><text transform="translate(343.833 28)" fill="rgba(0,0,0,0.6)" font-size="12" font-family="Roboto-Regular, Roboto" letter-spacing="0.033em"><tspan x="-21.662" y="0">#10</tspan></text></g><g transform="translate(0 480)"><rect width="360" height="48" fill="#fafafa"/><rect width="344" height="1" transform="translate(16 47)" fill="#e3e3e3"/><text transform="translate(16 29)" fill="rgba(0,0,0,0.87)" font-size="16" font-family="Roboto-Regular, Roboto" letter-spacing="0.01em"><tspan x="0" y="0">Against traffic violations</tspan></text><text transform="translate(343.833 28)" fill="rgba(0,0,0,0.6)" font-size="12" font-family="Roboto-Regular, Roboto" letter-spacing="0.033em"><tspan x="-21.662" y="0">#11</tspan></text></g><g transform="translate(0 528)"><rect width="360" height="48" fill="#fafafa"/><rect width="344" height="1" transform="translate(16 47)" fill="#e3e3e3"/><text transform="translate(16 29)" fill="rgba(0,0,0,0.87)" font-size="16" font-family="Roboto-Regular, Roboto" letter-spacing="0.01em"><tspan x="0" y="0">Other violations</tspan></text><text transform="translate(343.833 28)" fill="rgba(0,0,0,0.6)" font-size="12" font-family="Roboto-Regular, Roboto" letter-spacing="0.033em"><tspan x="-21.662" y="0">#12</tspan></text></g></g><g transform="translate(0 -24)"><g transform="matrix(1, 0, 0, 1, 0, 24)" filter="url(#b)"><path d="M360,0H0V55.609H360Z" transform="translate(0 0.39)" fill="#ffab00" fill-rule="evenodd"/></g><path d="M12,0H0V-24H12Z" transform="translate(332 64)" fill="none" fill-rule="evenodd"/><text transform="translate(65 59)" fill="#333" font-size="20" font-family="Roboto-Medium, Roboto" font-weight="500"><tspan x="0" y="0">Most common violations</tspan></text><g transform="translate(287 40)"><path d="M7,10l5,5,5-5Z"/><path d="M0,0H24V24H0Z" fill="none"/></g><rect width="24" height="24" transform="translate(16 40)" fill="none"/><path d="M3,18H21V16H3v2Zm0-5H21V11H3v2ZM3,6V8H21V6Z" transform="translate(16 40)" fill="#333" fill-rule="evenodd"/></g><g transform="translate(0 584)"><g transform="matrix(1, 0, 0, 1, 0, -584)" filter="url(#d)"><rect width="360" height="56" transform="translate(0.2 584)" fill="#333"/></g><text transform="translate(28.731 45.969)" fill="#fafafa" font-size="12" font-family="Roboto-Regular, Roboto"><tspan x="0" y="0">New Report</tspan></text><rect width="120" height="56" transform="translate(0 0)" fill="none"/><g transform="translate(47 11)"><path d="M0,0H24V24H0Z" fill="none"/><path d="M14.12,4l1.83,2H20V18H4V6H8.05L9.88,4h4.24M15,2H9L7.17,4H4A2.006,2.006,0,0,0,2,6V18a2.006,2.006,0,0,0,2,2H20a2.006,2.006,0,0,0,2-2V6a2.006,2.006,0,0,0-2-2H16.83ZM12,9a3,3,0,1,1-3,3,3.009,3.009,0,0,1,3-3m0-2a5,5,0,1,0,5,5A5,5,0,0,0,12,7Z" fill="#fafafa"/></g><g transform="translate(240.2)"><text transform="translate(34.789 45.969)" fill="#ffab00" font-size="12" font-family="Roboto-Regular, Roboto"><tspan x="0" y="0">Statistics</tspan></text><rect width="120" height="56" fill="none"/><g transform="translate(47.8 11)" clip-path="url(#f)"><rect width="24" height="24" fill="none"/><path d="M16,0H2A2.006,2.006,0,0,0,0,2V16a2.006,2.006,0,0,0,2,2H16a2.006,2.006,0,0,0,2-2V2A2.006,2.006,0,0,0,16,0Zm0,16H2V2H16ZM6,14H4V7H6Zm4,0H8V4h2Zm4,0H12V10h2Z" transform="translate(3 3)" fill="#ffab00"/></g></g><g transform="translate(120.4)"><text transform="translate(59.677 45.969)" fill="#fafafa" font-size="12" font-family="Roboto-Regular, Roboto"><tspan x="-29.232" y="0">Around me</tspan></text><g transform="translate(47.6 9)" clip-path="url(#f)"><rect width="24" height="24" fill="none"/><path d="M297.9,57.8a2.5,2.5,0,1,1,2.5-2.5A2.54,2.54,0,0,1,297.9,57.8Zm0-9.5a6.957,6.957,0,0,0-7,7c0,4.2,4.4,9.9,6.2,12.1a.938.938,0,0,0,1.5,0c1.8-2.2,6.2-7.9,6.2-12.1A6.812,6.812,0,0,0,297.9,48.3Z" transform="translate(-286 -46)" fill="#fafafa"/></g><rect width="120" height="56" fill="none"/></g></g></g></svg>