<svg xmlns="http://www.w3.org/2000/svg" xmlns:xlink="http://www.w3.org/1999/xlink" width="360" height="640" viewBox="0 0 360 640"><defs><filter id="a" x="-4.5" y="363.5" width="369" height="282" filterUnits="userSpaceOnUse"><feOffset dy="1" input="SourceAlpha"/><feGaussianBlur stdDeviation="1.5" result="b"/><feFlood flood-opacity="0.4"/><feComposite operator="in" in2="b"/><feComposite in="SourceGraphic"/></filter><filter id="c" x="307" y="587" width="42" height="42" filterUnits="userSpaceOnUse"><feOffset input="SourceAlpha"/><feGaussianBlur stdDeviation="1" result="d"/><feFlood flood-opacity="0.122"/><feComposite operator="in" in2="d"/><feComposite in="SourceGraphic"/></filter><filter id="e" x="307" y="589" width="42" height="42" filterUnits="userSpaceOnUse"><feOffset dy="2" input="SourceAlpha"/><feGaussianBlur stdDeviation="1" result="f"/><feFlood flood-opacity="0.239"/><feComposite operator="in" in2="f"/><feComposite in="SourceGraphic"/></filter><clipPath id="g"><rect width="233" height="25" fill="none"/></clipPath><clipPath id="h"><rect width="295" height="25" fill="none"/></clipPath><clipPath id="i"><rect width="335" height="32" fill="none"/></clipPath><filter id="j" x="251" y="124" width="96" height="42" filterUnits="userSpaceOnUse"><feOffset dy="2" input="SourceAlpha"/><feGaussianBlur stdDeviation="1" result="k"/><feFlood flood-opacity="0.239"/><feComposite operator="in" in2="k"/><feComposite in="SourceGraphic"/></filter><clipPath id="m"><rect width="360" height="640"/></clipPath></defs><g id="l" clip-path="url(#m)"><rect width="360" height="640" fill="#333"/><g transform="translate(0 -24)"><path d="M360,0H0V55.609H360Z" transform="translate(0 24.391)" fill="#ffab00" fill-rule="evenodd"/><path d="M12,0H0V-24H12Z" transform="translate(332 64)" fill="none" fill-rule="evenodd"/><text transform="translate(72 60)" fill="#333" font-size="20" font-family="Roboto-Medium, Roboto" font-weight="500"><tspan x="0" y="0">Optional informations</tspan></text><g transform="translate(16 40)"><rect width="24" height="24" fill="none"/><path d="M20,11H7.8l5.6-5.6L12,4,4,12l8,8,1.4-1.4L7.8,13H20Z" fill="#333"/></g></g><g transform="translate(-71 293)"><g transform="matrix(1, 0, 0, 1, 71, -293)" filter="url(#a)"><path d="M2,0H358a2,2,0,0,1,2,2V273a0,0,0,0,1,0,0H0a0,0,0,0,1,0,0V2A2,2,0,0,1,2,0Z" transform="translate(0 367)" fill="#eceff0"/></g><path d="M118.5,12.5v27" transform="translate(192 72)" fill="none" stroke="#37474f" stroke-width="1" fill-rule="evenodd" opacity="0.1"/><path d="M118.5,12.5v27" transform="translate(72 72)" fill="none" stroke="#37474f" stroke-width="1" fill-rule="evenodd" opacity="0.1"/><path d="M2,0H358a2,2,0,0,1,2,2V48a0,0,0,0,1,0,0H0a0,0,0,0,1,0,0V2A2,2,0,0,1,2,0Z" transform="translate(71 74)" fill="#e4e7e8" stroke="rgba(0,0,0,0)" stroke-width="1"/><text transform="translate(371 102)" fill="#37474f" font-size="14" font-family="Roboto-Regular, Roboto" opacity="0.8"><tspan x="-34.48" y="0">suggestion</tspan></text><text transform="translate(251 102)" fill="#37474f" font-size="14" font-family="Roboto-Medium, Roboto" font-weight="500"><tspan x="-34.802" y="0">suggestion</tspan></text><text transform="translate(131 102)" fill="#37474f" font-size="14" font-family="Roboto-Regular, Roboto" opacity="0.8"><tspan x="-34.48" y="0">suggestion</tspan></text><path d="M0,0H360V225H0Z" transform="translate(71 122)" fill="#eceff0"/><g transform="translate(-52 18)"><g transform="matrix(1, 0, 0, 1, 123, -311)" filter="url(#c)"><circle cx="18" cy="18" r="18" transform="translate(310 590)" fill="#4cb5ab"/></g><g transform="matrix(1, 0, 0, 1, 123, -311)" filter="url(#e)"><path d="M18,0A18,18,0,1,1,0,18,18,18,0,0,1,18,0Z" transform="translate(310 590)" fill="#ffab00"/></g><path d="M25.1,13.8v4H11.9l3.6-3.6-1.4-1.4-6,6,6,6,1.4-1.4-3.6-3.6H27.1v-6Z" transform="translate(432.9 279.2)" fill="#fff" fill-rule="evenodd"/></g><text transform="translate(353 323)" fill="#37474f" font-size="22" font-family="Roboto-Regular, Roboto" opacity="0.8"><tspan x="0" y="0">.</tspan></text><path d="M257,205a2.006,2.006,0,0,1-2,2H109a2.006,2.006,0,0,1-2-2V185a2.006,2.006,0,0,1,2-2H255a2.006,2.006,0,0,1,2,2v20Z" transform="translate(69 121)" fill="#37474f" fill-rule="evenodd" opacity="0.15"/><text transform="translate(144 323)" fill="#37474f" font-size="22" font-family="Roboto-Regular, Roboto" opacity="0.8"><tspan x="0" y="0">,</tspan></text><text transform="translate(87 323)" fill="#37474f" font-size="14" font-family="Roboto-Medium, Roboto" font-weight="500" letter-spacing="0em" opacity="0.8"><tspan x="0" y="0">?123 </tspan></text><path d="M340,135H325.1a1.965,1.965,0,0,0-1.7.9L318,144l5.4,8.1a2.227,2.227,0,0,0,1.7.9H340a2.006,2.006,0,0,0,2-2V137a2.006,2.006,0,0,0-2-2Zm-3,12.6-1.4,1.4-3.6-3.6-3.6,3.6-1.4-1.4,3.6-3.6-3.6-3.6,1.4-1.4,3.6,3.6,3.6-3.6,1.4,1.4-3.6,3.6,3.6,3.6Z" transform="translate(69 120)" fill="#37474f" fill-rule="evenodd" opacity="0.6"/><path d="M28,152v2H42v-2Zm11-9h5l-9-9-9,9h5v5h8Z" transform="translate(68 120)" fill="#37474f" fill-rule="evenodd" opacity="0.6"/><g transform="translate(141 252)" clip-path="url(#g)"><g transform="translate(-61.548 -103)"><text transform="translate(67.048 123)" fill="#37474f" font-size="22" font-family="Roboto-Regular, Roboto"><tspan x="-5.452" y="0">z</tspan></text></g><g transform="translate(-26.548 -103)"><text transform="translate(67.048 123)" fill="#37474f" font-size="22" font-family="Roboto-Regular, Roboto"><tspan x="-5.452" y="0">x</tspan></text></g><g transform="translate(8.452 -103)"><text transform="translate(67.048 123)" fill="#37474f" font-size="22" font-family="Roboto-Regular, Roboto"><tspan x="-5.758" y="0">c</tspan></text></g><g transform="translate(43.452 -103)"><text transform="translate(67.048 123)" fill="#37474f" font-size="22" font-family="Roboto-Regular, Roboto"><tspan x="-5.328" y="0">v</tspan></text></g><g transform="translate(78.452 -103)"><text transform="translate(67.048 123)" fill="#37474f" font-size="22" font-family="Roboto-Regular, Roboto"><tspan x="-6.171" y="0">b</tspan></text></g><g transform="translate(113.452 -103)"><text transform="translate(67.048 123)" fill="#37474f" font-size="22" font-family="Roboto-Regular, Roboto"><tspan x="-6.069" y="0">n</tspan></text></g><g transform="translate(148.452 -103)"><text transform="translate(67.048 123)" fill="#37474f" font-size="22" font-family="Roboto-Regular, Roboto"><tspan x="-9.641" y="0">m</tspan></text></g></g><g transform="translate(105 200)" clip-path="url(#h)"><g transform="translate(-26.017 -51)"><text transform="translate(32.017 71)" fill="#37474f" font-size="22" font-family="Roboto-Regular, Roboto"><tspan x="-5.983" y="0">a</tspan></text></g><g transform="translate(8.983 -51)"><text transform="translate(32.017 71)" fill="#37474f" font-size="22" font-family="Roboto-Regular, Roboto"><tspan x="-5.672" y="0">s</tspan></text></g><g transform="translate(43.983 -51)"><text transform="translate(32.017 71)" fill="#37474f" font-size="22" font-family="Roboto-Regular, Roboto"><tspan x="-6.204" y="0">d</tspan></text></g><g transform="translate(78.983 -51)"><text transform="translate(32.017 71)" fill="#37474f" font-size="22" font-family="Roboto-Regular, Roboto"><tspan x="-3.819" y="0">f</tspan></text></g><g transform="translate(113.983 -51)"><text transform="translate(32.017 71)" fill="#37474f" font-size="22" font-family="Roboto-Regular, Roboto"><tspan x="-6.171" y="0">g</tspan></text></g><g transform="translate(148.983 -51)"><text transform="translate(32.017 71)" fill="#37474f" font-size="22" font-family="Roboto-Regular, Roboto"><tspan x="-6.059" y="0">h</tspan></text></g><g transform="translate(183.983 -51)"><text transform="translate(32.017 71)" fill="#37474f" font-size="22" font-family="Roboto-Regular, Roboto"><tspan x="-2.626" y="0">j</tspan></text></g><g transform="translate(218.983 -51)"><text transform="translate(32.017 71)" fill="#37474f" font-size="22" font-family="Roboto-Regular, Roboto"><tspan x="-5.575" y="0">k</tspan></text></g><g transform="translate(253.983 -51)"><text transform="translate(32.017 71)" fill="#37474f" font-size="22" font-family="Roboto-Regular, Roboto"><tspan x="-2.669" y="0">l</tspan></text></g></g><g transform="translate(87 142)" clip-path="url(#i)"><g transform="translate(-138.748 -123)"><text transform="translate(145.248 150)" fill="#37474f" font-size="22" font-family="Roboto-Regular, Roboto"><tspan x="-6.252" y="0">q</tspan></text><text transform="translate(154.748 131)" fill="rgba(69,90,100,0.8)" font-size="10" font-family="Roboto-Regular, Roboto"><tspan x="-2.808" y="0">1</tspan></text></g><g transform="translate(-103.748 -123)"><text transform="translate(145.248 150)" fill="#37474f" font-size="22" font-family="Roboto-Regular, Roboto"><tspan x="-8.266" y="0">w</tspan></text><text transform="translate(154.748 131)" fill="rgba(69,90,100,0.8)" font-size="10" font-family="Roboto-Regular, Roboto"><tspan x="-2.808" y="0">2</tspan></text></g><g transform="translate(-68.748 -123)"><text transform="translate(145.248 150)" fill="#37474f" font-size="22" font-family="Roboto-Regular, Roboto"><tspan x="-5.828" y="0">e</tspan></text><text transform="translate(154.748 131)" fill="rgba(69,90,100,0.8)" font-size="10" font-family="Roboto-Regular, Roboto"><tspan x="-2.808" y="0">3</tspan></text></g><g transform="translate(-33.748 -123)"><text transform="translate(145.248 150)" fill="#37474f" font-size="22" font-family="Roboto-Regular, Roboto"><tspan x="-3.722" y="0">r</tspan></text><text transform="translate(154.748 131)" fill="rgba(69,90,100,0.8)" font-size="10" font-family="Roboto-Regular, Roboto"><tspan x="-2.808" y="0">4</tspan></text></g><g transform="translate(1.252 -123)"><text transform="translate(145.248 150)" fill="#37474f" font-size="22" font-family="Roboto-Regular, Roboto"><tspan x="-3.593" y="0">t</tspan></text><text transform="translate(154.748 131)" fill="rgba(69,90,100,0.8)" font-size="10" font-family="Roboto-Regular, Roboto"><tspan x="-2.808" y="0">5</tspan></text></g><g transform="translate(36.252 -123)"><text transform="translate(145.248 150)" fill="#37474f" font-size="22" font-family="Roboto-Regular, Roboto"><tspan x="-5.205" y="0">y</tspan></text><text transform="translate(154.748 131)" fill="rgba(69,90,100,0.8)" font-size="10" font-family="Roboto-Regular, Roboto"><tspan x="-2.808" y="0">6</tspan></text></g><g transform="translate(71.252 -123)"><text transform="translate(145.248 150)" fill="#37474f" font-size="22" font-family="Roboto-Regular, Roboto"><tspan x="-6.064" y="0">u</tspan></text><text transform="translate(154.748 131)" fill="rgba(69,90,100,0.8)" font-size="10" font-family="Roboto-Regular, Roboto"><tspan x="-2.808" y="0">7</tspan></text></g><g transform="translate(106.252 -123)"><text transform="translate(145.248 150)" fill="#37474f" font-size="22" font-family="Roboto-Regular, Roboto"><tspan x="-2.669" y="0">i</tspan></text><text transform="translate(154.748 131)" fill="rgba(69,90,100,0.8)" font-size="10" font-family="Roboto-Regular, Roboto"><tspan x="-2.808" y="0">8</tspan></text></g><g transform="translate(141.252 -123)"><text transform="translate(145.248 150)" fill="#37474f" font-size="22" font-family="Roboto-Regular, Roboto"><tspan x="-6.273" y="0">o</tspan></text><text transform="translate(154.748 131)" fill="rgba(69,90,100,0.8)" font-size="10" font-family="Roboto-Regular, Roboto"><tspan x="-2.808" y="0">9</tspan></text></g><g transform="translate(176.252 -123)"><text transform="translate(145.248 150)" fill="#37474f" font-size="22" font-family="Roboto-Regular, Roboto"><tspan x="-6.171" y="0">p</tspan></text><text transform="translate(154.748 131)" fill="rgba(69,90,100,0.8)" font-size="10" font-family="Roboto-Regular, Roboto"><tspan x="-2.808" y="0">0</tspan></text></g></g></g><g transform="translate(-504 -80)"><rect width="328" height="2" transform="translate(520 183)" fill="#80cbc4"/><text transform="translate(520.5 172)" fill="#9e9e9e" font-size="16" font-family="Roboto-Regular, Roboto"><tspan x="0" y="0">Plate number</tspan></text><rect width="1" height="20" transform="translate(520 156)" fill="#80cbc4"/></g><g transform="translate(254 125)"><g transform="matrix(1, 0, 0, 1, -254, -125)" filter="url(#j)"><path d="M2,0H88a2,2,0,0,1,2,2V34a2,2,0,0,1-2,2H2a2,2,0,0,1-2-2V2A2,2,0,0,1,2,0Z" transform="translate(254 125)" fill="#ffab00"/></g><text transform="translate(45 23)" fill="#333" font-size="14" font-family="Roboto-Medium, Roboto" font-weight="500"><tspan x="-17.726" y="0">SEND</tspan></text></g></g></svg>