<svg xmlns="http://www.w3.org/2000/svg" xmlns:xlink="http://www.w3.org/1999/xlink" width="360" height="640" viewBox="0 0 360 640"><defs><clipPath id="a"><rect width="360" height="576" fill="none"/></clipPath><clipPath id="b"><rect width="20" height="20" fill="none"/></clipPath><filter id="o" x="-9" y="-5.609" width="378" height="73.609" filterUnits="userSpaceOnUse"><feOffset dy="3" input="SourceAlpha"/><feGaussianBlur stdDeviation="3" result="p"/><feFlood flood-opacity="0.161"/><feComposite operator="in" in2="p"/><feComposite in="SourceGraphic"/></filter><filter id="q" x="-4.5" y="580.5" width="369" height="65.001" filterUnits="userSpaceOnUse"><feOffset dy="1" input="SourceAlpha"/><feGaussianBlur stdDeviation="1.5" result="r"/><feFlood flood-opacity="0.2"/><feComposite operator="in" in2="r"/><feComposite in="SourceGraphic"/></filter><filter id="s" x="280.5" y="552.5" width="71" height="71" filterUnits="userSpaceOnUse"><feOffset dy="4" input="SourceAlpha"/><feGaussianBlur stdDeviation="2.5" result="t"/><feFlood flood-opacity="0.2"/><feComposite operator="in" in2="t"/><feComposite in="SourceGraphic"/></filter><filter id="u" x="7.5" y="590.5" width="268" height="45" filterUnits="userSpaceOnUse"><feOffset dy="1" input="SourceAlpha"/><feGaussianBlur stdDeviation="1.5" result="v"/><feFlood flood-opacity="0.2"/><feComposite operator="in" in2="v"/><feComposite in="SourceGraphic"/></filter><clipPath id="x"><rect width="360" height="640"/></clipPath></defs><g id="w" clip-path="url(#x)"><rect width="360" height="640" fill="#333"/><g transform="translate(0 45)" clip-path="url(#a)"><rect width="360" height="48" fill="#fafafa"/><rect width="344" height="1" transform="translate(16 47)" fill="#e3e3e3"/><text transform="translate(16 29)" fill="rgba(0,0,0,0.87)" font-size="16" font-family="Roboto-Regular, Roboto" letter-spacing="0.01em"><tspan x="0" y="0">Parking on bike lanes</tspan></text><g transform="translate(326 14)" clip-path="url(#b)"><path d="M15-328A10,10,0,0,0,5-318a10,10,0,0,0,10,10,10,10,0,0,0,10-10A10,10,0,0,0,15-328Zm0,18a8,8,0,0,1-8-8,8,8,0,0,1,8-8,8,8,0,0,1,8,8A8,8,0,0,1,15-310Z" transform="translate(-5 328)" fill="#747474"/></g><g transform="translate(0 48)"><rect width="360" height="48" fill="#fafafa"/><rect width="344" height="1" transform="translate(16 47)" fill="#e3e3e3"/><text transform="translate(16 29)" fill="rgba(0,0,0,0.87)" font-size="16" font-family="Roboto-Regular, Roboto" letter-spacing="0.01em"><tspan x="0" y="0">Parking on reserved stalls</tspan></text><g transform="translate(326 14)" clip-path="url(#b)"><path d="M15-328A10,10,0,0,0,5-318a10,10,0,0,0,10,10,10,10,0,0,0,10-10A10,10,0,0,0,15-328Zm0,18a8,8,0,0,1-8-8,8,8,0,0,1,8-8,8,8,0,0,1,8,8A8,8,0,0,1,15-310Z" transform="translate(-5 328)" fill="#747474"/></g></g><g transform="translate(0 96)"><rect width="360" height="48" fill="#fafafa"/><rect width="344" height="1" transform="translate(16 47)" fill="#e3e3e3"/><text transform="translate(16 29)" fill="rgba(0,0,0,0.87)" font-size="16" font-family="Roboto-Regular, Roboto" letter-spacing="0.01em"><tspan x="0" y="0">Double parking</tspan></text><g transform="translate(326 14)" clip-path="url(#b)"><path d="M15-328A10,10,0,0,0,5-318a10,10,0,0,0,10,10,10,10,0,0,0,10-10A10,10,0,0,0,15-328Zm0,18a8,8,0,0,1-8-8,8,8,0,0,1,8-8,8,8,0,0,1,8,8A8,8,0,0,1,15-310Z" transform="translate(-5 328)" fill="#747474"/></g></g><g transform="translate(0 144)"><rect width="360" height="48" fill="#fafafa"/><rect width="344" height="1" transform="translate(16 47)" fill="#e3e3e3"/><text transform="translate(16 29)" fill="rgba(0,0,0,0.87)" font-size="16" font-family="Roboto-Regular, Roboto" letter-spacing="0.01em"><tspan x="0" y="0">Parking on pedestrian crossing</tspan></text><g transform="translate(326 14)" clip-path="url(#b)"><path d="M15-328A10,10,0,0,0,5-318a10,10,0,0,0,10,10,10,10,0,0,0,10-10A10,10,0,0,0,15-328Zm0,18a8,8,0,0,1-8-8,8,8,0,0,1,8-8,8,8,0,0,1,8,8A8,8,0,0,1,15-310Z" transform="translate(-5 328)" fill="#747474"/></g></g><g transform="translate(0 192)"><rect width="360" height="48" fill="#fafafa"/><rect width="344" height="1" transform="translate(16 47)" fill="#e3e3e3"/><text transform="translate(16 29)" fill="rgba(0,0,0,0.87)" font-size="16" font-family="Roboto-Regular, Roboto" letter-spacing="0.01em"><tspan x="0" y="0">Parking on sidewalks</tspan></text><g transform="translate(326 14)" clip-path="url(#b)"><path d="M15-328A10,10,0,0,0,5-318a10,10,0,0,0,10,10,10,10,0,0,0,10-10A10,10,0,0,0,15-328Zm0,18a8,8,0,0,1-8-8,8,8,0,0,1,8-8,8,8,0,0,1,8,8A8,8,0,0,1,15-310Z" transform="translate(-5 328)" fill="#747474"/></g></g><g transform="translate(0 240)"><rect width="360" height="48" fill="#fafafa"/><rect width="344" height="1" transform="translate(16 47)" fill="#e3e3e3"/><text transform="translate(16 29)" fill="rgba(0,0,0,0.87)" font-size="16" font-family="Roboto-Regular, Roboto" letter-spacing="0.01em"><tspan x="0" y="0">Parking on traffic island</tspan></text><g transform="translate(326 14)" clip-path="url(#b)"><path d="M15-328A10,10,0,0,0,5-318a10,10,0,0,0,10,10,10,10,0,0,0,10-10A10,10,0,0,0,15-328Zm0,18a8,8,0,0,1-8-8,8,8,0,0,1,8-8,8,8,0,0,1,8,8A8,8,0,0,1,15-310Z" transform="translate(-5 328)" fill="#747474"/></g></g><g transform="translate(0 288)"><rect width="360" height="48" fill="#fafafa"/><rect width="344" height="1" transform="translate(16 47)" fill="#e3e3e3"/><text transform="translate(16 29)" fill="rgba(0,0,0,0.87)" font-size="16" font-family="Roboto-Regular, Roboto" letter-spacing="0.01em"><tspan x="0" y="0">Parking on red zone</tspan></text><g transform="translate(326 14)" clip-path="url(#b)"><path d="M15-328A10,10,0,0,0,5-318a10,10,0,0,0,10,10,10,10,0,0,0,10-10A10,10,0,0,0,15-328Zm0,18a8,8,0,0,1-8-8,8,8,0,0,1,8-8,8,8,0,0,1,8,8A8,8,0,0,1,15-310Z" transform="translate(-5 328)" fill="#747474"/></g></g><g transform="translate(0 336)"><rect width="360" height="48" fill="#fafafa"/><rect width="344" height="1" transform="translate(16 47)" fill="#e3e3e3"/><text transform="translate(16 29)" fill="rgba(0,0,0,0.87)" font-size="16" font-family="Roboto-Regular, Roboto" letter-spacing="0.01em"><tspan x="0" y="0">Parking not payed</tspan></text><g transform="translate(326 14)" clip-path="url(#b)"><path d="M15-328A10,10,0,0,0,5-318a10,10,0,0,0,10,10,10,10,0,0,0,10-10A10,10,0,0,0,15-328Zm0,18a8,8,0,0,1-8-8,8,8,0,0,1,8-8,8,8,0,0,1,8,8A8,8,0,0,1,15-310Z" transform="translate(-5 328)" fill="#747474"/></g></g><g transform="translate(0 384)"><rect width="360" height="48" fill="#fafafa"/><rect width="344" height="1" transform="translate(16 47)" fill="#e3e3e3"/><text transform="translate(16 29)" fill="rgba(0,0,0,0.87)" font-size="16" font-family="Roboto-Regular, Roboto" letter-spacing="0.01em"><tspan x="0" y="0">Traffic lights violations</tspan></text><g transform="translate(326 14)" clip-path="url(#b)"><path d="M15-328A10,10,0,0,0,5-318a10,10,0,0,0,10,10,10,10,0,0,0,10-10A10,10,0,0,0,15-328Zm0,18a8,8,0,0,1-8-8,8,8,0,0,1,8-8,8,8,0,0,1,8,8A8,8,0,0,1,15-310Z" transform="translate(-5 328)" fill="#747474"/></g></g><g transform="translate(0 432)"><rect width="360" height="48" fill="#fafafa"/><rect width="344" height="1" transform="translate(16 47)" fill="#e3e3e3"/><text transform="translate(16 29)" fill="rgba(0,0,0,0.87)" font-size="16" font-family="Roboto-Regular, Roboto" letter-spacing="0.01em"><tspan x="0" y="0">Speed violations</tspan></text><g transform="translate(326 14)" clip-path="url(#b)"><path d="M15-328A10,10,0,0,0,5-318a10,10,0,0,0,10,10,10,10,0,0,0,10-10A10,10,0,0,0,15-328Zm0,18a8,8,0,0,1-8-8,8,8,0,0,1,8-8,8,8,0,0,1,8,8A8,8,0,0,1,15-310Z" transform="translate(-5 328)" fill="#747474"/></g></g><g transform="translate(0 480)"><rect width="360" height="48" fill="#fafafa"/><rect width="344" height="1" transform="translate(16 47)" fill="#e3e3e3"/><text transform="translate(16 29)" fill="rgba(0,0,0,0.87)" font-size="16" font-family="Roboto-Regular, Roboto" letter-spacing="0.01em"><tspan x="0" y="0">Against traffic violations</tspan></text><g transform="translate(326 14)" clip-path="url(#b)"><path d="M15-328A10,10,0,0,0,5-318a10,10,0,0,0,10,10,10,10,0,0,0,10-10A10,10,0,0,0,15-328Zm0,18a8,8,0,0,1-8-8,8,8,0,0,1,8-8,8,8,0,0,1,8,8A8,8,0,0,1,15-310Z" transform="translate(-5 328)" fill="#747474"/></g></g><g transform="translate(0 528)"><rect width="360" height="48" fill="#fafafa"/><rect width="344" height="1" transform="translate(16 47)" fill="#e3e3e3"/><text transform="translate(16 29)" fill="rgba(0,0,0,0.87)" font-size="16" font-family="Roboto-Regular, Roboto" letter-spacing="0.01em"><tspan x="0" y="0">Other violations</tspan></text><g transform="translate(326 14)" clip-path="url(#b)"><path d="M15-328A10,10,0,0,0,5-318a10,10,0,0,0,10,10,10,10,0,0,0,10-10A10,10,0,0,0,15-328Zm0,18a8,8,0,0,1-8-8,8,8,0,0,1,8-8,8,8,0,0,1,8,8A8,8,0,0,1,15-310Z" transform="translate(-5 328)" fill="#747474"/></g></g></g><g transform="translate(326 107)" clip-path="url(#b)"><path d="M15-384A10,10,0,0,0,5-374a10,10,0,0,0,10,10,10,10,0,0,0,10-10A10,10,0,0,0,15-384Zm0,18a8,8,0,0,1-8-8,8,8,0,0,1,8-8,8,8,0,0,1,8,8A8,8,0,0,1,15-366Zm0-3a5,5,0,0,0,5-5,5,5,0,0,0-5-5,5,5,0,0,0-5,5A5,5,0,0,0,15-369Z" transform="translate(-5 384)" fill="#ffab00"/></g><g transform="translate(0 -24)"><g transform="matrix(1, 0, 0, 1, 0, 24)" filter="url(#o)"><path d="M360,0H0V55.609H360Z" transform="translate(0 0.39)" fill="#ffab00" fill-rule="evenodd"/></g><path d="M12,0H0V-24H12Z" transform="translate(332 64)" fill="none" fill-rule="evenodd"/><text transform="translate(72 60)" fill="#333" font-size="20" font-family="Roboto-Medium, Roboto" font-weight="500"><tspan x="0" y="0">Choose the category</tspan></text><g transform="translate(16 40)"><rect width="24" height="24" fill="none"/><path d="M20,11H7.8l5.6-5.6L12,4,4,12l8,8,1.4-1.4L7.8,13H20Z" fill="#333"/></g></g><g transform="translate(0 556)"><g transform="matrix(1, 0, 0, 1, 0, -556)" filter="url(#q)"><path d="M360,92H0V36H280a36,36,0,1,0,72,0h8V92Z" transform="translate(0 548)" fill="#333"/></g><g transform="translate(-585 -802)"><g transform="matrix(1, 0, 0, 1, 585, 246)" filter="url(#s)"><circle cx="28" cy="28" r="28" transform="translate(288 556)" fill="#ffab00"/></g><g transform="translate(889 818)"><rect width="24" height="24" fill="none"/><path d="M7.587-4.412,3.415-8.583,2-7.168,7.587-1.581l12-12L18.175-15Z" transform="translate(1 22)" fill="#333"/></g></g><g transform="translate(12 38)"><g transform="matrix(1, 0, 0, 1, -12, -594)" filter="url(#u)"><rect width="259" height="36" rx="4" transform="translate(12 594)" fill="#9e9e9e"/></g><text transform="translate(13 23)" fill="#fafafa" font-size="14" font-family="Roboto-Medium, Roboto" font-weight="500" letter-spacing="0.089em"><tspan x="0" y="0">ADD OPTIONAL INFORMATIONS</tspan></text></g></g></g></svg>