<?xml version="1.0" encoding="UTF-8" standalone="no"?>
<!DOCTYPE svg PUBLIC "-//W3C//DTD SVG 1.1//EN" "http://www.w3.org/Graphics/SVG/1.1/DTD/svg11.dtd">
<!-- Generato da Microsoft Visio, esportazione SVG UML states new report - v1.0.svg New report -->
<svg xmlns="http://www.w3.org/2000/svg" xmlns:xlink="http://www.w3.org/1999/xlink" xmlns:ev="http://www.w3.org/2001/xml-events"
		xmlns:v="http://schemas.microsoft.com/visio/2003/SVGExtensions/" width="11.6929in" height="8.26772in"
		viewBox="0 0 841.89 595.276" xml:space="preserve" color-interpolation-filters="sRGB" class="st20">
	<v:documentProperties v:langID="1040" v:metric="true" v:viewMarkup="false">
		<v:userDefs>
			<v:ud v:nameU="msvNoAutoConnect" v:prompt="" v:val="VT0(0):26"/>
		</v:userDefs>
	</v:documentProperties>

	<style type="text/css">
	<![CDATA[
		.st1 {fill:#73ae42;stroke:#ffffff;stroke-linecap:round;stroke-linejoin:round;stroke-width:0.5;visibility:hidden}
		.st2 {fill:#ffffff;stroke:#73ae42;stroke-linecap:round;stroke-linejoin:round;stroke-width:0.5}
		.st3 {fill:#73ae42}
		.st4 {stroke:#73ae42;stroke-linecap:round;stroke-linejoin:round;stroke-width:0.5}
		.st5 {fill:#ffffff;font-family:Calibri;font-size:1.00001em;font-weight:bold}
		.st6 {fill:#5b9bd5;stroke:#5b9bd5;stroke-linecap:round;stroke-linejoin:round;stroke-width:0.5}
		.st7 {fill:#73ae42;stroke:#ffffff;stroke-linecap:round;stroke-linejoin:round;stroke-width:0.5}
		.st8 {fill:#ffffff;font-family:Calibri;font-size:1.00001em}
		.st9 {marker-end:url(#mrkr4-23);stroke:#5592c9;stroke-linecap:round;stroke-linejoin:round;stroke-width:0.5}
		.st10 {fill:#5592c9;fill-opacity:1;stroke:#5592c9;stroke-opacity:1;stroke-width:0.16556291390728}
		.st11 {fill:#ffffff;stroke:none;stroke-linecap:butt;stroke-width:7.2}
		.st12 {fill:#41719d;font-family:Calibri;font-size:0.666664em}
		.st13 {fill:#5b9bd5;stroke:#ffffff;stroke-linecap:round;stroke-linejoin:round;stroke-width:0.5}
		.st14 {fill:#5b9bd5}
		.st15 {stroke:#5b9bd5;stroke-linecap:round;stroke-linejoin:round;stroke-width:0.5}
		.st16 {font-size:1em}
		.st17 {fill:#ffffff;stroke:#ffffff;stroke-linecap:round;stroke-linejoin:round;stroke-width:0.5}
		.st18 {fill:#4271c6}
		.st19 {stroke:#4271c6;stroke-linecap:round;stroke-linejoin:round;stroke-width:0.5}
		.st20 {fill:none;fill-rule:evenodd;font-size:12px;overflow:visible;stroke-linecap:square;stroke-miterlimit:3}
	]]>
	</style>

	<defs id="Markers">
		<g id="lend4">
			<path d="M 2 1 L 0 0 L 2 -1 L 2 1 " style="stroke:none"/>
		</g>
		<marker id="mrkr4-23" class="st10" v:arrowType="4" v:arrowSize="2" v:setback="12.08" refX="-12.08" orient="auto"
				markerUnits="strokeWidth" overflow="visible">
			<use xlink:href="#lend4" transform="scale(-6.04,-6.04) "/>
		</marker>
	</defs>
	<g v:mID="0" v:index="1" v:groupContext="foregroundPage">
		<v:userDefs>
			<v:ud v:nameU="msvThemeOrder" v:val="VT0(0):26"/>
		</v:userDefs>
		<title>New report</title>
		<v:pageProperties v:drawingScale="0.0393701" v:pageScale="0.0393701" v:drawingUnits="24" v:shadowOffsetX="8.50394"
				v:shadowOffsetY="-8.50394"/>
		<v:layer v:name="Connettore" v:index="0"/>
		<g id="group21-1" transform="translate(74.7638,-192.756)" v:mID="21" v:groupContext="group">
			<v:userDefs>
				<v:ud v:nameU="visVersion" v:prompt="" v:val="VT0(15):26"/>
				<v:ud v:nameU="msvStructureType" v:prompt="" v:val="VT4(Container)"/>
				<v:ud v:nameU="msvSDContainerMargin" v:prompt="" v:val="VT0(0.11811023622047):24"/>
				<v:ud v:nameU="msvSDContainerResize" v:prompt="" v:val="VT0(1):26"/>
				<v:ud v:nameU="msvSDHeadingStyle" v:prompt="" v:val="VT0(1):26"/>
				<v:ud v:nameU="msvSDHeadingStyleCount" v:prompt="" v:val="VT0(1):26"/>
			</v:userDefs>
			<title>Stato composito</title>
			<g id="shape21-2" v:mID="21" v:groupContext="groupContent">
				<rect x="0" y="392.026" width="247.323" height="203.249" rx="25.5118" ry="25.5118" class="st1"/>
			</g>
			<g id="group22-4" transform="translate(0,-180.845)" v:mID="22" v:groupContext="group">
				<v:userDefs>
					<v:ud v:nameU="UmlRole" v:prompt="" v:val="VT4(Title)"/>
					<v:ud v:nameU="msvStructureType" v:prompt="" v:val="VT4(Heading)"/>
					<v:ud v:nameU="msvSDContainerHeadingEdge" v:prompt="" v:val="VT4(Bottom)"/>
				</v:userDefs>
				<title>Foglio.22</title>
				<desc>Accepting input</desc>
				<g id="shape23-5" v:mID="23" v:groupContext="shape" transform="translate(0,180.845)">
					<title>Foglio.23</title>
					<v:userDefs>
						<v:ud v:nameU="UmlRole" v:prompt="" v:val="VT4(Body)"/>
					</v:userDefs>
					<path d="M25.51 595.28 L221.81 595.28 A25.5118 25.5118 -180 0 0 247.32 569.76 L247.32 439.94 A25.5118 25.5118
								 -180 0 0 221.81 414.43 L25.51 414.43 A25.5118 25.5118 -180 0 0 0 439.94 L0 569.76 A25.5118 25.5118
								 -180 0 0 25.51 595.28 Z" class="st2"/>
				</g>
				<g id="shape22-7" v:mID="22" v:groupContext="groupContent">
					<v:textBlock v:margins="rect(4,4,4,4)" v:tabSpace="42.5197"/>
					<v:textRect cx="123.661" cy="584.074" width="247.33" height="22.4037"/>
					<path d="M123.66 595.28 L11.2 595.28 A11.2019 11.2019 0 0 1 0 584.07 L0 584.07 A11.2019 11.2019 0 0 1 11.2 572.87
								 L123.66 572.87 L123.66 595.28 L236.12 595.28 A11.2019 11.2019 -180 0 0 247.32 584.07 L247.32 584.07
								 A11.2019 11.2019 -180 0 0 236.12 572.87 L123.66 572.87 L123.66 595.28 Z" class="st3"/>
					<path d="M123.66 595.28 L11.2 595.28 A11.2019 11.2019 0 0 1 0 584.07 L0 584.07 A11.2019 11.2019 0 0 1 11.2 572.87
								 L123.66 572.87M123.66 595.28 L236.12 595.28 A11.2019 11.2019 -180 0 0 247.32 584.07 L247.32 584.07
								 A11.2019 11.2019 -180 0 0 236.12 572.87 L123.66 572.87" class="st4"/>
					<text x="84.58" y="587.67" class="st5" v:langID="1040"><v:paragraph v:horizAlign="1"/><v:tabList/>Accepting input</text>				</g>
			</g>
		</g>
		<g id="shape1-11" v:mID="1" v:groupContext="shape" transform="translate(181.417,-543.26)">
			<title>Stato iniziale</title>
			<v:userDefs>
				<v:ud v:nameU="visVersion" v:prompt="" v:val="VT0(15):26"/>
			</v:userDefs>
			<ellipse cx="17.0079" cy="578.268" rx="17.0079" ry="17.0079" class="st6"/>
		</g>
		<g id="shape24-13" v:mID="24" v:groupContext="shape" transform="translate(83.2677,-318.609)">
			<title>Stato iniziale.24</title>
			<v:userDefs>
				<v:ud v:nameU="visVersion" v:prompt="" v:val="VT0(15):26"/>
			</v:userDefs>
			<ellipse cx="17.0079" cy="578.268" rx="17.0079" ry="17.0079" class="st6"/>
		</g>
		<g id="shape26-15" v:mID="26" v:groupContext="shape" transform="translate(132.165,-318.609)">
			<title>Azione.26</title>
			<desc>Send option disabled</desc>
			<v:userDefs>
				<v:ud v:nameU="visVersion" v:prompt="" v:val="VT0(15):26"/>
			</v:userDefs>
			<v:textBlock v:margins="rect(4,4,4,4)" v:tabSpace="42.5197"/>
			<v:textRect cx="56.6929" cy="578.268" width="113.39" height="34.0157"/>
			<rect x="0" y="561.26" width="113.386" height="34.0157" rx="8.50394" ry="8.50394" class="st7"/>
			<text x="5.5" y="581.87" class="st8" v:langID="1040"><v:paragraph v:horizAlign="1"/><v:tabList/>Send option disabled</text>		</g>
		<g id="shape27-18" v:mID="27" v:groupContext="shape" v:layerMember="0" transform="translate(117.283,-328.53)">
			<title>Connettore dinamico.27</title>
			<path d="M0 588.19 L8.84 588.19" class="st9"/>
		</g>
		<g id="shape28-24" v:mID="28" v:groupContext="shape" v:layerMember="0" transform="translate(245.551,-328.53)">
			<title>Connettore dinamico.28</title>
			<desc>Input</desc>
			<v:textBlock v:margins="rect(4,4,4,4)" v:tabSpace="42.5197"/>
			<v:textRect cx="17.0079" cy="588.189" width="40" height="17.6036"/>
			<path d="M0 588.19 L27.98 588.19" class="st9"/>
			<rect v:rectContext="textBkgnd" x="8.35565" y="583.389" width="17.3046" height="9.59985" class="st11"/>
			<text x="8.36" y="590.59" class="st12" v:langID="1040"><v:paragraph v:horizAlign="1"/><v:tabList/>Input</text>		</g>
		<g id="shape30-31" v:mID="30" v:groupContext="shape" transform="translate(132.165,-259.942)">
			<title>Azione</title>
			<desc>Send option enabled</desc>
			<v:userDefs>
				<v:ud v:nameU="visVersion" v:prompt="" v:val="VT0(15):26"/>
			</v:userDefs>
			<v:textBlock v:margins="rect(4,4,4,4)" v:tabSpace="42.5197"/>
			<v:textRect cx="56.6929" cy="578.268" width="113.39" height="34.0157"/>
			<rect x="0" y="561.26" width="113.386" height="34.0157" rx="8.50394" ry="8.50394" class="st7"/>
			<text x="6.23" y="581.87" class="st8" v:langID="1040"><v:paragraph v:horizAlign="1"/><v:tabList/>Send option enabled</text>		</g>
		<g id="shape31-34" v:mID="31" v:groupContext="shape" v:layerMember="0" transform="translate(296.575,-318.609)">
			<title>Connettore dinamico.31</title>
			<desc>All mandatory data inserted</desc>
			<v:textBlock v:margins="rect(4,4,4,4)" v:tabSpace="42.5197"/>
			<v:textRect cx="-55.312" cy="606.148" width="100.66" height="17.6036"/>
			<path d="M0 595.28 L0 606.15 L-107.72 606.15 L-107.72 613.89" class="st9"/>
			<rect v:rectContext="textBkgnd" x="-100.733" y="601.348" width="90.8427" height="9.59985" class="st11"/>
			<text x="-100.73" y="608.55" class="st12" v:langID="1040"><v:paragraph v:horizAlign="1"/><v:tabList/>All mandatory data inserted</text>		</g>
		<g id="shape34-41" v:mID="34" v:groupContext="shape" transform="translate(279.567,-318.609)">
			<title>Scelta</title>
			<v:userDefs>
				<v:ud v:nameU="visVersion" v:prompt="" v:val="VT0(15):26"/>
			</v:userDefs>
			<path d="M17.01 595.28 L34.02 578.27 L17.01 561.26 L0 578.27 L17.01 595.28 Z" class="st13"/>
		</g>
		<g id="shape35-43" v:mID="35" v:groupContext="shape" v:layerMember="0" transform="translate(296.575,-345.538)">
			<title>Connettore dinamico.35</title>
			<desc>Mandatory data missing</desc>
			<v:textBlock v:margins="rect(4,4,4,4)" v:tabSpace="42.5197"/>
			<v:textRect cx="-53.8583" cy="579.189" width="88.49" height="17.6036"/>
			<path d="M0 588.19 L0 579.19 L-107.72 579.19 L-107.72 582.15" class="st9"/>
			<rect v:rectContext="textBkgnd" x="-93.1937" y="574.389" width="78.6712" height="9.59985" class="st11"/>
			<text x="-93.19" y="581.59" class="st12" v:langID="1040"><v:paragraph v:horizAlign="1"/><v:tabList/>Mandatory data missing</text>		</g>
		<g id="shape38-50" v:mID="38" v:groupContext="shape" transform="translate(141.732,-486.567)">
			<title>Azione.38</title>
			<desc>Camera mode</desc>
			<v:userDefs>
				<v:ud v:nameU="visVersion" v:prompt="" v:val="VT0(15):26"/>
			</v:userDefs>
			<v:textBlock v:margins="rect(4,4,4,4)" v:tabSpace="42.5197"/>
			<v:textRect cx="56.6929" cy="578.268" width="113.39" height="34.0157"/>
			<rect x="0" y="561.26" width="113.386" height="34.0157" rx="8.50394" ry="8.50394" class="st7"/>
			<text x="22.42" y="581.87" class="st8" v:langID="1040"><v:paragraph v:horizAlign="1"/><v:tabList/>Camera mode</text>		</g>
		<g id="shape40-53" v:mID="40" v:groupContext="shape" v:layerMember="0" transform="translate(191.339,-486.567)">
			<title>Connettore dinamico.40</title>
			<desc>Picture taken</desc>
			<v:textBlock v:margins="rect(4,4,4,4)" v:tabSpace="42.5197"/>
			<v:textRect cx="7.08661" cy="608.953" width="52.96" height="17.6036"/>
			<path d="M7.09 595.28 L7.09 616.59" class="st9"/>
			<rect v:rectContext="textBkgnd" x="-14.4852" y="604.153" width="43.1439" height="9.59985" class="st11"/>
			<text x="-14.49" y="611.35" class="st12" v:langID="1040"><v:paragraph v:horizAlign="1"/><v:tabList/>Picture taken</text>		</g>
		<g id="group32-60" transform="translate(124.228,-203.249)" v:mID="32" v:groupContext="group">
			<v:userDefs>
				<v:ud v:nameU="visVersion" v:prompt="" v:val="VT0(15):26"/>
				<v:ud v:nameU="msvStructureType" v:prompt="" v:val="VT4(Callout)"/>
				<v:ud v:nameU="msvSDTargetIntersection" v:prompt=""/>
				<v:ud v:nameU="msvSDCalloutNoHighlight" v:prompt="" v:val="VT0(0):5"/>
				<v:ud v:nameU="msvShapeCategories" v:prompt="" v:val="VT0(0):26"/>
				<v:ud v:nameU="Side" v:prompt="" v:val="VT0(4):26"/>
				<v:ud v:nameU="LeaderEnd" v:prompt="" v:val="VT7(PNT(6.25MM,-0.28346456692913)):40"/>
				<v:ud v:nameU="WHBoxIntersection" v:prompt="" v:val="VT7(PNT(10.096153846154MM,0)):40"/>
				<v:ud v:nameU="FoldSize" v:prompt="" v:val="VT0(0.11811023622047):24"/>
				<v:ud v:nameU="msvSDTargetIntersection" v:prompt="" v:val="VT7(PNT(0.89763777448104,0.78740156755521)):40"/>
				<v:ud v:nameU="Side" v:prompt="" v:val="VT0(2):26"/>
				<v:ud v:nameU="LeaderEnd" v:prompt="" v:val="VT7(PNT(0.89763777448104,0.78740156755521)):40"/>
				<v:ud v:nameU="WHBoxIntersection" v:prompt="" v:val="VT7(PNT(0.89763777448104,0.53149606299213)):40"/>
			</v:userDefs>
			<title>Nota</title>
			<desc>User position is available or manually inserted</desc>
			<g id="shape32-61" v:mID="32" v:groupContext="groupContent">
				<v:textBlock v:margins="rect(4,4,4,4)" v:tabSpace="42.5197"/>
				<v:textRect cx="64.6299" cy="576.142" width="129.26" height="36.8038"/>
				<path d="M0 595.28 L129.26 595.28 L129.26 565.51 L120.76 557.01 L0 557.01 L0 595.28 Z" class="st14"/>
				<path d="M64.63 557.01 L64.63 538.58" class="st15"/>
				<path d="M0 595.28 L129.26 595.28 L129.26 565.51 L120.76 557.01 L0 557.01 L0 595.28" class="st15"/>
				<text x="4.22" y="572.54" class="st8" v:langID="1040"><v:paragraph v:horizAlign="1"/><v:tabList/>User position is available <tspan
							x="14.24" dy="1.2em" class="st16">or manually inserted</tspan></text>			</g>
			<g id="shape33-67" v:mID="33" v:groupContext="shape" transform="translate(120.756,-29.7638)">
				<title>Foglio.33</title>
				<v:userDefs>
					<v:ud v:nameU="FoldSize" v:prompt="" v:val="VT0(0.11811023622047):24"/>
				</v:userDefs>
				<path d="M0 595.28 L8.5 595.28 L8.5 596.13 L8.5 595.28 L0 586.77 L-0.85 586.77 L0 586.77 L0 595.28 Z" class="st17"/>
			</g>
		</g>
		<g id="shape39-69" v:mID="39" v:groupContext="shape" transform="translate(141.732,-425.197)">
			<title>Azione.39</title>
			<desc>Picture preview</desc>
			<v:userDefs>
				<v:ud v:nameU="visVersion" v:prompt="" v:val="VT0(15):26"/>
			</v:userDefs>
			<v:textBlock v:margins="rect(4,4,4,4)" v:tabSpace="42.5197"/>
			<v:textRect cx="56.6929" cy="578.268" width="113.39" height="34.0157"/>
			<rect x="0" y="561.26" width="113.386" height="34.0157" rx="8.50394" ry="8.50394" class="st7"/>
			<text x="18.49" y="581.87" class="st8" v:langID="1040"><v:paragraph v:horizAlign="1"/><v:tabList/>Picture preview</text>		</g>
		<g id="shape41-72" v:mID="41" v:groupContext="shape" v:layerMember="0" transform="translate(262.205,-442.205)">
			<title>Connettore dinamico.41</title>
			<desc>Picture refused or undo</desc>
			<v:textBlock v:margins="rect(4,4,4,4)" v:tabSpace="42.5197"/>
			<v:textRect cx="28.9134" cy="564.591" width="86.81" height="17.6036"/>
			<path d="M-7.09 595.28 L28.91 595.28 L28.91 533.91 L-1.05 533.91" class="st9"/>
			<rect v:rectContext="textBkgnd" x="-9.58233" y="559.791" width="76.9916" height="9.59985" class="st11"/>
			<text x="-9.58" y="566.99" class="st12" v:langID="1040"><v:paragraph v:horizAlign="1"/><v:tabList/>Picture refused or undo</text>		</g>
		<g id="shape42-79" v:mID="42" v:groupContext="shape" v:layerMember="0" transform="translate(191.339,-425.197)">
			<title>Connettore dinamico.42</title>
			<desc>Picture confirmed</desc>
			<v:textBlock v:margins="rect(4,4,4,4)" v:tabSpace="42.5197"/>
			<v:textRect cx="7.08661" cy="609.872" width="68.07" height="17.6036"/>
			<path d="M7.09 595.28 L7.09 618.43" class="st9"/>
			<rect v:rectContext="textBkgnd" x="-22.0417" y="605.072" width="58.2569" height="9.59985" class="st11"/>
			<text x="-22.04" y="612.27" class="st12" v:langID="1040"><v:paragraph v:horizAlign="1"/><v:tabList/>Picture confirmed</text>		</g>
		<g id="shape43-86" v:mID="43" v:groupContext="shape" v:layerMember="0" transform="translate(191.339,-543.26)">
			<title>Connettore dinamico</title>
			<path d="M7.09 595.28 L7.09 611.91" class="st9"/>
		</g>
		<g id="shape55-91" v:mID="55" v:groupContext="shape" transform="translate(279.567,-259.942)">
			<title>Stato finale</title>
			<v:userDefs>
				<v:ud v:nameU="visVersion" v:prompt="" v:val="VT0(15):26"/>
			</v:userDefs>
			<path d="M30.61 578.27 A13.6063 13.6063 -180 1 0 3.4 578.27 A13.6063 13.6063 -180 1 0 30.61 578.27 Z" class="st18"/>
			<path d="M34.02 578.27 A17.0079 17.0079 -180 1 0 0 578.27 A17.0079 17.0079 -180 1 0 34.02 578.27" class="st19"/>
			<path d="M30.61 578.27 A13.6063 13.6063 -180 1 0 3.4 578.27 A13.6063 13.6063 -180 1 0 30.61 578.27" class="st19"/>
		</g>
		<g id="shape57-95" v:mID="57" v:groupContext="shape" v:layerMember="0" transform="translate(245.551,-269.863)">
			<title>Connettore dinamico.57</title>
			<desc>Send</desc>
			<v:textBlock v:margins="rect(4,4,4,4)" v:tabSpace="42.5197"/>
			<v:textRect cx="17.0079" cy="588.189" width="40" height="17.6036"/>
			<path d="M0 588.19 L27.98 588.19" class="st9"/>
			<rect v:rectContext="textBkgnd" x="8.97665" y="583.389" width="16.0623" height="9.59985" class="st11"/>
			<text x="8.98" y="590.59" class="st12" v:langID="1040"><v:paragraph v:horizAlign="1"/><v:tabList/>Send</text>		</g>
		<g id="shape58-102" v:mID="58" v:groupContext="shape" v:layerMember="0" transform="translate(159.803,-259.942)">
			<title>Connettore dinamico.58</title>
			<desc>Input</desc>
			<v:textBlock v:margins="rect(4,4,4,4)" v:tabSpace="42.5197"/>
			<v:textRect cx="-42.874" cy="603.947" width="40" height="17.6036"/>
			<path d="M0 595.28 L0 603.95 L-48.19 603.95 L-48.19 578.27 L-33.68 578.27" class="st9"/>
			<rect v:rectContext="textBkgnd" x="-51.5262" y="599.147" width="17.3046" height="9.59985" class="st11"/>
			<text x="-51.53" y="606.35" class="st12" v:langID="1040"><v:paragraph v:horizAlign="1"/><v:tabList/>Input</text>		</g>
		<g id="shape62-109" v:mID="62" v:groupContext="shape" transform="translate(208.701,-127.559)">
			<title>Azione.62</title>
			<desc>Report sent</desc>
			<v:userDefs>
				<v:ud v:nameU="visVersion" v:prompt="" v:val="VT0(15):26"/>
			</v:userDefs>
			<v:textBlock v:margins="rect(4,4,4,4)" v:tabSpace="42.5197"/>
			<v:textRect cx="56.6929" cy="578.268" width="113.39" height="34.0157"/>
			<rect x="0" y="561.26" width="113.386" height="34.0157" rx="8.50394" ry="8.50394" class="st7"/>
			<text x="28.18" y="581.87" class="st8" v:langID="1040"><v:paragraph v:horizAlign="1"/><v:tabList/>Report sent</text>		</g>
		<g id="shape63-112" v:mID="63" v:groupContext="shape" transform="translate(74.7638,-127.559)">
			<title>Azione.63</title>
			<desc>Operation aborted</desc>
			<v:userDefs>
				<v:ud v:nameU="visVersion" v:prompt="" v:val="VT0(15):26"/>
			</v:userDefs>
			<v:textBlock v:margins="rect(4,4,4,4)" v:tabSpace="42.5197"/>
			<v:textRect cx="56.6929" cy="578.268" width="113.39" height="34.0157"/>
			<rect x="0" y="561.26" width="113.386" height="34.0157" rx="8.50394" ry="8.50394" class="st7"/>
			<text x="11.13" y="581.87" class="st8" v:langID="1040"><v:paragraph v:horizAlign="1"/><v:tabList/>Operation aborted</text>		</g>
		<g id="shape65-115" v:mID="65" v:groupContext="shape" transform="translate(181.417,-70.8661)">
			<title>Stato finale.65</title>
			<v:userDefs>
				<v:ud v:nameU="visVersion" v:prompt="" v:val="VT0(15):26"/>
			</v:userDefs>
			<path d="M30.61 578.27 A13.6063 13.6063 -180 1 0 3.4 578.27 A13.6063 13.6063 -180 1 0 30.61 578.27 Z" class="st18"/>
			<path d="M34.02 578.27 A17.0079 17.0079 -180 1 0 0 578.27 A17.0079 17.0079 -180 1 0 34.02 578.27" class="st19"/>
			<path d="M30.61 578.27 A13.6063 13.6063 -180 1 0 3.4 578.27 A13.6063 13.6063 -180 1 0 30.61 578.27" class="st19"/>
		</g>
		<g id="shape66-119" v:mID="66" v:groupContext="shape" v:layerMember="0" transform="translate(141.732,-503.575)">
			<title>Connettore dinamico.66</title>
			<desc>Undo</desc>
			<v:textBlock v:margins="rect(4,4,4,4)" v:tabSpace="42.5197"/>
			<v:textRect cx="-102.969" cy="741.295" width="40" height="17.6036"/>
			<path d="M0 595.28 L-102.97 595.28 L-102.97 954.28 L-73.01 954.28" class="st9"/>
			<rect v:rectContext="textBkgnd" x="-111.847" y="736.496" width="17.7578" height="9.59985" class="st11"/>
			<text x="-111.85" y="743.7" class="st12" v:langID="1040"><v:paragraph v:horizAlign="1"/><v:tabList/>Undo</text>		</g>
		<g id="shape69-126" v:mID="69" v:groupContext="shape" v:layerMember="0" transform="translate(122.421,-192.756)">
			<title>Connettore dinamico.69</title>
			<desc>Undo</desc>
			<v:textBlock v:margins="rect(4,4,4,4)" v:tabSpace="42.5197"/>
			<v:textRect cx="9.03543" cy="608.917" width="40" height="17.6036"/>
			<path d="M5.14 595.28 L9.04 595.28 L9.04 620.42" class="st9"/>
			<rect v:rectContext="textBkgnd" x="0.156618" y="604.118" width="17.7578" height="9.59985" class="st11"/>
			<text x="0.16" y="611.32" class="st12" v:langID="1040"><v:paragraph v:horizAlign="1"/><v:tabList/>Undo</text>		</g>
		<g id="shape70-133" v:mID="70" v:groupContext="shape" v:layerMember="0" transform="translate(274.429,-192.756)">
			<title>Connettore dinamico.70</title>
			<desc>Send</desc>
			<v:textBlock v:margins="rect(4,4,4,4)" v:tabSpace="42.5197"/>
			<v:textRect cx="-9.03543" cy="608.917" width="40" height="17.6036"/>
			<path d="M-5.14 595.28 L-9.04 595.28 L-9.04 620.42" class="st9"/>
			<rect v:rectContext="textBkgnd" x="-17.0666" y="604.118" width="16.0623" height="9.59985" class="st11"/>
			<text x="-17.07" y="611.32" class="st12" v:langID="1040"><v:paragraph v:horizAlign="1"/><v:tabList/>Send</text>		</g>
		<g id="shape73-140" v:mID="73" v:groupContext="shape" v:layerMember="0" transform="translate(131.457,-127.559)">
			<title>Connettore dinamico.73</title>
			<path d="M0 595.28 L0 634.96 L43.92 634.96" class="st9"/>
		</g>
		<g id="shape78-145" v:mID="78" v:groupContext="shape" v:layerMember="0" transform="translate(265.394,-127.559)">
			<title>Connettore dinamico.78</title>
			<path d="M0 595.28 L0 634.96 L-43.92 634.96" class="st9"/>
		</g>
	</g>
</svg>
