<?xml version="1.0" encoding="UTF-8" standalone="no"?>
<!DOCTYPE svg PUBLIC "-//W3C//DTD SVG 1.1//EN" "http://www.w3.org/Graphics/SVG/1.1/DTD/svg11.dtd">
<!-- Generato da Microsoft Visio, esportazione SVG UML states municipality - v1.1.svg Auth interaction -->
<svg xmlns="http://www.w3.org/2000/svg" xmlns:xlink="http://www.w3.org/1999/xlink" xmlns:ev="http://www.w3.org/2001/xml-events"
		xmlns:v="http://schemas.microsoft.com/visio/2003/SVGExtensions/" width="4.40458in" height="2.70407in"
		viewBox="0 0 317.13 194.693" xml:space="preserve" color-interpolation-filters="sRGB" class="st16">
	<v:documentProperties v:langID="1040" v:metric="true" v:viewMarkup="false">
		<v:userDefs>
			<v:ud v:nameU="msvNoAutoConnect" v:prompt="" v:val="VT0(0):26"/>
		</v:userDefs>
	</v:documentProperties>

	<style type="text/css">
	<![CDATA[
		.st1 {fill:#73ae42;stroke:#ffffff;stroke-linecap:round;stroke-linejoin:round;stroke-width:0.5}
		.st2 {fill:#73ae42;stroke:#73ae42;stroke-linecap:round;stroke-linejoin:round;stroke-width:0.5}
		.st3 {fill:#ffffff;font-family:Calibri;font-size:1.00001em;font-weight:bold}
		.st4 {fill:#ffffff;stroke:#73ae42;stroke-linecap:round;stroke-linejoin:round;stroke-width:0.5}
		.st5 {fill:#73ae42;font-family:Calibri;font-size:1.00001em}
		.st6 {fill:#73ae42}
		.st7 {stroke:#73ae42;stroke-linecap:round;stroke-linejoin:round;stroke-width:0.5}
		.st8 {fill:#5b9bd5;stroke:#5b9bd5;stroke-linecap:round;stroke-linejoin:round;stroke-width:0.5}
		.st9 {marker-end:url(#mrkr4-24);stroke:#5592c9;stroke-linecap:round;stroke-linejoin:round;stroke-width:0.5}
		.st10 {fill:#5592c9;fill-opacity:1;stroke:#5592c9;stroke-opacity:1;stroke-width:0.16556291390728}
		.st11 {fill:#ffffff;stroke:none;stroke-linecap:butt;stroke-width:7.2}
		.st12 {fill:#41719d;font-family:Calibri;font-size:0.666664em}
		.st13 {fill:#ffffff;font-family:Calibri;font-size:1.00001em}
		.st14 {fill:#4271c6}
		.st15 {stroke:#4271c6;stroke-linecap:round;stroke-linejoin:round;stroke-width:0.5}
		.st16 {fill:none;fill-rule:evenodd;font-size:12px;overflow:visible;stroke-linecap:square;stroke-miterlimit:3}
	]]>
	</style>

	<defs id="Markers">
		<g id="lend4">
			<path d="M 2 1 L 0 0 L 2 -1 L 2 1 " style="stroke:none"/>
		</g>
		<marker id="mrkr4-24" class="st10" v:arrowType="4" v:arrowSize="2" v:setback="12.08" refX="-12.08" orient="auto"
				markerUnits="strokeWidth" overflow="visible">
			<use xlink:href="#lend4" transform="scale(-6.04,-6.04) "/>
		</marker>
	</defs>
	<g v:mID="5" v:index="2" v:groupContext="foregroundPage">
		<v:userDefs>
			<v:ud v:nameU="msvThemeOrder" v:val="VT0(0):26"/>
		</v:userDefs>
		<title>Municipality</title>
		<v:pageProperties v:drawingScale="0.0393701" v:pageScale="0.0393701" v:drawingUnits="24" v:shadowOffsetX="8.50394"
				v:shadowOffsetY="-8.50394"/>
		<v:layer v:name="Connettore" v:index="0"/>
		<g id="group38-1" transform="translate(124.266,-131.636)" v:mID="38" v:groupContext="group">
			<v:userDefs>
				<v:ud v:nameU="visVersion" v:prompt="" v:val="VT0(15):26"/>
			</v:userDefs>
			<title>Stato macchina secondaria</title>
			<g id="shape38-2" v:mID="38" v:groupContext="groupContent">
				<rect x="0" y="149.886" width="113.386" height="44.8074" rx="8.50394" ry="8.50394" class="st1"/>
			</g>
			<g id="shape39-4" v:mID="39" v:groupContext="shape" transform="translate(0,-22.4037)">
				<title>Foglio.39</title>
				<desc>Sign up</desc>
				<v:userDefs>
					<v:ud v:nameU="UmlRole" v:prompt="" v:val="VT4(Title)"/>
				</v:userDefs>
				<v:textBlock v:margins="rect(4,4,4,4)" v:tabSpace="42.5197"/>
				<v:textRect cx="56.6929" cy="183.491" width="113.39" height="22.4037"/>
				<path d="M8.5 194.69 L104.88 194.69 A8.50394 8.50394 -180 0 0 113.39 186.19 L113.39 180.79 A8.50394 8.50394 -180
							 0 0 104.88 172.29 L8.5 172.29 A8.50394 8.50394 -180 0 0 0 180.79 L0 186.19 A8.50394 8.50394 -180 0 0
							 8.5 194.69 Z" class="st2"/>
				<text x="38.52" y="187.09" class="st3" v:langID="1040"><v:paragraph v:horizAlign="1"/><v:tabList/>Sign up</text>			</g>
			<g id="group40-7" v:mID="40" v:groupContext="group">
				<v:userDefs>
					<v:ud v:nameU="UmlRole" v:prompt="" v:val="VT4(Body)"/>
				</v:userDefs>
				<title>Foglio.40</title>
				<desc>Sign up process</desc>
				<g id="shape40-8" v:mID="40" v:groupContext="groupContent">
					<v:textBlock v:margins="rect(4,4,4,4)" v:tabSpace="42.5197"/>
					<v:textRect cx="56.6929" cy="179.239" width="113.39" height="22.4037"/>
					<path d="M8.5 194.69 L104.88 194.69 A8.50394 8.50394 -180 0 0 113.39 186.19 L113.39 176.54 A8.50394 8.50394 -180
								 0 0 104.88 168.04 L8.5 168.04 A8.50394 8.50394 -180 0 0 0 176.54 L0 186.19 A8.50394 8.50394 -180
								 0 0 8.5 194.69 Z" class="st4"/>
					<text x="4" y="182.84" class="st5" v:langID="1040"><v:paragraph/><v:tabList/>Sign up process</text>				</g>
				<g id="shape41-11" v:mID="41" v:groupContext="shape" transform="translate(85.748,-2.12598)">
					<title>Foglio.41</title>
					<path d="M15.94 192.57 L9.57 192.57 L15.94 192.57 Z" class="st6"/>
					<path d="M2.13 194.69 L7.44 194.69 A2.12598 2.12598 -180 0 0 9.57 192.57 L9.57 192.57 A2.12598 2.12598 -180 0
								 0 7.44 190.44 L2.13 190.44 A2.12598 2.12598 -180 0 0 0 192.57 L0 192.57 A2.12598 2.12598 -180 0
								 0 2.13 194.69" class="st7"/>
					<path d="M18.07 194.69 L23.39 194.69 A2.12598 2.12598 -180 0 0 25.51 192.57 L25.51 192.57 A2.12598 2.12598 -180
								 0 0 23.39 190.44 L18.07 190.44 A2.12598 2.12598 -180 0 0 15.94 192.57 L15.94 192.57 A2.12598 2.12598
								 -180 0 0 18.07 194.69" class="st7"/>
					<path d="M15.94 192.57 L9.57 192.57" class="st7"/>
					<path d="" class="st7"/>
				</g>
			</g>
		</g>
		<g id="shape45-17" v:mID="45" v:groupContext="shape" transform="translate(18.25,-74.9429)">
			<title>Stato iniziale.45</title>
			<v:userDefs>
				<v:ud v:nameU="visVersion" v:prompt="" v:val="VT0(15):26"/>
			</v:userDefs>
			<ellipse cx="17.0079" cy="177.685" rx="17.0079" ry="17.0079" class="st8"/>
		</g>
		<g id="shape46-19" v:mID="46" v:groupContext="shape" v:layerMember="0" transform="translate(52.2657,-84.8642)">
			<title>Connettore dinamico.46</title>
			<desc>Open app</desc>
			<v:textBlock v:margins="rect(4,4,4,4)" v:tabSpace="42.5197"/>
			<v:textRect cx="36" cy="187.607" width="41.55" height="17.6036"/>
			<path d="M0 187.61 L65.96 187.61" class="st9"/>
			<rect v:rectContext="textBkgnd" x="20.135" y="182.807" width="31.7302" height="9.59985" class="st11"/>
			<text x="20.14" y="190.01" class="st12" v:langID="1040"><v:paragraph v:horizAlign="1"/><v:tabList/>Open app</text>		</g>
		<g id="shape47-27" v:mID="47" v:groupContext="shape" transform="translate(124.266,-74.9429)">
			<title>Azione</title>
			<desc>Logging in</desc>
			<v:userDefs>
				<v:ud v:nameU="visVersion" v:prompt="" v:val="VT0(15):26"/>
			</v:userDefs>
			<v:textBlock v:margins="rect(4,4,4,4)" v:tabSpace="42.5197"/>
			<v:textRect cx="56.6929" cy="177.685" width="113.39" height="34.0157"/>
			<rect x="0" y="160.678" width="113.386" height="34.0157" rx="8.50394" ry="8.50394" class="st1"/>
			<text x="32.12" y="181.29" class="st13" v:langID="1040"><v:paragraph v:horizAlign="1"/><v:tabList/>Logging in</text>		</g>
		<g id="shape48-30" v:mID="48" v:groupContext="shape" transform="translate(18.25,-18.25)">
			<title>Azione.48</title>
			<desc>Show statistics, suggestions, tickets, violations</desc>
			<v:userDefs>
				<v:ud v:nameU="visVersion" v:prompt="" v:val="VT0(15):26"/>
			</v:userDefs>
			<v:textBlock v:margins="rect(4,4,4,4)" v:tabSpace="42.5197"/>
			<v:textRect cx="140.315" cy="177.685" width="280.63" height="34.0157"/>
			<rect x="0" y="160.678" width="280.63" height="34.0157" rx="8.50394" ry="8.50394" class="st1"/>
			<text x="27.73" y="181.29" class="st13" v:langID="1040"><v:paragraph v:horizAlign="1"/><v:tabList/>Show statistics, suggestions, tickets, violations</text>		</g>
		<g id="shape50-33" v:mID="50" v:groupContext="shape" v:layerMember="0" transform="translate(209.305,-116.045)">
			<title>Connettore dinamico.11</title>
			<desc>Login | Fail</desc>
			<v:textBlock v:margins="rect(4,4,4,4)" v:tabSpace="42.5197"/>
			<v:textRect cx="-28.3465" cy="194.532" width="45.68" height="17.6036"/>
			<path d="M0 201.78 L0 194.53 L-56.69 194.53 L-56.69 195.74" class="st9"/>
			<rect v:rectContext="textBkgnd" x="-46.2797" y="189.732" width="35.8668" height="9.59985" class="st11"/>
			<text x="-46.28" y="196.93" class="st12" v:langID="1040"><v:paragraph v:horizAlign="1"/><v:tabList/>Login | Fail</text>		</g>
		<g id="shape55-40" v:mID="55" v:groupContext="shape" v:layerMember="0" transform="translate(174.014,-74.9429)">
			<title>Connettore dinamico.55</title>
			<desc>Login | Success</desc>
			<v:textBlock v:margins="rect(4,4,4,4)" v:tabSpace="42.5197"/>
			<v:textRect cx="7.22833" cy="205.89" width="59.39" height="17.6036"/>
			<path d="M6.94 194.69 L6.94 205.57 L7.23 205.57 L7.23 211.33" class="st9"/>
			<rect v:rectContext="textBkgnd" x="-17.5564" y="201.09" width="49.5698" height="9.59985" class="st11"/>
			<text x="-17.56" y="208.29" class="st12" v:langID="1040"><v:paragraph v:horizAlign="1"/><v:tabList/>Login | Success</text>		</g>
		<g id="shape57-47" v:mID="57" v:groupContext="shape" v:layerMember="0" transform="translate(230.565,-91.9508)">
			<title>Connettore dinamico.34</title>
			<desc>Sign up</desc>
			<v:textBlock v:margins="rect(4,4,4,4)" v:tabSpace="42.5197"/>
			<v:textRect cx="43.0866" cy="163.649" width="40" height="17.6036"/>
			<path d="M7.09 194.69 L43.09 194.69 L43.09 132.6 L13.13 132.6" class="st9"/>
			<rect v:rectContext="textBkgnd" x="31.239" y="158.849" width="23.695" height="9.59985" class="st11"/>
			<text x="31.24" y="166.05" class="st12" v:langID="1040"><v:paragraph v:horizAlign="1"/><v:tabList/>Sign up</text>		</g>
		<g id="shape84-54" v:mID="84" v:groupContext="shape" transform="translate(18.25,-137.032)">
			<title>Stato finale</title>
			<v:userDefs>
				<v:ud v:nameU="visVersion" v:prompt="" v:val="VT0(15):26"/>
			</v:userDefs>
			<path d="M30.61 177.69 A13.6063 13.6063 -180 1 0 3.4 177.69 A13.6063 13.6063 -180 1 0 30.61 177.69 Z" class="st14"/>
			<path d="M34.02 177.69 A17.0079 17.0079 -180 1 0 0 177.69 A17.0079 17.0079 -180 1 0 34.02 177.69" class="st15"/>
			<path d="M30.61 177.69 A13.6063 13.6063 -180 1 0 3.4 177.69 A13.6063 13.6063 -180 1 0 30.61 177.69" class="st15"/>
		</g>
		<g id="shape85-58" v:mID="85" v:groupContext="shape" v:layerMember="0" transform="translate(124.266,-146.953)">
			<title>Connettore dinamico.85</title>
			<desc>On completion</desc>
			<v:textBlock v:margins="rect(4,4,4,4)" v:tabSpace="42.5197"/>
			<v:textRect cx="-36" cy="187.607" width="58.07" height="17.6036"/>
			<path d="M0 187.61 L-65.96 187.61" class="st9"/>
			<rect v:rectContext="textBkgnd" x="-60.1283" y="182.807" width="48.2569" height="9.59985" class="st11"/>
			<text x="-60.13" y="190.01" class="st12" v:langID="1040"><v:paragraph v:horizAlign="1"/><v:tabList/>On completion</text>		</g>
	</g>
</svg>
